<svg width="1032" height="252" viewBox="0 0 1032 252" fill="none" xmlns="http://www.w3.org/2000/svg">
<g clip-path="url(#clip0_88_1046)">
<path d="M102.812 204.71L103.781 202.504C104.427 212.995 105.127 223.54 105.773 234.031C105.988 237.689 106.258 241.455 107.657 244.845C109.057 248.234 111.91 251.247 115.516 251.892C119.069 252.538 122.783 250.709 125.151 247.965C127.52 245.221 128.812 241.724 129.673 238.173C132.311 227.413 131.665 215.846 127.789 205.409" fill="#603FC9"/>
<path d="M58.5117 188.623C49.4685 192.873 42.7937 201.75 41.1789 211.596C40.4791 215.738 40.7482 220.204 42.6861 223.916C44.6239 227.628 48.5534 230.533 52.8058 230.426C56.3585 230.318 59.5882 228.22 61.9028 225.53C64.2175 222.84 65.6708 219.558 67.1242 216.276C70.6769 208.368 74.1757 200.459 77.7284 192.497C77.244 192.497 76.7595 192.497 76.2751 192.55" fill="#603FC9"/>
<path d="M35.1501 164.682C26.7529 159.141 14.5338 160.647 7.32078 167.695C0.107758 174.743 -1.93773 186.363 1.93793 195.671C4.19872 201.105 9.36626 206.162 15.1259 205.14C20.1858 204.225 23.3078 199.114 24.7612 194.164C26.2146 189.269 26.8067 183.942 29.6596 179.692C40.533 180.607 51.7293 177.594 60.7186 171.353" fill="#603FC9"/>
<path d="M163.262 201.966L167.191 207.83C169.183 210.789 171.229 213.802 174.081 216.008C176.934 218.214 180.702 219.451 184.147 218.375C188.669 216.976 191.199 211.865 191.145 207.131C191.091 202.396 189.1 197.931 187.108 193.627" fill="#603FC9"/>
<path d="M175.481 170.008C173.435 158.71 164.392 150.102 155.241 143.216C148.567 138.212 141.569 133.639 134.248 129.604C134.41 129.12 134.625 128.636 134.787 128.152C136.994 128.69 139.254 129.12 141.461 129.497C144.045 129.927 146.737 130.304 149.266 129.551C162.885 125.677 154.811 109.376 149.105 102.113C142 93.0741 131.934 84.6813 121.222 80.4311C110.187 76.0195 98.2371 74.1903 86.5025 73.3295C62.7641 71.5541 24.3844 74.2979 12.3268 99.046C3.60658 116.961 12.3268 138.966 21.6391 154.891C29.6057 168.61 40.6406 180.607 53.7747 189.538C65.94 197.823 80.7966 202.019 94.9535 205.355C110.779 209.067 128.166 212.08 144.422 208.26C161.701 204.225 179.087 189.592 175.535 170.008H175.481Z" fill="#6C50FF"/>
<path d="M113.74 173.505C110.026 151.663 119.392 129.067 134.248 112.604C149.105 96.1409 168.914 85.0042 189.1 75.8044C196.313 72.5226 204.064 69.3484 211.923 70.1554C213.807 72.6302 213.538 76.5038 211.923 79.1938C210.308 81.8838 207.832 83.8206 205.517 85.865C195.128 94.9572 187.108 107.493 186.354 121.266C185.601 135.038 193.46 149.618 206.54 154.03C209.662 155.106 213.161 155.536 216.337 154.622C219.513 153.707 222.419 151.232 223.119 148.004C220.105 145.099 219.082 141.172 217.252 137.406C215.906 134.662 214.937 131.219 216.714 128.744C217.952 127.022 220.266 126.323 222.366 126.592C224.465 126.861 226.349 127.991 228.018 129.282C230.924 131.595 233.777 134.877 237.438 134.5C239.645 134.285 241.475 132.725 243.251 131.38C245.027 130.035 247.342 128.905 249.441 129.658C251.272 130.25 252.402 132.133 252.725 134.016C253.048 135.899 252.671 137.836 252.294 139.719C251.272 144.991 250.195 150.264 249.172 155.536C245.62 173.398 231.086 190.076 214.291 197.231C205.733 200.89 196.366 202.396 187.162 203.687C172.305 205.786 156.964 207.507 142.43 203.795C127.897 200.083 116.27 188.247 113.74 173.452V173.505Z" fill="#6C50FF"/>
<path d="M159.063 197.984C168.458 197.984 176.073 190.373 176.073 180.983C176.073 171.594 168.458 163.982 159.063 163.982C149.669 163.982 142.053 171.594 142.053 180.983C142.053 190.373 149.669 197.984 159.063 197.984Z" fill="white"/>
<path d="M121.975 157.312C122.137 161.508 118.853 164.952 114.709 165.113C114.601 165.113 114.547 165.113 114.439 165.113C110.402 165.113 107.065 161.885 106.903 157.85C106.204 138.267 113.148 118.791 125.797 102.543C114.709 91.7296 100.982 83.6595 86.1257 79.3017C72.1302 75.1591 57.2197 74.3521 42.9014 76.8269C57.5427 72.6843 74.0681 72.4153 86.5025 73.3299C98.2909 74.1907 110.241 76.0199 121.222 80.4315C126.874 82.6911 132.364 86.0806 137.317 90.1694C141.3 93.3974 144.96 97.0558 148.082 100.876C131.288 116.101 121.222 137.029 121.922 157.366L121.975 157.312Z" fill="#603FC9"/>
</g>
<path d="M373.893 205.57L374.646 203.311C376.423 213.694 378.145 224.077 379.922 234.461C380.514 238.065 381.16 241.778 382.936 245.006C384.712 248.234 387.834 250.924 391.495 251.193C395.101 251.462 398.6 249.256 400.646 246.297C402.691 243.338 403.606 239.679 404.091 236.129C405.598 225.153 403.768 213.694 398.869 203.741" fill="#603FC9"/>
<path d="M336.159 197.662C327.546 202.719 321.733 212.242 321.087 222.195C320.818 226.391 321.464 230.803 323.778 234.354C326.093 237.905 330.238 240.379 334.436 239.895C337.935 239.465 341.003 237.098 342.995 234.192C344.987 231.287 346.171 227.898 347.301 224.508C350.047 216.277 352.846 208.099 355.591 199.868C355.107 199.922 354.622 199.976 354.138 200.083" fill="#603FC9"/>
<path d="M415.61 197.285V204.333C415.718 207.884 415.771 211.542 416.902 214.932C418.032 218.321 420.562 221.441 424.007 222.464C428.583 223.755 433.481 220.903 436.065 216.922C438.648 212.941 439.456 208.099 440.156 203.418" fill="#603FC9"/>
<path d="M288.144 161.992C282.6 160.217 276.14 161.992 272.211 166.242C269.196 169.524 267.797 173.936 267.097 178.347C266.074 185.18 266.72 192.228 268.927 198.738C270.327 202.719 272.372 206.646 275.71 209.229C279.047 211.811 283.892 212.78 287.606 210.735C291.804 208.422 293.419 203.149 293.796 198.361C294.334 191.421 293.204 184.373 290.459 178.025C296.757 180.123 303.431 181.037 310.106 180.822" fill="#603FC9"/>
<path d="M433.481 170.008C431.435 158.71 422.392 150.102 413.241 143.216C406.567 138.212 399.569 133.639 392.248 129.604C392.41 129.12 392.625 128.636 392.787 128.152C394.994 128.69 397.254 129.12 399.461 129.497C402.045 129.927 404.737 130.304 407.266 129.551C420.885 125.677 412.811 109.376 407.105 102.113C400 93.0741 389.934 84.6813 379.222 80.4311C368.187 76.0195 356.237 74.1903 344.502 73.3295C320.764 71.5541 282.384 74.2979 270.327 99.046C261.607 116.961 270.327 138.966 279.639 154.891C287.606 168.61 298.641 180.607 311.775 189.538C323.94 197.823 338.797 202.019 352.954 205.355C368.779 209.067 386.166 212.08 402.422 208.26C419.701 204.225 437.087 189.592 433.535 170.008H433.481Z" fill="#6C50FF"/>
<path d="M371.74 173.505C368.026 151.663 377.392 129.067 392.248 112.604C407.105 96.1409 426.914 85.0042 447.1 75.8044C454.313 72.5226 462.064 69.3484 469.923 70.1554C471.807 72.6302 471.538 76.5038 469.923 79.1938C468.308 81.8838 465.832 83.8206 463.517 85.865C453.128 94.9572 445.108 107.493 444.354 121.266C443.601 135.038 451.46 149.618 464.54 154.03C467.662 155.106 471.161 155.536 474.337 154.622C477.513 153.707 480.419 151.232 481.119 148.004C478.105 145.099 477.082 141.172 475.252 137.406C473.906 134.662 472.937 131.219 474.714 128.744C475.952 127.022 478.266 126.323 480.366 126.592C482.465 126.861 484.349 127.991 486.018 129.282C488.924 131.595 491.777 134.877 495.438 134.5C497.645 134.285 499.475 132.725 501.251 131.38C503.027 130.035 505.342 128.905 507.441 129.658C509.272 130.25 510.402 132.133 510.725 134.016C511.048 135.899 510.671 137.836 510.294 139.719C509.272 144.991 508.195 150.264 507.172 155.536C503.62 173.398 489.086 190.076 472.291 197.231C463.733 200.89 454.366 202.396 445.162 203.687C430.305 205.786 414.964 207.507 400.43 203.795C385.897 200.083 374.27 188.247 371.74 173.452V173.505Z" fill="#6C50FF"/>
<path d="M417.063 197.984C426.458 197.984 434.073 190.373 434.073 180.983C434.073 171.594 426.458 163.982 417.063 163.982C407.669 163.982 400.053 171.594 400.053 180.983C400.053 190.373 407.669 197.984 417.063 197.984Z" fill="white"/>
<path d="M379.975 157.312C380.137 161.508 376.853 164.952 372.709 165.113C372.601 165.113 372.547 165.113 372.439 165.113C368.402 165.113 365.065 161.885 364.903 157.85C364.204 138.267 371.148 118.791 383.797 102.543C372.709 91.7296 358.982 83.6595 344.126 79.3017C330.13 75.1591 315.22 74.3521 300.901 76.8269C315.543 72.6843 332.068 72.4153 344.502 73.3299C356.291 74.1907 368.241 76.0199 379.222 80.4315C384.874 82.6911 390.364 86.0806 395.317 90.1694C399.3 93.3974 402.96 97.0558 406.082 100.876C389.288 116.101 379.222 137.029 379.922 157.366L379.975 157.312Z" fill="#603FC9"/>
<g clip-path="url(#clip1_88_1046)">
<path d="M618.705 189.861C623.119 197.823 630.709 203.956 639.429 206.646C637.007 210.466 634.584 214.394 633.723 218.805C632.862 223.217 633.992 228.328 637.599 231.018C640.882 233.493 645.619 233.385 649.333 231.502C653.048 229.619 655.739 226.337 657.785 222.733C662.683 214.125 663.975 203.58 661.337 194.057C658.7 184.535 652.079 176.196 643.466 171.354" fill="#603FC9"/>
<path d="M690.297 179.961C694.442 178.616 698.963 181.521 700.955 185.233C702.947 188.946 703.054 193.25 703.646 197.338C704.185 201.427 705.369 205.839 708.76 208.475C713.605 212.295 721.571 210.842 725.824 206.377C730.076 201.911 731.207 195.455 730.561 189.484C728.892 174.151 715.758 160.539 699.771 157.58" fill="#603FC9"/>
<path d="M716.619 153.222C722.648 160.216 727.116 168.555 729.538 177.486C730.615 181.468 731.314 185.718 733.467 189.269C735.621 192.819 739.712 195.617 743.749 194.702C746.709 194.057 749.024 191.528 750.1 188.623C751.177 185.718 751.231 182.651 751.016 179.584C750.1 165.543 744.126 151.877 734.436 141.602" fill="#603FC9"/>
<path d="M558.525 152.415C553.465 151.339 548.244 154.513 545.552 158.925C542.861 163.336 542.215 168.663 542.161 173.827C541.999 183.511 543.668 193.626 549.428 201.427C550.666 203.095 552.227 204.763 554.272 205.193C556.587 205.731 559.117 204.494 560.516 202.557C562.239 200.19 562.454 197.015 562.562 194.11C562.777 187.977 562.777 181.844 562.562 175.71C570.421 177.217 578.926 174.527 584.47 168.77" fill="#603FC9"/>
<path d="M729.591 135.576C728.192 146.39 721.355 155.805 713.497 163.445C689.274 187.171 653.047 198.038 619.781 191.367C603.148 188.031 587.538 180.338 574.511 169.524C563.961 160.755 550.342 149.026 547.597 134.931C547.113 132.51 547.059 130.035 547.382 127.56C550.235 129.927 554.218 130.573 557.717 129.712C561.754 128.744 565.145 126 567.837 122.772C570.528 119.544 572.627 115.778 574.942 112.227C586.246 94.4729 602.556 80.4311 621.396 72.1458C632.431 67.3038 644.381 64.4524 656.492 63.6992C657.515 64.829 658.861 65.5822 660.475 65.7974C674.848 67.6804 688.359 75.2125 697.563 86.4029C706.768 97.5933 711.505 112.335 710.482 126.807C710.213 130.411 712.958 133.532 716.565 133.747C717.157 133.747 717.803 133.747 718.341 133.639C721.14 133.048 723.293 130.68 723.509 127.721C724.208 117.446 722.54 107.008 718.826 97.3781C726.146 109.483 731.26 123.202 729.591 135.63V135.576Z" fill="#6C50FF"/>
<path d="M676.086 67.4121C683.137 40.9424 700.955 17.4317 724.532 3.44369C729.753 0.323282 737.235 -1.99013 741.272 2.52909C744.179 5.7571 743.479 10.9219 741.272 14.6341C739.065 18.3463 735.62 21.1439 732.875 24.5334C724.854 34.594 724.262 49.927 731.529 60.5257C734.544 64.9373 739.227 68.7033 744.556 68.6495C749.885 68.5957 755.052 63.1081 753.276 58.1047C751.5 53.0475 743.91 49.4966 746.117 44.6008C747.355 41.8032 751.446 41.2652 754.083 42.7716C756.721 44.278 758.39 47.1294 759.843 49.8194C757.69 47.9364 758.874 43.9014 761.566 42.8792C764.257 41.857 767.379 43.202 769.209 45.4616C771.039 47.7212 771.739 50.5726 772.331 53.3703C778.629 85.0586 766.948 119.706 742.726 141.118C718.503 162.531 682.707 169.901 651.971 159.841" fill="#6C50FF"/>
<path d="M754.568 112.658C754.568 119.867 749.508 128.583 743.264 132.187C737.02 135.792 731.96 132.887 731.96 125.677C731.96 118.468 737.02 109.753 743.264 106.148C749.508 102.543 754.568 105.449 754.568 112.658Z" fill="white"/>
<path d="M723.455 127.668C723.24 130.627 721.087 132.994 718.288 133.586C717.695 133.693 717.103 133.747 716.511 133.693C712.905 133.424 710.213 130.358 710.429 126.753C711.397 112.281 706.661 97.5395 697.51 86.3491C690.889 78.279 682.384 72.7914 673.072 69.5634C649.01 73.437 624.626 81.5071 605.732 97.3243C595.505 105.879 586.623 115.885 577.472 125.569C574.242 129.013 570.744 132.51 566.222 133.855C561.001 135.415 555.51 133.693 551.042 130.949C546.144 127.937 547.382 124.924 549.212 120.082C552.873 110.398 559.655 102.22 566.814 94.9033C586.569 74.8358 612.192 58.2654 640.398 53.7462C667.689 49.3346 695.949 60.0408 711.559 83.2825C714.52 87.6403 716.942 92.3747 718.826 97.2705C722.54 106.901 724.209 117.284 723.509 127.614L723.455 127.668Z" fill="#603FC9"/>
</g>
<g clip-path="url(#clip2_88_1046)">
<path d="M981.078 154.138C990.014 156.613 998.303 161.132 1005.3 167.211C1008.42 169.955 1011.33 173.076 1015.1 174.797C1018.87 176.519 1023.82 176.626 1026.72 173.614C1028.82 171.408 1029.36 168.018 1028.66 165.059C1027.96 162.1 1026.29 159.464 1024.41 157.043C1015.85 145.853 1003.31 137.783 989.583 134.608" fill="#603FC9"/>
<path d="M939.307 173.291C938.069 181.307 937.262 189.377 936.885 197.447C936.67 201.912 936.616 206.485 938.177 210.628C939.738 214.771 943.344 218.483 947.758 218.913C951.419 219.236 955.079 217.299 957.448 214.448C959.816 211.597 961.162 208.099 962.184 204.495C966.275 189.807 964.822 173.667 958.255 159.895" fill="#603FC9"/>
<path d="M898.72 188.032C898.236 193.681 895.114 199.061 890.431 202.289C892.53 210.682 892.207 219.667 889.516 227.898C888.332 231.557 886.394 235.323 882.949 237.098C879.557 238.82 875.305 238.12 872.183 235.914C869.061 233.709 867.177 230.158 866.208 226.499C865.239 222.841 865.293 218.967 865.508 215.201C866.047 205.679 868.2 195.672 874.821 188.839" fill="#603FC9"/>
<path d="M825.191 148.22C822.607 147.359 819.7 148.865 818.139 151.179C816.578 153.492 816.094 156.397 815.986 159.195C815.394 172.161 821.961 185.18 832.565 192.121C836.549 194.703 842.093 196.317 845.646 193.089C850.975 188.247 847.368 180.069 846.507 174.151C845.377 166.404 844.892 158.549 845 150.748" fill="#603FC9"/>
<path d="M987.591 135.576C986.192 146.39 979.355 155.805 971.497 163.445C947.274 187.171 911.047 198.038 877.781 191.367C861.148 188.031 845.538 180.338 832.511 169.524C821.961 160.755 808.342 149.026 805.597 134.931C805.113 132.51 805.059 130.035 805.382 127.56C808.235 129.927 812.218 130.573 815.717 129.712C819.754 128.744 823.145 126 825.837 122.772C828.528 119.544 830.627 115.778 832.942 112.227C844.246 94.4729 860.556 80.4311 879.396 72.1458C890.431 67.3038 902.381 64.4524 914.492 63.6992C915.515 64.829 916.861 65.5822 918.475 65.7974C932.848 67.6804 946.359 75.2125 955.563 86.4029C964.768 97.5933 969.505 112.335 968.482 126.807C968.213 130.411 970.958 133.532 974.565 133.747C975.157 133.747 975.803 133.747 976.341 133.639C979.14 133.048 981.293 130.68 981.509 127.721C982.208 117.446 980.54 107.008 976.826 97.3781C984.146 109.483 989.26 123.202 987.591 135.63V135.576Z" fill="#6C50FF"/>
<path d="M934.086 67.4121C941.137 40.9424 958.955 17.4317 982.532 3.44369C987.753 0.323282 995.235 -1.99013 999.272 2.52909C1002.18 5.7571 1001.48 10.9219 999.272 14.6341C997.065 18.3463 993.62 21.1439 990.875 24.5334C982.854 34.594 982.262 49.927 989.529 60.5257C992.544 64.9373 997.227 68.7033 1002.56 68.6495C1007.88 68.5957 1013.05 63.1081 1011.28 58.1047C1009.5 53.0475 1001.91 49.4966 1004.12 44.6008C1005.35 41.8032 1009.45 41.2652 1012.08 42.7716C1014.72 44.278 1016.39 47.1294 1017.84 49.8194C1015.69 47.9364 1016.87 43.9014 1019.57 42.8792C1022.26 41.857 1025.38 43.202 1027.21 45.4616C1029.04 47.7212 1029.74 50.5726 1030.33 53.3703C1036.63 85.0586 1024.95 119.706 1000.73 141.118C976.503 162.531 940.707 169.901 909.971 159.841" fill="#6C50FF"/>
<path d="M1012.57 112.658C1012.57 119.867 1007.51 128.583 1001.26 132.187C995.02 135.792 989.96 132.887 989.96 125.677C989.96 118.468 995.02 109.753 1001.26 106.148C1007.51 102.543 1012.57 105.449 1012.57 112.658Z" fill="white"/>
<path d="M981.455 127.668C981.24 130.627 979.087 132.994 976.288 133.586C975.695 133.693 975.103 133.747 974.511 133.693C970.905 133.424 968.213 130.358 968.429 126.753C969.397 112.281 964.661 97.5395 955.51 86.3491C948.889 78.279 940.384 72.7914 931.072 69.5634C907.01 73.437 882.626 81.5071 863.732 97.3243C853.505 105.879 844.623 115.885 835.472 125.569C832.242 129.013 828.744 132.51 824.222 133.855C819.001 135.415 813.51 133.693 809.042 130.949C804.144 127.937 805.382 124.924 807.212 120.082C810.873 110.398 817.655 102.22 824.814 94.9033C844.569 74.8358 870.192 58.2654 898.398 53.7462C925.689 49.3346 953.949 60.0408 969.559 83.2825C972.52 87.6403 974.942 92.3747 976.826 97.2705C980.54 106.901 982.209 117.284 981.509 127.614L981.455 127.668Z" fill="#603FC9"/>
</g>
<defs>
<clipPath id="clip0_88_1046">
<rect width="258" height="252" fill="white"/>
</clipPath>
<clipPath id="clip1_88_1046">
<rect width="258" height="252" fill="white" transform="translate(516)"/>
</clipPath>
<clipPath id="clip2_88_1046">
<rect width="258" height="252" fill="white" transform="translate(774)"/>
</clipPath>
</defs>
</svg>
