<svg width="936" height="1006" viewBox="0 0 936 1006" fill="none" xmlns="http://www.w3.org/2000/svg">
<path d="M345.55 577.8L30.8501 759.51L345.55 941.22L660.25 759.51L345.55 577.8Z" fill="#FF80BF"/>
<mask id="mask0_104_1950" style="mask-type:alpha" maskUnits="userSpaceOnUse" x="173" y="354" width="345" height="506">
<path d="M467.55 689.07C400.45 650.33 290.65 650.33 223.55 689.07C190 708.44 173.22 733.98 173.22 759.51C173.22 785.05 189.99 810.58 223.55 829.95C290.65 868.69 400.45 868.69 467.55 829.95C501.1 810.58 517.88 785.04 517.88 759.51C517.88 733.97 501.11 708.44 467.55 689.07Z" fill="#FF80BF"/>
<path d="M177.51 737.32H513.57L364.17 367.38C357.41 350.63 333.69 350.63 326.93 367.38L177.51 737.32Z" fill="#FF80BF"/>
</mask>
<g mask="url(#mask0_104_1950)">
<path d="M467.55 689.07C400.45 650.33 290.65 650.33 223.55 689.07C190 708.44 173.22 733.98 173.22 759.51C173.22 785.05 189.99 810.58 223.55 829.95C290.65 868.69 400.45 868.69 467.55 829.95C501.1 810.58 517.88 785.04 517.88 759.51C517.88 733.97 501.11 708.44 467.55 689.07Z" fill="#FF80BF"/>
<path d="M177.51 737.32H513.57L364.17 367.38C357.41 350.63 333.69 350.63 326.93 367.38L177.51 737.32Z" fill="#FF80BF"/>
<path d="M424.35 512.78C424.35 524.45 416.66 536.12 401.33 544.98C370.67 562.66 320.47 562.66 289.76 544.98C274.43 536.12 266.74 524.45 266.74 512.78L288.99 457.29C288.99 465.66 294.51 474.07 305.5 480.4C327.52 493.11 363.57 493.11 385.59 480.4C396.62 474.07 402.1 465.66 402.1 457.29L424.35 512.78Z" fill="#FFB0E1"/>
<path d="M521.42 760.01C521.42 786.05 504.26 812.09 470.05 831.87C401.62 871.33 289.59 871.33 221.05 831.87C186.83 812.09 169.67 786.05 169.67 760.01L199.13 694.09C199.13 715.75 213.42 737.53 241.86 753.92C298.88 786.82 392.19 786.82 449.21 753.92C477.78 737.53 491.94 715.75 491.94 694.09L521.4 760.01H521.42Z" fill="#FFB0E1"/>
</g>
<path d="M30.8501 759.51V823.64L345.54 1005.34L345.55 941.22L30.8501 759.51Z" fill="#D66BB0"/>
<path d="M319.83 883.76V904.95C319.83 908.76 322.34 912.58 327.36 915.48C337.39 921.28 353.8 921.28 363.84 915.48C368.85 912.58 371.37 908.77 371.37 904.95V883.76C371.37 887.57 368.86 891.39 363.84 894.29C353.8 900.09 337.39 900.09 327.36 894.29C322.35 891.39 319.83 887.58 319.83 883.76Z" fill="#D66BB0"/>
<path d="M319.83 883.76C319.83 887.57 322.34 891.39 327.36 894.29C337.39 900.09 353.8 900.09 363.84 894.29C368.85 891.39 371.37 887.58 371.37 883.76C371.37 879.94 368.86 876.12 363.84 873.23C353.8 867.43 337.39 867.43 327.36 873.23C322.35 876.11 319.83 879.94 319.83 883.76Z" fill="#FFB0E1"/>
<path d="M67.8701 738.319V759.509C67.8701 763.319 70.3801 767.139 75.4001 770.039C85.4301 775.839 101.84 775.839 111.88 770.039C116.89 767.139 119.41 763.329 119.41 759.509V738.319C119.41 742.129 116.9 745.949 111.88 748.849C101.84 754.649 85.4301 754.649 75.4001 748.849C70.3901 745.949 67.8701 742.139 67.8701 738.319Z" fill="#D66BB0"/>
<path d="M67.8701 738.319C67.8701 742.129 70.3801 745.949 75.4001 748.849C85.4301 754.649 101.84 754.649 111.88 748.849C116.89 745.949 119.41 742.139 119.41 738.319C119.41 734.499 116.9 730.679 111.88 727.789C101.84 721.989 85.4301 721.989 75.4001 727.789C70.3901 730.669 67.8701 734.499 67.8701 738.319Z" fill="#FFB0E1"/>
<path d="M571.7 738.319V759.509C571.7 763.319 574.21 767.139 579.23 770.039C589.26 775.839 605.67 775.839 615.71 770.039C620.72 767.139 623.24 763.329 623.24 759.509V738.319C623.24 742.129 620.73 745.949 615.71 748.849C605.67 754.649 589.26 754.649 579.23 748.849C574.22 745.949 571.7 742.139 571.7 738.319Z" fill="#D66BB0"/>
<path d="M571.7 738.319C571.7 742.129 574.21 745.949 579.23 748.849C589.26 754.649 605.67 754.649 615.71 748.849C620.72 745.949 623.24 742.139 623.24 738.319C623.24 734.499 620.73 730.679 615.71 727.789C605.67 721.989 589.26 721.989 579.23 727.789C574.22 730.669 571.7 734.499 571.7 738.319Z" fill="#FFB0E1"/>
<path d="M660.25 814.23V759.51L345.55 941.22L345.559 995.935L345.56 1005.34L660.25 823.64V814.23Z" fill="#C95CA3"/>
<path d="M473.089 624.707C474.559 624.707 475.746 623.52 475.746 622.049V574.426C475.746 572.955 474.559 571.769 473.089 571.769C471.618 571.769 470.431 572.955 470.431 574.426V622.049C470.431 623.52 471.618 624.707 473.089 624.707Z" fill="#EDFF82"/>
<path d="M534.944 660.421C536.415 660.421 537.602 659.234 537.602 657.763V610.14C537.602 608.669 536.415 607.482 534.944 607.482C533.473 607.482 532.286 608.669 532.286 610.14V657.763C532.286 659.234 533.473 660.421 534.944 660.421Z" fill="#EDFF82"/>
<path d="M517.841 634.902C521.239 634.902 524.404 634.1 527.213 632.477C533.918 628.613 537.61 620.681 537.61 610.142C537.61 608.671 536.424 607.484 534.953 607.484C533.482 607.484 532.295 608.671 532.295 610.142C532.295 618.692 529.546 624.992 524.566 627.872C519.586 630.743 512.769 629.972 505.364 625.702C497.503 621.147 490.078 613.296 484.469 603.599C478.86 593.912 475.776 583.556 475.776 574.437C475.776 572.966 474.589 571.779 473.119 571.779C471.648 571.779 470.461 572.966 470.461 574.437C470.461 584.479 473.798 595.779 479.874 606.267C485.95 616.765 494.065 625.306 502.717 630.317C508.012 633.38 513.165 634.922 517.871 634.922L517.841 634.902Z" fill="#EDFF82"/>
<path d="M534.943 660.424C536.414 660.424 537.601 659.237 537.601 657.766V610.143C537.601 608.672 536.414 607.485 534.943 607.485C533.472 607.485 532.285 608.672 532.285 610.143V657.766C532.285 659.237 533.472 660.424 534.943 660.424Z" fill="#EDFF82"/>
<path d="M596.798 696.139C598.268 696.139 599.455 694.952 599.455 693.481V645.858C599.455 644.387 598.268 643.2 596.798 643.2C595.327 643.2 594.14 644.387 594.14 645.858V693.481C594.14 694.952 595.327 696.139 596.798 696.139Z" fill="#EDFF82"/>
<path d="M579.694 670.618C583.092 670.618 586.257 669.817 589.067 668.194C595.772 664.33 599.464 656.398 599.464 645.859C599.464 644.388 598.277 643.201 596.806 643.201C595.336 643.201 594.149 644.388 594.149 645.859C594.149 654.409 591.4 660.708 586.419 663.589C581.439 666.46 574.623 665.689 567.218 661.418C559.357 656.864 551.932 649.013 546.323 639.316C540.713 629.629 537.63 619.273 537.63 610.154C537.63 608.683 536.443 607.496 534.972 607.496C533.501 607.496 532.315 608.683 532.315 610.154C532.315 620.196 535.652 631.495 541.728 641.984C547.803 652.482 555.918 661.023 564.571 666.034C569.865 669.097 575.018 670.639 579.725 670.639L579.694 670.618Z" fill="#EDFF82"/>
<path d="M596.797 695.845C598.267 695.845 599.454 694.658 599.454 693.187V645.564C599.454 644.093 598.267 642.906 596.797 642.906C595.326 642.906 594.139 644.093 594.139 645.564V693.187C594.139 694.658 595.326 695.845 596.797 695.845Z" fill="#EDFF82"/>
<path d="M658.651 731.56C660.122 731.56 661.309 730.373 661.309 728.902V681.279C661.309 679.808 660.122 678.621 658.651 678.621C657.18 678.621 655.993 679.808 655.993 681.279V728.902C655.993 730.373 657.18 731.56 658.651 731.56Z" fill="#EDFF82"/>
<path d="M641.55 706.038C644.948 706.038 648.113 705.237 650.922 703.614C657.627 699.749 661.319 691.817 661.319 681.278C661.319 679.808 660.133 678.621 658.662 678.621C657.191 678.621 656.004 679.808 656.004 681.278C656.004 689.829 653.255 696.128 648.275 699.009C643.295 701.88 636.478 701.109 629.074 696.838C621.212 692.284 613.787 684.433 608.178 674.736C602.569 665.049 599.485 654.693 599.485 645.574C599.485 644.103 598.298 642.916 596.828 642.916C595.357 642.916 594.17 644.103 594.17 645.574C594.17 655.616 597.507 666.915 603.583 677.404C609.659 687.902 617.774 696.443 626.426 701.454C631.721 704.517 636.874 706.059 641.58 706.059L641.55 706.038Z" fill="#EDFF82"/>
<path d="M658.651 732.28C660.122 732.28 661.309 731.094 661.309 729.623V681.999C661.309 680.529 660.122 679.342 658.651 679.342C657.18 679.342 655.993 680.529 655.993 681.999V729.623C655.993 731.094 657.18 732.28 658.651 732.28Z" fill="#EDFF82"/>
<path d="M720.497 767.997C721.967 767.997 723.154 766.81 723.154 765.339V717.716C723.154 716.245 721.967 715.059 720.497 715.059C719.026 715.059 717.839 716.245 717.839 717.716V765.339C717.839 766.81 719.026 767.997 720.497 767.997Z" fill="#EDFF82"/>
<path d="M703.404 742.485C706.802 742.485 709.967 741.683 712.777 740.061C719.482 736.196 723.174 728.264 723.174 717.725C723.174 716.254 721.987 715.067 720.516 715.067C719.045 715.067 717.859 716.254 717.859 717.725C717.859 726.276 715.11 732.575 710.129 735.455C705.149 738.326 698.333 737.555 690.928 733.285C683.067 728.73 675.642 720.879 670.033 711.182C664.423 701.495 661.34 691.139 661.34 682.02C661.34 680.549 660.153 679.362 658.682 679.362C657.211 679.362 656.025 680.549 656.025 682.02C656.025 692.062 659.362 703.362 665.438 713.85C671.514 724.348 679.628 732.889 688.281 737.9C693.575 740.963 698.728 742.505 703.435 742.505L703.404 742.485Z" fill="#EDFF82"/>
<path d="M935.01 281.67L345.55 622.03L203.26 539.88L101.63 598.56L345.55 739.4L447.18 680.71L935.01 399.04V281.67Z" fill="#DBD5D5"/>
<path d="M101.63 560.449L345.55 701.289L902.01 379.989V338.829L345.55 660.139L137.27 539.879L145.75 534.979" stroke="#F2ECEC" stroke-width="4" stroke-miterlimit="10"/>
</svg>
