<svg width="936" height="1006" viewBox="0 0 936 1006" fill="none" xmlns="http://www.w3.org/2000/svg">
<path d="M345.55 577.8L30.8501 759.51L345.55 941.22L660.25 759.51L345.55 577.8Z" fill="#FF80BF"/>
<mask id="mask0_104_1950" style="mask-type:alpha" maskUnits="userSpaceOnUse" x="173" y="354" width="345" height="506">
<path d="M467.55 689.07C400.45 650.33 290.65 650.33 223.55 689.07C190 708.44 173.22 733.98 173.22 759.51C173.22 785.05 189.99 810.58 223.55 829.95C290.65 868.69 400.45 868.69 467.55 829.95C501.1 810.58 517.88 785.04 517.88 759.51C517.88 733.97 501.11 708.44 467.55 689.07Z" fill="#FF80BF"/>
<path d="M177.51 737.32H513.57L364.17 367.38C357.41 350.63 333.69 350.63 326.93 367.38L177.51 737.32Z" fill="#FF80BF"/>
</mask>
<g mask="url(#mask0_104_1950)">
<path d="M467.55 689.07C400.45 650.33 290.65 650.33 223.55 689.07C190 708.44 173.22 733.98 173.22 759.51C173.22 785.05 189.99 810.58 223.55 829.95C290.65 868.69 400.45 868.69 467.55 829.95C501.1 810.58 517.88 785.04 517.88 759.51C517.88 733.97 501.11 708.44 467.55 689.07Z" fill="#FF80BF"/>
<path d="M177.51 737.32H513.57L364.17 367.38C357.41 350.63 333.69 350.63 326.93 367.38L177.51 737.32Z" fill="#FF80BF"/>
<path d="M424.35 512.78C424.35 524.45 416.66 536.12 401.33 544.98C370.67 562.66 320.47 562.66 289.76 544.98C274.43 536.12 266.74 524.45 266.74 512.78L288.99 457.29C288.99 465.66 294.51 474.07 305.5 480.4C327.52 493.11 363.57 493.11 385.59 480.4C396.62 474.07 402.1 465.66 402.1 457.29L424.35 512.78Z" fill="#FFB0E1"/>
<path d="M521.42 760.01C521.42 786.05 504.26 812.09 470.05 831.87C401.62 871.33 289.59 871.33 221.05 831.87C186.83 812.09 169.67 786.05 169.67 760.01L199.13 694.09C199.13 715.75 213.42 737.53 241.86 753.92C298.88 786.82 392.19 786.82 449.21 753.92C477.78 737.53 491.94 715.75 491.94 694.09L521.4 760.01H521.42Z" fill="#FFB0E1"/>
</g>
<path d="M30.8501 759.51V823.64L345.54 1005.34L345.55 941.22L30.8501 759.51Z" fill="#D66BB0"/>
<path d="M660.25 759.51V823.64L345.56 1005.34L345.55 941.22L660.25 759.51Z" fill="#C95CA3"/>
<path d="M660.25 814.229V823.64L345.56 1005.34L345.55 995.94L660.25 814.229Z" fill="#B84690"/>
<path d="M319.83 883.76V904.95C319.83 908.76 322.34 912.58 327.36 915.48C337.39 921.28 353.8 921.28 363.84 915.48C368.85 912.58 371.37 908.77 371.37 904.95V883.76C371.37 887.57 368.86 891.39 363.84 894.29C353.8 900.09 337.39 900.09 327.36 894.29C322.35 891.39 319.83 887.58 319.83 883.76Z" fill="#D66BB0"/>
<path d="M319.83 883.76C319.83 887.57 322.34 891.39 327.36 894.29C337.39 900.09 353.8 900.09 363.84 894.29C368.85 891.39 371.37 887.58 371.37 883.76C371.37 879.94 368.86 876.12 363.84 873.23C353.8 867.43 337.39 867.43 327.36 873.23C322.35 876.11 319.83 879.94 319.83 883.76Z" fill="#FFB0E1"/>
<path d="M67.8701 738.319V759.509C67.8701 763.319 70.3801 767.139 75.4001 770.039C85.4301 775.839 101.84 775.839 111.88 770.039C116.89 767.139 119.41 763.329 119.41 759.509V738.319C119.41 742.129 116.9 745.949 111.88 748.849C101.84 754.649 85.4301 754.649 75.4001 748.849C70.3901 745.949 67.8701 742.139 67.8701 738.319Z" fill="#D66BB0"/>
<path d="M67.8701 738.319C67.8701 742.129 70.3801 745.949 75.4001 748.849C85.4301 754.649 101.84 754.649 111.88 748.849C116.89 745.949 119.41 742.139 119.41 738.319C119.41 734.499 116.9 730.679 111.88 727.789C101.84 721.989 85.4301 721.989 75.4001 727.789C70.3901 730.669 67.8701 734.499 67.8701 738.319Z" fill="#FFB0E1"/>
<path d="M571.7 738.319V759.509C571.7 763.319 574.21 767.139 579.23 770.039C589.26 775.839 605.67 775.839 615.71 770.039C620.72 767.139 623.24 763.329 623.24 759.509V738.319C623.24 742.129 620.73 745.949 615.71 748.849C605.67 754.649 589.26 754.649 579.23 748.849C574.22 745.949 571.7 742.139 571.7 738.319Z" fill="#D66BB0"/>
<path d="M571.7 738.319C571.7 742.129 574.21 745.949 579.23 748.849C589.26 754.649 605.67 754.649 615.71 748.849C620.72 745.949 623.24 742.139 623.24 738.319C623.24 734.499 620.73 730.679 615.71 727.789C605.67 721.989 589.26 721.989 579.23 727.789C574.22 730.669 571.7 734.499 571.7 738.319Z" fill="#FFB0E1"/>
<path d="M935.01 281.67L345.55 622.03L203.26 539.88L101.63 598.56L345.55 739.4L447.18 680.71L935.01 399.04V281.67Z" fill="#DBD5D5"/>
<path d="M101.63 560.449L345.55 701.289L902.01 379.989V338.829L345.55 660.139L137.27 539.879L145.75 534.979" stroke="#F2ECEC" stroke-width="4" stroke-miterlimit="10"/>
</svg>
