<svg width="244" height="336" viewBox="0 0 244 336" fill="none" xmlns="http://www.w3.org/2000/svg">
<path d="M174.13 280.64V328.62C174.13 330.33 173.01 332.03 170.76 333.33C166.28 335.92 158.94 335.92 154.45 333.33C152.21 332.03 151.08 330.33 151.08 328.62V280.64C151.08 282.35 152.2 284.05 154.45 285.35C158.94 287.94 166.28 287.94 170.76 285.35C173 284.05 174.13 282.35 174.13 280.64Z" fill="#5640CC"/>
<path d="M72.4698 222.27V270.25C72.4698 271.96 71.3499 273.659 69.0999 274.959C64.6199 277.549 57.2799 277.549 52.7899 274.959C50.5499 273.659 49.4199 271.96 49.4199 270.25V222.27C49.4199 223.98 50.5399 225.679 52.7899 226.979C57.2799 229.569 64.6199 229.569 69.0999 226.979C71.3399 225.679 72.4698 223.98 72.4698 222.27Z" fill="#5640CC"/>
<path d="M203.26 328.62V140.84L0 23.4805V211.26L203.26 328.62Z" fill="#6C50FF"/>
<path d="M243.91 305.15V117.37L203.26 140.84V328.62L243.91 305.15Z" fill="#5640CC"/>
<path d="M40.65 0L0 23.48L203.26 140.84L243.91 117.37L40.65 0Z" fill="#8B7DFF"/>
<path d="M10.1602 205.39V41.0801L193.1 146.71V311.02L10.1602 205.39Z" fill="#6C50FF"/>
<path d="M20.3202 199.52L10.1602 205.39V41.0801L20.3202 46.9501V199.52Z" fill="#5640CC"/>
<path d="M20.3202 199.52L193.1 299.28V311.02L10.1602 205.39L20.3202 199.52Z" fill="#5640CC"/>
</svg>
