<svg width="41" height="228" viewBox="0 0 41 228" fill="none" xmlns="http://www.w3.org/2000/svg">
<path d="M37.3199 54.8896H37.3099C35.4653 54.8896 33.97 56.3851 33.97 58.2297V224.05C33.97 225.894 35.4653 227.39 37.3099 227.39H37.3199C39.1646 227.39 40.6599 225.894 40.6599 224.05V58.2297C40.6599 56.3851 39.1646 54.8896 37.3199 54.8896Z" fill="#DBFF00"/>
<path d="M29.76 26.4601C23.94 16.3701 15.8299 7.48011 6.30994 0.740112C5.61994 0.250112 4.81 0 4 0C3.37 0 2.73991 0.150073 2.15991 0.450073C0.829912 1.14007 0 2.51 0 4V114.06C0 128.31 3.77001 142.37 10.89 154.71C16.71 164.79 24.82 173.69 34.34 180.43C35.03 180.92 35.84 181.17 36.65 181.17C37.28 181.17 37.91 181.02 38.49 180.72C39.82 180.03 40.65 178.66 40.65 177.17V67.1101C40.65 52.8601 36.88 38.8001 29.76 26.4601Z" fill="#DBFF00"/>
</svg>
