<svg width="1385" height="214" viewBox="0 0 1385 214" fill="none" xmlns="http://www.w3.org/2000/svg">
<g clip-path="url(#clip0_88_1047)">
<path d="M101.318 131.395C99.0033 138.88 96.7961 147.603 101.211 154.119C104.818 159.397 111.87 161.604 115.369 166.936C117.092 169.52 117.792 172.644 118.815 175.605C119.891 178.675 121.345 181.637 123.122 184.383C124.629 186.752 126.513 189.014 129.043 190.145C134.05 192.46 140.349 189.553 143.041 184.76C145.732 179.967 145.409 173.936 143.471 168.766C141.695 163.974 138.572 159.666 134.642 156.435C131.574 153.904 128.021 152.073 124.898 149.596C121.13 146.58 118.707 142.811 117.9 138.018" fill="#B4DF00"/>
<path d="M65.4101 112.655C61.0494 110.339 55.289 112.062 52.0589 115.778C48.8288 119.494 47.7521 124.717 48.1828 129.617C48.5596 134.518 50.2824 139.256 51.9512 143.888C54.0508 149.65 56.3119 155.681 60.9956 159.666C65.6793 163.651 73.5392 164.62 77.6307 160.043C79.9995 157.404 80.5917 153.473 79.9995 149.973C79.4073 146.472 77.7384 143.241 76.1233 140.01C74.2391 136.349 72.4087 132.687 70.5245 129.025C70.686 129.348 73.3777 129.617 73.8084 129.671C74.939 129.887 76.1233 130.21 77.3077 130.317C79.2458 130.479 81.0224 131.179 82.9604 131.502C87.3211 132.148 91.8433 131.61 95.8809 129.779" fill="#B4DF00"/>
<path d="M43.9836 82.7676C40.1075 86.7525 39.5691 92.4067 39.3538 97.684C32.8397 93.9684 25.4642 91.1143 17.9811 91.6528C10.498 92.1913 2.96105 96.7147 0.592289 103.823C-0.430583 106.892 -0.269077 110.662 2.09968 112.924C4.14542 114.862 7.21404 115.185 10.0135 115.239C21.6419 115.67 33.2704 114.754 44.6835 112.654C46.137 112.385 47.6444 112.062 48.8826 111.2C52.6511 108.562 52.2743 102.746 52.3819 98.761" fill="#B4DF00"/>
<path d="M197.953 127.463C202.636 128.055 205.92 132.309 208.343 136.348C210.765 140.387 213.403 144.856 217.872 146.418C222.771 148.141 228.531 145.395 231.008 140.871C233.484 136.294 232.892 130.478 230.254 126.009C227.616 121.539 223.201 118.362 218.41 116.37C213.619 114.377 208.451 113.462 203.336 112.762" fill="#B3DD06"/>
<path d="M210.227 106.3C210.227 102.207 209.743 98.0608 208.666 93.8605C206.19 84.5444 201.721 75.5514 195.584 68.1201C191.492 63.1659 186.54 58.6425 180.618 56.0577C182.502 56.3808 178.733 55.25 180.618 56.0577C175.019 43.3491 159.03 31.0175 146.809 24.2324C131.681 15.8318 114.023 12.8162 96.7422 13.247C83.4448 13.5701 69.9321 16.8549 58.0884 23.2631C45.437 30.1559 33.1087 39.6335 34.2931 55.4115C35.316 69.0894 38.7615 82.4981 46.7829 93.7527C58.0345 109.531 74.7235 120.516 91.897 128.917C108.963 137.264 127.375 144.21 146.163 147.441C161.075 150.026 177.172 150.295 191.223 143.995C194.938 142.325 198.599 140.171 201.183 136.94C203.821 133.656 205.436 129.617 206.782 125.632C208.935 119.224 210.227 112.762 210.281 106.3H210.227Z" fill="#DBFF00"/>
<path d="M149.07 145.395C160.43 160.473 173.512 174.474 189.016 185.244C204.521 196.014 222.609 203.499 241.452 204.899C246.405 205.276 252.004 204.953 255.341 201.291C258.356 198.006 258.464 192.675 256.31 188.744C254.157 184.813 250.173 182.174 245.974 180.721C241.775 179.267 237.253 178.89 232.784 178.513C236.284 177.866 238.222 173.612 237.307 170.166C236.391 166.72 233.377 164.242 230.146 162.788C226.916 161.335 223.309 160.85 219.864 159.988C207.912 156.973 197.145 149.434 190.254 139.202" fill="#DBFF00"/>
<path d="M207.159 96.7148C239.406 101.992 273.645 132.902 286.35 163.058C288.558 168.282 290.334 174.043 289.096 179.59C287.858 185.137 282.582 190.091 276.983 189.121C273.591 188.529 270.9 186.052 268.639 183.521C262.663 176.844 257.979 168.982 255.072 160.473C256.041 164.35 252.003 168.12 248.02 168.012C244.036 167.905 240.59 164.997 238.491 161.604C236.391 158.212 235.315 154.334 233.753 150.673C228.747 138.987 215.342 129.51 203.175 125.848" fill="#DBFF00"/>
<path d="M179.918 54.6038C173.511 53.2037 166.943 53.5806 160.537 55.5192C157.791 51.3728 154.669 47.5494 151.17 43.9953C141.264 33.9792 128.666 26.3325 115.692 21.486C99.1647 15.2933 79.6763 16.6934 62.3413 21.1091C73.1084 16.101 85.0598 13.5162 96.7421 13.247C114.023 12.8162 131.681 15.8318 146.809 24.2324C154.077 28.2711 162.744 34.3023 169.689 41.1951C173.996 45.3954 177.603 49.9727 179.918 54.6038Z" fill="#B4DF00"/>
<path d="M180.618 56.0582C180.618 56.0582 180.564 55.8966 180.51 55.8428C180.995 56.0043 181.641 56.2736 180.618 56.0582Z" fill="#B4DF00"/>
<path d="M213.188 102.962C213.457 86.3759 205.867 67.8515 191.223 59.0739C179.003 51.7503 165.382 52.2888 152.893 58.5354C142.825 63.5434 135.235 70.4363 129.528 80.1293C121.56 93.6456 117.361 110.824 123.068 125.956C126.459 134.949 133.512 142.918 142.61 146.311C153.646 150.457 167.105 150.027 178.518 147.873C187.24 146.203 194.13 143.511 200.052 136.779C205.544 130.533 209.527 123.048 211.573 114.97C212.596 111.039 213.081 107 213.134 102.962H213.188Z" fill="#DBFF00"/>
<path d="M179.918 54.6037C173.511 53.2036 166.943 53.5806 160.537 55.5192C157.953 56.2731 155.423 57.2962 152.892 58.5348C150.685 59.6656 148.586 60.8503 146.647 62.0889C146.378 62.2504 146.109 62.4658 145.84 62.6274C141.425 65.4814 137.711 68.874 134.535 72.9666C133.242 74.6359 132.004 76.4668 130.874 78.3516C122.798 92.0833 120.591 106.515 124.952 117.985C126.029 120.839 125.167 123.963 123.068 125.847C122.422 126.44 121.668 126.924 120.806 127.247C119.837 127.624 118.815 127.786 117.846 127.678C115.1 127.517 112.57 125.793 111.547 123.047C105.625 107.484 108.209 88.5292 118.545 71.028C124.844 60.3118 133.512 52.342 144.925 46.6339C147.024 45.6108 149.124 44.6953 151.223 43.9414C157.415 41.7336 163.659 40.8181 169.743 41.1412C174.05 45.3415 177.657 49.9188 179.972 54.5499L179.918 54.6037Z" fill="#B4DF00"/>
<path d="M150.578 134.517C159.319 134.517 166.405 127.429 166.405 118.685C166.405 109.942 159.319 102.854 150.578 102.854C141.836 102.854 134.75 109.942 134.75 118.685C134.75 127.429 141.836 134.517 150.578 134.517Z" fill="white"/>
</g>
<path d="M455.017 133.279C454.209 141.088 453.832 150.081 459.431 155.573C464.007 160.043 471.329 160.797 475.851 165.32C478.058 167.528 479.35 170.436 480.911 173.128C482.58 175.929 484.572 178.513 486.833 180.883C488.825 182.875 491.086 184.706 493.832 185.352C499.162 186.591 504.814 182.552 506.483 177.329C508.152 172.105 506.645 166.236 503.738 161.604C501.046 157.243 497.17 153.635 492.594 151.265C489.094 149.434 485.218 148.303 481.665 146.473C477.358 144.265 474.29 141.034 472.513 136.51" fill="#B4DF00"/>
<path d="M391.599 86.9141C388.153 90.3066 385.677 94.2377 384.331 98.438C374.425 98.7611 364.896 101.884 358.274 107.108C354.452 110.07 351.545 113.893 351.384 118.039C351.276 120.409 352.353 123.047 355.098 124.34C356.929 125.201 359.19 125.363 361.289 125.094C363.389 124.824 365.327 124.178 367.211 123.478C374.21 120.893 380.885 117.878 387.561 114.916C391.868 112.977 396.228 110.985 399.297 108.077C403.065 104.415 404.304 99.7304 405.488 95.207" fill="#B4DF00"/>
<path d="M415.179 109.801C405.973 107.916 398.113 112.816 393.483 120.463C388.745 128.217 385.138 136.295 384.331 145.449C384.116 148.142 384.062 150.888 384.977 153.419C385.892 155.95 387.776 158.266 390.36 159.02C392.998 159.774 395.959 158.804 398.113 157.081C400.266 155.358 401.827 152.988 403.227 150.619C407.372 143.78 410.872 136.564 413.725 129.133C417.924 130.21 422.177 131.341 426.538 131.556C430.898 131.772 435.421 131.071 439.135 128.81C443.334 126.225 446.242 121.594 446.78 116.64" fill="#B4DF00"/>
<path d="M547.613 127.786C552.297 127.032 556.604 130.209 560.103 133.386C563.602 136.564 567.371 140.118 572.108 140.387C577.277 140.656 582.068 136.402 583.145 131.34C584.221 126.278 582.014 120.839 578.246 117.285C574.477 113.731 569.309 111.9 564.195 111.308C559.08 110.716 553.858 111.308 548.744 112.062" fill="#B3DD06"/>
<path d="M556.227 106.3C556.227 102.207 555.743 98.0608 554.666 93.8605C552.19 84.5444 547.721 75.5514 541.584 68.1201C537.492 63.1659 532.54 58.6425 526.618 56.0577C528.502 56.3808 524.733 55.25 526.618 56.0577C521.019 43.3491 505.03 31.0175 492.809 24.2324C477.681 15.8318 460.023 12.8162 442.742 13.247C429.445 13.5701 415.932 16.8549 404.088 23.2631C391.437 30.1559 379.109 39.6335 380.293 55.4115C381.316 69.0894 384.761 82.4981 392.783 93.7527C404.035 109.531 420.723 120.516 437.897 128.917C454.963 137.264 473.375 144.21 492.163 147.441C507.075 150.026 523.172 150.295 537.223 143.995C540.938 142.325 544.599 140.171 547.183 136.94C549.821 133.656 551.436 129.617 552.782 125.632C554.935 119.224 556.227 112.762 556.281 106.3H556.227Z" fill="#DBFF00"/>
<path d="M495.124 145.395C506.483 160.473 519.565 174.474 535.07 185.244C550.574 196.014 568.663 203.499 587.506 204.899C592.458 205.276 598.057 204.953 601.395 201.291C604.41 198.006 604.518 192.675 602.364 188.744C600.211 184.813 596.227 182.174 592.028 180.721C587.829 179.267 583.306 178.89 578.838 178.513C582.337 177.866 584.275 173.612 583.36 170.166C582.445 166.72 579.43 164.242 576.2 162.788C572.97 161.335 569.363 160.85 565.918 159.988C553.966 156.973 543.199 149.434 536.308 139.202" fill="#DBFF00"/>
<path d="M553.159 96.7148C585.406 101.992 619.645 132.902 632.35 163.058C634.558 168.282 636.334 174.043 635.096 179.59C633.858 185.137 628.582 190.091 622.983 189.121C619.591 188.529 616.9 186.052 614.639 183.521C608.663 176.844 603.979 168.982 601.072 160.473C602.041 164.35 598.003 168.12 594.02 168.012C590.036 167.905 586.59 164.997 584.491 161.604C582.391 158.212 581.315 154.334 579.753 150.673C574.747 138.987 561.342 129.51 549.175 125.848" fill="#DBFF00"/>
<path d="M525.918 54.6038C519.511 53.2037 512.943 53.5806 506.537 55.5192C503.791 51.3728 500.669 47.5494 497.17 43.9953C487.264 33.9792 474.666 26.3325 461.692 21.486C445.165 15.2933 425.676 16.6934 408.341 21.1091C419.108 16.101 431.06 13.5162 442.742 13.247C460.023 12.8162 477.681 15.8318 492.809 24.2324C500.077 28.2711 508.744 34.3023 515.689 41.1951C519.996 45.3954 523.603 49.9727 525.918 54.6038Z" fill="#B4DF00"/>
<path d="M526.618 56.0582C526.618 56.0582 526.564 55.8966 526.51 55.8428C526.995 56.0043 527.641 56.2736 526.618 56.0582Z" fill="#B4DF00"/>
<path d="M559.188 102.962C559.457 86.3759 551.867 67.8515 537.223 59.0739C525.003 51.7503 511.382 52.2888 498.893 58.5354C488.825 63.5434 481.235 70.4363 475.528 80.1293C467.56 93.6456 463.361 110.824 469.068 125.956C472.459 134.949 479.512 142.918 488.61 146.311C499.646 150.457 513.105 150.027 524.518 147.873C533.24 146.203 540.13 143.511 546.052 136.779C551.544 130.533 555.527 123.048 557.573 114.97C558.596 111.039 559.081 107 559.134 102.962H559.188Z" fill="#DBFF00"/>
<path d="M525.918 54.6037C519.511 53.2036 512.943 53.5806 506.537 55.5192C503.953 56.2731 501.423 57.2962 498.892 58.5348C496.685 59.6656 494.586 60.8503 492.647 62.0889C492.378 62.2504 492.109 62.4658 491.84 62.6274C487.425 65.4814 483.711 68.874 480.535 72.9666C479.242 74.6359 478.004 76.4668 476.874 78.3516C468.798 92.0833 466.591 106.515 470.952 117.985C472.029 120.839 471.167 123.963 469.068 125.847C468.422 126.44 467.668 126.924 466.806 127.247C465.837 127.624 464.815 127.786 463.846 127.678C461.1 127.517 458.57 125.793 457.547 123.047C451.625 107.484 454.209 88.5292 464.545 71.028C470.844 60.3118 479.512 52.342 490.925 46.6339C493.024 45.6108 495.124 44.6953 497.223 43.9414C503.415 41.7336 509.659 40.8181 515.743 41.1412C520.05 45.3415 523.657 49.9188 525.972 54.5499L525.918 54.6037Z" fill="#B4DF00"/>
<path d="M496.578 134.517C505.319 134.517 512.405 127.429 512.405 118.685C512.405 109.942 505.319 102.854 496.578 102.854C487.836 102.854 480.75 109.942 480.75 118.685C480.75 127.429 487.836 134.517 496.578 134.517Z" fill="white"/>
<g clip-path="url(#clip1_88_1047)">
<path d="M937.497 140.549C947.917 140.979 958.391 141.464 968.811 140.872C973.401 140.602 978.152 140.118 982.039 137.748C985.927 135.379 988.788 130.64 987.546 126.225C986.089 121.055 979.934 118.632 974.588 119.116C970.107 119.547 965.896 121.432 961.739 123.209C957.581 124.986 953.262 126.763 948.781 126.817C944.3 126.871 939.44 124.932 937.281 120.947C933.933 123.37 923.729 128.325 923.567 132.902C923.351 139.364 933.123 140.333 937.497 140.495V140.549Z" fill="#B4DF00"/>
<path d="M846.09 191.867C843.606 196.014 841.501 200.753 842.203 205.545C842.905 210.338 847.44 214.808 852.191 213.838C854.135 213.407 855.808 212.223 857.32 210.93C870.872 199.245 874.921 177.974 866.661 162.142C862.071 153.419 844.254 148.357 848.25 161.873C849.491 166.073 853.325 168.712 853.757 173.505C854.351 180.29 849.437 186.375 846.144 191.867H846.09Z" fill="#B4DF00"/>
<path d="M887.717 157.242L886.583 154.388C882.912 157.565 883.884 163.865 887.285 167.312C890.686 170.758 895.708 171.943 900.513 172.751C907.64 173.935 914.928 174.528 922.163 174.528C927.076 174.528 933.015 173.558 934.797 168.981C936.147 165.535 934.149 161.442 931.018 159.396C927.886 157.35 923.999 156.919 920.274 156.973C913.525 157.027 906.074 158.211 900.729 154.119C897.003 151.211 895.384 145.933 896.841 141.464" fill="#B4DF00"/>
<path d="M888.689 52.396C902.187 37.8565 917.358 24.6632 934.689 15.0241C952.02 5.38492 971.781 -0.430878 991.65 -7.78019e-05C996.887 0.107622 1002.72 1.02307 1005.85 5.22337C1008.66 8.99288 1008.23 14.5394 1005.58 18.4166C1002.93 22.2938 998.507 24.6632 993.917 25.7402C989.328 26.8172 984.577 26.7634 979.88 26.6557C983.443 27.6788 985.063 32.3638 983.767 35.8102C982.471 39.2566 979.016 41.626 975.452 42.7568C971.889 43.8877 968.11 44.0492 964.438 44.5877C951.588 46.4725 939.548 53.2576 931.234 63.166" fill="#B4DF00"/>
<path d="M944.354 109.315C978.692 107.215 1017.73 78.5132 1034.25 48.411C1037.11 43.1876 1039.59 37.3718 1038.84 31.4483C1038.08 25.5248 1033.11 19.7628 1027.12 20.1936C1023.56 20.4629 1020.43 22.7246 1017.78 25.1478C1010.82 31.4483 1005.09 39.2027 1001.21 47.7648C1002.61 43.8338 998.776 39.4719 994.619 39.1488C990.462 38.8257 986.521 41.5182 983.983 44.8031C981.445 48.0879 979.88 52.0729 977.828 55.7347C971.349 67.4201 956.34 75.8746 943.22 78.4594" fill="#DBFF00"/>
<path d="M969.622 86.3218C965.248 101.884 954.126 114.701 942.032 124.932C926.753 137.856 908.72 148.034 890.471 156.165C872.114 164.351 851.975 170.382 831.675 168.874C817.205 167.797 804.085 161.55 792.315 153.15C789.67 151.265 787.564 149.165 785.944 146.849C792.423 124.986 804.085 104.631 819.851 88.0989C836.48 70.6515 858.562 54.4965 881.562 47.119C883.614 48.2499 886.799 50.9962 888.689 52.3425C901.431 61.5508 908.234 77.7597 910.502 93.2685C911.041 97.0918 914.605 99.7305 918.438 99.192C919.464 99.0304 920.382 98.7073 921.192 98.1688C923.459 96.7149 924.809 94.0762 924.377 91.2222C921.57 71.7285 910.717 53.958 894.736 42.4341C894.304 42.111 893.818 41.7879 893.386 41.5186C894.358 41.8417 895.33 42.2187 896.302 42.6495L894.412 41.7879C907.856 36.0798 923.729 33.7642 937.281 39.0954C950.833 44.4265 963.089 55.3042 969.028 68.6052C969.028 68.659 969.028 68.7129 969.082 68.7667C969.676 70.3284 970.216 71.89 970.54 73.5055C971.403 77.7597 970.701 82.1754 969.514 86.268L969.622 86.3218Z" fill="#DBFF00"/>
<path d="M921.192 98.2761C920.382 98.7607 919.464 99.1377 918.438 99.2992C914.605 99.8377 911.042 97.1991 910.502 93.3757C909.206 84.3289 905.642 75.659 900.459 68.1739C895.816 61.5503 889.229 52.0727 880.483 51.0496C874.274 50.2957 869.9 54.119 864.609 56.5961C858.994 59.1809 853.541 62.0888 848.304 65.3198C837.884 71.6741 828.273 79.3208 819.851 88.1523C804.085 104.684 792.423 125.04 785.944 146.903C779.088 137.317 780.005 124.393 782.381 112.439C785.135 98.5991 791.667 85.5136 800.36 74.582C810.834 61.3888 824.926 50.2957 840.583 43.7798C850.842 39.5257 862.018 37.2101 873.14 37.6409C878.917 37.8563 884.802 38.5564 890.201 40.6027C895.6 42.649 899.973 46.4185 904.077 50.6188C912.661 59.3425 918.978 70.2202 922.326 82.0133C923.189 85.0828 923.891 88.2061 924.323 91.3832C924.755 94.2373 923.405 96.876 921.138 98.3299L921.192 98.2761Z" fill="#B4DF00"/>
<path d="M960.173 86.9677C959.579 94.2375 953.694 102.692 947.053 105.815C940.413 108.939 935.553 105.546 936.147 98.2762C936.741 91.0065 942.626 82.552 949.267 79.4287C955.908 76.3054 960.767 79.698 960.173 86.9677Z" fill="white"/>
<path d="M780.977 119.278C772.231 117.07 762.782 117.608 754.306 120.786C751.012 122.024 747.773 123.801 745.829 126.655C743.885 129.509 743.615 133.817 746.045 136.348C748.42 138.771 752.254 138.825 755.655 138.718C764.618 138.394 773.634 138.018 782.597 137.694" fill="#B4DF00"/>
</g>
<g clip-path="url(#clip2_88_1047)">
<path d="M1285.24 134.678C1295.58 133.278 1305.92 131.932 1316.04 129.509C1320.51 128.432 1325.03 127.139 1328.47 124.07C1331.92 121.001 1333.86 115.885 1331.86 111.738C1329.55 106.892 1323.04 105.599 1317.87 107C1313.51 108.184 1309.74 110.823 1305.97 113.3C1302.2 115.777 1298.27 118.254 1293.86 119.116C1289.44 119.977 1284.33 118.9 1281.58 115.346C1278.73 118.362 1269.58 124.985 1270.22 129.509C1271.14 135.863 1280.88 135.109 1285.24 134.517V134.678Z" fill="#B4DF00"/>
<path d="M1209.23 193.267C1209.28 198.114 1209.98 203.23 1213.05 206.945C1216.12 210.661 1222.36 212.115 1225.86 208.776C1227.32 207.43 1228.07 205.491 1228.66 203.607C1234.05 186.59 1226.4 166.342 1211.06 157.188C1202.61 152.126 1184.84 157.188 1195.28 166.612C1198.57 169.573 1203.2 169.789 1206.05 173.666C1210.09 179.159 1209.12 186.859 1209.23 193.267Z" fill="#B4DF00"/>
<path d="M1229.36 154.172C1226.83 160.473 1229.69 167.958 1234.53 172.697C1239.38 177.436 1245.94 179.967 1252.4 182.175C1256.55 183.575 1260.86 184.921 1265.16 184.167C1269.47 183.413 1273.61 180.021 1273.67 175.659C1273.67 171.889 1270.71 168.658 1267.32 167.043C1263.92 165.427 1260.1 164.996 1256.44 164.081C1252.78 163.165 1249.01 161.711 1246.8 158.642C1244.17 154.98 1244.38 150.08 1244.71 145.61" fill="#B4DF00"/>
<path d="M1235.12 52.396C1248.58 37.8565 1263.71 24.6632 1280.99 15.0241C1298.27 5.38492 1317.97 -0.430878 1337.79 -7.78019e-05C1343.01 0.107622 1348.82 1.02307 1351.94 5.22337C1354.74 8.99288 1354.31 14.5394 1351.68 18.4166C1349.04 22.2938 1344.62 24.6632 1340.05 25.7402C1335.47 26.8172 1330.73 26.7634 1326.05 26.6557C1329.6 27.6788 1331.22 32.3638 1329.93 35.8102C1328.63 39.2566 1325.19 41.626 1321.64 42.7568C1318.08 43.8877 1314.31 44.0492 1310.65 44.5877C1297.84 46.4725 1285.84 53.2576 1277.54 63.166" fill="#B4DF00"/>
<path d="M1290.63 109.315C1324.87 107.215 1363.79 78.5132 1380.26 48.411C1383.12 43.1876 1385.59 37.3718 1384.84 31.4483C1384.08 25.5248 1379.13 19.7628 1373.16 20.1936C1369.6 20.4629 1366.48 22.7246 1363.84 25.1478C1356.9 31.4483 1351.19 39.2027 1347.31 47.7648C1348.71 43.8338 1344.89 39.4719 1340.75 39.1488C1336.6 38.8257 1332.67 41.5182 1330.14 44.8031C1327.61 48.0879 1326.05 52.0729 1324 55.7347C1317.54 67.4201 1302.58 75.8746 1289.5 78.4594" fill="#DBFF00"/>
<path d="M1315.82 86.3218C1311.46 101.884 1300.37 114.701 1288.31 124.932C1273.08 137.856 1255.1 148.034 1236.9 156.165C1218.59 164.351 1198.51 170.382 1178.27 168.874C1163.84 167.797 1150.76 161.55 1139.03 153.15C1136.39 151.265 1134.29 149.165 1132.67 146.849C1139.13 124.986 1150.76 104.631 1166.48 88.0989C1183.06 70.6515 1205.08 54.4965 1228.02 47.119C1230.06 48.2499 1233.24 50.9962 1235.12 52.3425C1247.83 61.5508 1254.61 77.7597 1256.87 93.2685C1257.41 97.0918 1260.96 99.7305 1264.79 99.192C1265.81 99.0304 1266.72 98.7073 1267.53 98.1688C1269.79 96.7149 1271.14 94.0762 1270.71 91.2222C1267.91 71.7285 1257.09 53.958 1241.15 42.4341C1240.72 42.111 1240.24 41.7879 1239.81 41.5186C1240.77 41.8417 1241.74 42.2187 1242.71 42.6495L1240.83 41.7879C1254.23 36.0798 1270.06 33.7642 1283.57 39.0954C1297.09 44.4265 1309.31 55.3042 1315.23 68.6052C1315.23 68.659 1315.23 68.7129 1315.28 68.7667C1315.88 70.3284 1316.41 71.89 1316.74 73.5055C1317.6 77.7597 1316.9 82.1754 1315.71 86.268L1315.82 86.3218Z" fill="#DBFF00"/>
<path d="M1267.53 98.2761C1266.72 98.7607 1265.81 99.1377 1264.79 99.2992C1260.96 99.8377 1257.41 97.1991 1256.87 93.3757C1255.58 84.3289 1252.03 75.659 1246.86 68.1739C1242.23 61.5503 1235.66 52.0727 1226.94 51.0496C1220.75 50.2957 1216.39 54.119 1211.11 56.5961C1205.51 59.1809 1200.08 62.0888 1194.85 65.3198C1184.46 71.6741 1174.88 79.3208 1166.48 88.1523C1150.76 104.684 1139.13 125.04 1132.67 146.903C1125.84 137.317 1126.75 124.393 1129.12 112.439C1131.87 98.5991 1138.38 85.5136 1147.05 74.582C1157.49 61.3888 1171.54 50.2957 1187.16 43.7798C1197.38 39.5257 1208.53 37.2101 1219.62 37.6409C1225.38 37.8563 1231.25 38.5564 1236.63 40.6027C1242.01 42.649 1246.37 46.4185 1250.47 50.6188C1259.03 59.3425 1265.32 70.2202 1268.66 82.0133C1269.52 85.0828 1270.22 88.2061 1270.65 91.3832C1271.08 94.2373 1269.74 96.876 1267.48 98.3299L1267.53 98.2761Z" fill="#B4DF00"/>
<path d="M1306.4 86.9677C1305.81 94.2375 1299.94 102.692 1293.32 105.815C1286.7 108.939 1281.85 105.546 1282.44 98.2762C1283.04 91.0065 1288.9 82.552 1295.53 79.4287C1302.15 76.3054 1306.99 79.698 1306.4 86.9677Z" fill="white"/>
<path d="M1140.75 112.87C1134.5 107.485 1126.37 103.769 1117.06 102.154C1113.19 101.507 1108.72 101.184 1104.3 102.369C1099.46 103.715 1094.61 107.377 1094.56 111.254C1094.5 115.293 1099.19 117.555 1103.49 119.332C1114.37 123.855 1124.65 128.109 1134.4 132.148" fill="#B4DF00"/>
</g>
<defs>
<clipPath id="clip0_88_1047">
<rect width="346" height="214" fill="white"/>
</clipPath>
<clipPath id="clip1_88_1047">
<rect width="347" height="214" fill="white" transform="translate(692)"/>
</clipPath>
<clipPath id="clip2_88_1047">
<rect width="346" height="214" fill="white" transform="translate(1039)"/>
</clipPath>
</defs>
</svg>
