<svg width="1025" height="212" viewBox="0 0 1025 212" fill="none" xmlns="http://www.w3.org/2000/svg">
<g clip-path="url(#clip0_88_1048)">
<path d="M32.4695 106.225C30.6866 98.8177 21.5023 94.792 14.1548 97.1001C6.86133 99.4082 1.89097 106.601 0.486301 114.115C-0.918366 121.63 0.756429 129.359 3.29563 136.552C4.43017 139.826 5.83484 143.154 8.32002 145.569C10.8052 147.985 14.641 149.327 17.8826 148.039C27.7693 143.959 22.3667 132.58 27.6612 125.763C30.2004 122.489 34.1443 120.395 38.3043 120.181C41.3837 120.02 44.7333 120.986 46.5162 123.509" fill="#DE6EB6"/>
<path d="M79.796 137.304C68.4506 148.79 61.1031 166.503 61.0491 182.177C61.0491 186.632 61.8054 191.302 64.8309 192.966C68.0184 194.737 72.5025 192.375 76.1222 189.423C86.7653 180.835 95.0312 166.557 97.5704 152.333C96.652 153.192 95.7335 154.051 94.8151 154.963" fill="#DE6EB6"/>
<path d="M110.05 149.219L109.726 148.468C111.941 153.513 111.347 159.31 109.78 164.571C108.213 169.831 105.836 174.823 104.432 180.137C102.703 186.685 102.541 193.663 103.999 200.319C104.594 202.949 105.62 205.794 108.051 206.921C109.834 207.78 112.049 207.404 113.778 206.491C115.507 205.579 116.911 204.076 118.208 202.573C123.881 196.078 128.473 188.456 130.526 180.083C132.579 171.709 131.877 162.531 127.555 155.016" fill="#DE6EB6"/>
<path d="M199.301 149.435C206.864 151.206 213.131 157.54 214.806 165.108C216.481 172.623 213.401 180.996 207.296 185.773C205.135 187.437 202.272 188.672 199.733 187.652C197.95 186.9 196.761 185.075 196.275 183.197C195.789 181.318 195.951 179.332 196.059 177.4" fill="#DE6EB6"/>
<path d="M195.897 172.622C187.145 181.371 173.693 184.592 161.483 182.337C149.705 180.19 139.116 173.32 131.12 164.409L130.904 164.141C105.404 164.141 79.904 156.358 58.78 142.027C42.1401 130.755 28.1475 115.35 18.693 97.6903C16.9101 94.3624 14.587 91.2491 13.3444 87.6529C12.0478 83.9492 12.6421 79.7625 14.1548 76.1662C15.7216 72.5163 18.1527 69.2957 20.6919 66.2362C33.7121 50.4018 49.7037 36.4997 69.9633 30.9174C71.5301 30.488 73.0968 30.1123 74.7176 29.7366C82.4432 28.1263 90.331 27.5895 98.2187 27.9653C131.553 34.138 162.347 62.7472 169.425 96.1873C170.019 98.9785 170.397 101.877 170.559 104.722C155.594 107.996 142.088 117.926 134.956 131.399C133.173 134.727 134.47 138.806 137.82 140.577C138.846 141.114 139.927 141.382 141.007 141.382C143.492 141.382 145.869 140.041 147.058 137.732C153.109 126.3 165.427 118.248 178.393 117.282C181.256 117.067 185.092 117.175 187.415 118.946C188.063 119.483 188.82 119.858 189.576 120.073C189.576 120.341 189.576 120.664 189.576 120.932C197.356 125.709 203.083 133.76 204.865 142.671C206.972 153.299 203.461 164.839 195.789 172.514L195.897 172.622Z" fill="#FF7FD1"/>
<path d="M131.174 164.409C131.174 164.409 131.012 164.248 130.958 164.141Z" fill="#FF7FD1"/>
<path d="M165.481 167.469C173.358 167.469 179.743 161.124 179.743 153.298C179.743 145.472 173.358 139.128 165.481 139.128C157.603 139.128 151.218 145.472 151.218 153.298C151.218 161.124 157.603 167.469 165.481 167.469Z" fill="white"/>
<path d="M196.869 75.1465C200.975 95.3286 196.113 117.121 183.849 133.761Z" fill="#DE6EB6"/>
<path d="M183.849 139.289C182.715 139.289 181.526 138.913 180.554 138.216C178.068 136.391 177.528 132.902 179.365 130.433C190.656 115.135 195.195 94.8455 191.413 76.22C190.819 73.2141 192.763 70.262 195.789 69.6715C198.868 69.0811 201.786 71.0134 202.38 74.0193C206.756 95.6507 201.516 119.214 188.387 137.035C187.307 138.538 185.578 139.289 183.849 139.289Z" fill="#DE6EB6"/>
<path d="M201.57 134.727C218.048 128.233 231.986 115.619 240.09 99.9453C239.874 100.267 239.604 100.589 239.388 100.858" fill="#DE6EB6"/>
<path d="M201.57 140.309C199.355 140.309 197.248 138.967 196.329 136.767C195.195 133.922 196.599 130.647 199.463 129.52C213.834 123.831 226.259 113.042 233.823 99.6228C233.985 98.8713 234.363 98.1199 234.85 97.4758L235.552 96.5633C237.335 94.2552 240.576 93.7185 243.007 95.2751C245.439 96.8317 246.303 99.9449 245.006 102.521C236.362 119.322 221.235 132.956 203.569 139.933C202.866 140.202 202.164 140.309 201.516 140.309H201.57Z" fill="#DE6EB6"/>
<path d="M189.63 120.18C188.874 119.965 188.117 119.59 187.469 119.053C185.2 117.282 181.31 117.174 178.447 117.389C165.481 118.355 153.163 126.407 147.112 137.84C145.869 140.148 143.492 141.489 141.061 141.489C139.981 141.489 138.9 141.221 137.874 140.684C134.524 138.967 133.227 134.834 135.01 131.506C142.142 118.033 155.702 108.103 170.613 104.829C170.451 101.93 170.073 99.0855 169.479 96.2944C162.347 62.8543 131.553 34.245 98.2727 28.0723C101.946 28.2333 105.674 28.6627 109.294 29.2531C124.637 31.7759 139.44 37.895 151.866 47.2346C170.073 60.9756 182.877 82.0702 187.631 104.507C188.712 109.66 189.414 114.92 189.63 120.18Z" fill="#DE6EB6"/>
<path d="M197.032 117.872C195.249 120.18 192.277 120.985 189.63 120.234C189.414 114.974 188.766 109.767 187.631 104.561C190.765 105.312 193.466 106.547 195.789 108.372C198.76 110.68 199.355 114.92 197.032 117.926V117.872Z" fill="#DE6EB6"/>
</g>
<path d="M299.729 111.055C297.954 103.648 287.406 92.0541 280.141 94.3622C272.876 96.6702 269.808 108.586 268.463 116.101C267.063 123.616 268.194 134.136 270.723 141.329C271.853 144.603 273.252 147.931 275.728 150.346C278.203 152.762 282.024 154.103 285.253 152.815C295.101 148.736 293.81 137.142 299.084 130.325C301.613 127.051 301.452 125.172 305.542 124.957C308.609 124.796 311.946 125.763 313.721 128.285" fill="#DE6EB6"/>
<path d="M338.046 131.506C324.754 138.001 312.43 151.366 307.425 166.825C305.811 171.709 305.111 177.399 308.394 180.029C311.999 182.927 318.726 180.941 324.269 178.15C339.553 170.528 351.016 157.539 354.783 145.569C353.76 146.106 352.738 146.696 351.661 147.233" fill="#DE6EB6"/>
<path d="M366.299 155.284L365.707 154.694C369.636 158.559 371.25 164.141 371.842 169.616C372.434 175.091 372.057 180.566 372.757 186.041C373.618 192.75 376.094 199.299 379.915 204.881C381.421 207.082 383.466 209.336 386.157 209.497C388.148 209.604 390.032 208.477 391.27 206.974C392.507 205.471 393.261 203.593 393.907 201.714C396.705 193.555 398.104 184.806 396.866 176.272C395.629 167.737 391.539 159.471 384.758 154.157" fill="#DE6EB6"/>
<path d="M456.171 149.434C462.683 153.728 466.342 162.584 465.158 171.28C464.028 179.975 458.108 188.134 450.574 191.354C447.937 192.482 444.762 192.965 442.771 191.032C441.318 189.637 440.834 187.329 441.103 185.128C442.287 175.252 445.892 165.429 446.699 163.336" fill="#DE6EB6"/>
<path d="M452.135 172.622C443.417 181.371 430.017 184.592 417.854 182.337C406.123 180.19 395.575 173.32 387.61 164.409L387.395 164.141C361.994 164.141 336.593 156.358 315.551 142.027C298.976 130.755 285.038 115.35 275.62 97.6903C273.844 94.3624 271.53 91.2491 270.292 87.6529C269.001 83.9492 269.593 79.7625 271.1 76.1662C272.66 72.5163 275.082 69.2957 277.611 66.2362C290.581 50.4018 306.51 36.4997 326.691 30.9174C328.252 30.488 329.812 30.1123 331.427 29.7366C339.122 28.1263 346.979 27.5895 354.836 27.9653C388.041 34.138 418.715 62.7472 425.765 96.1873C426.357 98.9785 426.734 101.877 426.895 104.722C411.988 107.996 398.535 117.926 391.431 131.399C389.655 134.727 390.947 138.806 394.283 140.577C395.306 141.114 396.382 141.382 397.458 141.382C399.934 141.382 402.302 140.041 403.486 137.732C409.513 126.3 421.783 118.248 434.699 117.282C437.551 117.067 441.372 117.175 443.686 118.946C444.331 119.483 445.085 119.858 445.838 120.073C445.838 120.341 445.838 120.664 445.838 120.932C453.588 125.709 459.292 133.76 461.068 142.671C463.167 153.299 459.669 164.839 452.027 172.514L452.135 172.622Z" fill="#FF7FD1"/>
<path d="M387.664 164.409C387.664 164.409 387.503 164.248 387.449 164.141Z" fill="#FF7FD1"/>
<path d="M421.837 167.469C429.683 167.469 436.044 161.124 436.044 153.298C436.044 145.472 429.683 139.128 421.837 139.128C413.99 139.128 407.629 145.472 407.629 153.298C407.629 161.124 413.99 167.469 421.837 167.469Z" fill="white"/>
<path d="M453.103 75.1465C457.193 95.3286 452.35 117.121 440.134 133.761Z" fill="#DE6EB6"/>
<path d="M440.134 139.289C439.004 139.289 437.82 138.913 436.851 138.216C434.376 136.391 433.837 132.902 435.667 130.433C446.915 115.135 451.435 94.8455 447.668 76.22C447.076 73.2141 449.013 70.262 452.027 69.6715C455.095 69.0811 458.001 71.0134 458.593 74.0193C462.952 95.6507 457.732 119.214 444.654 137.035C443.578 138.538 441.856 139.289 440.134 139.289Z" fill="#DE6EB6"/>
<path d="M457.786 134.674C474.199 128.179 488.084 115.565 496.156 99.8916C495.941 100.214 495.672 100.536 495.456 100.804" fill="#DE6EB6"/>
<path d="M457.786 140.309C455.579 140.309 453.48 138.967 452.565 136.767C451.435 133.922 452.835 130.647 455.687 129.52C470.002 123.831 482.379 113.042 489.913 99.6228C490.075 98.8713 490.452 98.1199 490.936 97.4758L491.635 96.5633C493.411 94.2552 496.64 93.7185 499.062 95.2751C501.484 96.8317 502.345 99.9449 501.053 102.521C492.443 119.322 477.374 132.956 459.777 139.933C459.077 140.202 458.378 140.309 457.732 140.309H457.786Z" fill="#DE6EB6"/>
<path d="M445.892 120.18C445.139 119.965 444.385 119.59 443.74 119.053C441.479 117.282 437.605 117.174 434.752 117.389C421.837 118.355 409.567 126.407 403.54 137.84C402.302 140.148 399.934 141.489 397.512 141.489C396.436 141.489 395.36 141.221 394.337 140.684C391.001 138.967 389.709 134.834 391.485 131.506C398.589 118.033 412.096 108.103 426.949 104.829C426.788 101.93 426.411 99.0855 425.819 96.2944C418.715 62.8543 388.041 34.245 354.89 28.0723C358.55 28.2333 362.263 28.6627 365.869 29.2531C381.152 31.7759 395.898 37.895 408.275 47.2346C426.411 60.9756 439.165 82.0702 443.901 104.507C444.977 109.66 445.677 114.92 445.892 120.18Z" fill="#DE6EB6"/>
<path d="M453.265 117.872C451.489 120.18 448.529 120.985 445.892 120.234C445.677 114.974 445.031 109.767 443.901 104.561C447.022 105.312 449.713 106.547 452.027 108.372C454.987 110.68 455.579 114.92 453.265 117.926V117.872Z" fill="#DE6EB6"/>
<g clip-path="url(#clip1_88_1048)">
<path d="M700.601 13.2051C717.283 25.3895 728.423 44.7128 730.683 65.1634Z" fill="#DE6EB6"/>
<path d="M734.451 69.296C733.59 70.0474 732.513 70.5842 731.276 70.7452C728.208 71.0673 725.464 68.8666 725.087 65.807C723.042 46.9131 712.655 28.9317 697.264 17.7134C694.789 15.8884 694.251 12.3995 696.026 9.93042C697.856 7.40765 701.354 6.92457 703.83 8.69587C721.696 21.7391 733.751 42.619 736.173 64.5725C736.388 66.3975 735.635 68.1151 734.397 69.296H734.451Z" fill="#DE6EB6"/>
<path d="M637.368 165.269C640.005 162.263 642.749 159.257 646.193 157.11C649.638 154.963 654.05 153.836 657.979 155.016C661.423 156.036 664.114 158.72 665.621 161.833C667.128 164.947 667.612 168.382 667.72 171.763C667.881 179.6 665.836 187.437 662.069 194.415C660.454 197.42 658.948 199.943 657.764 203.056C656.365 206.867 652.974 209.444 649.046 210.571C646.409 211.322 643.395 211.161 641.081 209.659C637.852 207.565 637.691 204.184 637.906 200.748C638.498 188.993 639.359 176.809 642.103 165.322" fill="#DE6EB6"/>
<path d="M583.875 133.063L577.148 127.695C572.735 124.207 567.031 120.449 561.865 122.704C558.151 124.314 556.268 128.501 555.299 132.419C553.362 140.095 553.577 148.307 555.837 155.875C557.021 159.794 558.851 163.712 562.188 166.074C565.524 168.435 570.583 168.704 573.381 165.698C576.018 162.907 575.803 158.559 577.094 154.963C579.086 149.381 585.436 145.731 591.302 146.697" fill="#DE6EB6"/>
<path d="M712.064 145.784C716.53 144.335 721.051 148.414 722.611 152.816C724.172 157.217 723.957 162.102 725.41 166.557C726.863 171.012 731.06 175.306 735.635 174.232C739.294 173.374 741.393 169.509 742.523 165.913C744.837 158.774 745.375 150.937 743.169 143.744C740.963 136.552 735.796 130.164 728.854 127.266C721.912 124.367 713.248 125.334 707.705 130.433" fill="#DE6EB6"/>
<path d="M768.785 138.43C768.462 140.899 767.816 143.368 766.363 145.354C764.91 147.34 762.489 148.79 760.013 148.575C756.784 148.307 754.416 145.462 753.071 142.51C751.725 139.557 751.08 136.337 749.304 133.653C746.936 130.057 743.007 127.856 739.079 126.085C732.998 123.347 719.921 117.604 723.257 108.425C725.302 102.843 732.406 103.004 737.357 103.595C754.901 105.688 771.207 119.59 768.839 138.484L768.785 138.43Z" fill="#DE6EB6"/>
<path d="M583.767 169.777C591.032 174.876 602.28 175.252 610.836 176.325C620.147 177.506 629.618 177.721 638.982 177.023C669.388 174.769 697.587 163.604 718.467 141.006C727.454 131.291 734.881 114.276 743.115 103.97C748.927 96.6702 754.416 96.9385 757.053 88.0283C758.936 81.6946 759.475 79.5475 758.291 72.9991C756.838 64.8403 754.039 60.4926 748.012 54.7493C739.778 46.9126 730.091 47.0736 718.952 44.7656C711.041 43.1016 703.453 40.0421 695.488 38.7002C660.67 32.7422 619.824 49.9721 596.952 76.0049C585.705 88.8335 579.731 105.473 577.471 122.166C576.341 130.701 576.072 139.343 576.664 147.877C577.094 154.157 576.717 161.564 580.754 166.878C581.561 168.005 582.583 168.918 583.713 169.723L583.767 169.777Z" fill="#FF7FD1"/>
<path d="M711.794 43.9069C723.795 42.2966 736.549 43.3164 747.097 48.7914C757.645 54.2663 765.663 64.7331 765.448 75.9514C765.34 83.5197 761.573 90.7122 756.299 96.4556C750.972 102.199 744.191 106.547 737.087 110.304" fill="#FF7FD1"/>
<path d="M739.025 56.8962C747.205 41.2765 749.465 22.7046 745.321 5.58203C745.321 5.95776 745.321 6.38717 745.375 6.7629" fill="#DE6EB6"/>
<path d="M742.684 61.1369C741.016 62.5861 738.541 62.9619 736.442 61.8347C733.697 60.3854 732.621 57.0575 734.074 54.32C741.231 40.6863 743.492 24.4225 740.424 9.33961C740.047 8.64183 739.832 7.89036 739.778 7.03155V5.85068C739.563 2.95218 741.608 0.429412 744.46 4.77355e-06C747.312 -0.429402 750.057 1.39558 750.703 4.18673C755.17 22.5439 752.694 42.6724 743.922 59.4192C743.599 60.0633 743.115 60.6001 742.631 61.0832L742.684 61.1369Z" fill="#DE6EB6"/>
<path d="M757.161 74.9313C757.161 80.7283 753.071 87.7062 748.066 90.6047C743.061 93.5032 738.971 91.1414 738.971 85.3981C738.971 79.6548 743.061 72.6232 748.066 69.7247C753.071 66.8262 757.161 69.188 757.161 74.9313Z" fill="white"/>
<path d="M726.486 88.0281C726.001 88.1354 725.571 88.2428 725.086 88.2428C722.019 88.4038 719.113 86.4178 718.306 83.3046C714.861 70.6371 707.327 59.1504 697.425 50.3476C680.312 49.5425 662.822 54.3733 647.592 62.532C643.287 64.8401 639.143 67.4165 635.161 70.2077C619.178 81.4796 605.993 96.5089 596.737 113.685C592.108 122.273 588.449 131.345 585.92 140.738C583.659 149.165 581.507 157.807 580.592 166.502C576.933 161.188 577.255 154.049 576.825 147.93C576.233 139.342 576.448 130.7 577.632 122.166C579.892 105.473 585.812 88.8332 597.113 76.0047C616.056 54.427 647.377 38.9146 677.406 37.6264C683.595 37.358 689.73 37.6801 695.649 38.6999C699.901 39.4514 703.991 40.6323 708.134 41.8131C719.059 52.0652 727.293 65.1621 731.275 79.8157C732.244 83.3583 730.145 87.0082 726.539 87.9744L726.486 88.0281Z" fill="#DE6EB6"/>
</g>
<g clip-path="url(#clip2_88_1048)">
<path d="M956.601 13.2676C973.283 25.5098 984.423 44.9247 986.683 65.4721Z" fill="#DE6EB6"/>
<path d="M990.451 69.6243C989.59 70.3793 988.513 70.9187 987.276 71.0804C984.208 71.404 981.464 69.1929 981.087 66.1189C979.042 47.1354 968.655 29.0687 953.264 17.7973C950.789 15.9637 950.251 12.4582 952.026 9.97741C953.856 7.44269 957.354 6.95732 959.83 8.73702C977.696 21.8421 989.751 42.821 992.173 64.8785C992.388 66.7121 991.635 68.4379 990.397 69.6243H990.451Z" fill="#DE6EB6"/>
<path d="M903.916 171.282C905.153 167.453 906.445 163.57 908.813 160.227C911.181 156.883 914.732 154.133 918.822 153.647C922.374 153.27 925.926 154.672 928.563 156.883C931.2 159.094 932.976 162.114 934.429 165.242C936.743 170.42 937.658 176.028 937.873 181.691C938.142 188.594 938.842 196.468 936.205 203.047C934.375 207.578 929.747 211.946 924.473 210.705C921.083 209.897 919.576 206.822 918.446 203.802C914.356 192.693 910.32 181.152 908.328 169.449" fill="#DE6EB6"/>
<path d="M958.538 150.195C963.166 149.494 966.987 154.24 967.848 158.878C968.709 163.516 967.687 168.316 968.386 172.954C969.086 177.592 972.584 182.553 977.266 182.23C981.033 181.96 983.724 178.455 985.446 175.111C988.89 168.37 990.666 160.712 989.643 153.215C988.621 145.719 984.585 138.546 978.181 134.555C971.777 130.565 963.112 130.133 956.816 134.232" fill="#DE6EB6"/>
<path d="M1014.56 150.034C1013.86 152.946 1012.73 155.858 1010.63 158.07C1008.53 160.281 1005.47 161.683 1002.51 161.036C998.684 160.227 996.155 156.452 994.971 152.73C993.787 149.009 996.478 129.972 994.756 126.466C992.442 121.774 992.011 122.583 987.491 119.887C980.549 115.734 965.588 106.944 970.862 96.2654C974.091 89.7938 982.647 90.9802 988.513 92.3824C1009.39 97.344 1020 127.437 1014.51 149.98L1014.56 150.034Z" fill="#DE6EB6"/>
<path d="M836.108 128.085C833.632 126.521 831.157 124.903 828.412 123.878C825.668 122.853 822.654 122.314 819.802 123.015C817.111 123.662 814.689 125.334 812.86 127.437C811.03 129.541 809.738 132.022 808.662 134.61C804.68 144.318 804.249 155.481 807.478 165.458C808.285 167.885 809.469 170.528 811.891 171.391C814.205 172.254 816.95 171.067 818.564 169.18C820.179 167.292 820.932 164.811 821.578 162.384C823.354 155.643 824.591 148.794 825.183 141.837C829.058 144.533 834.224 145.288 838.691 143.886" fill="#DE6EB6"/>
<path d="M839.767 170.581C847.032 175.705 858.28 176.082 866.836 177.161C876.147 178.347 885.618 178.563 894.982 177.862C925.388 175.597 953.587 164.379 974.467 141.675C983.454 131.913 990.881 114.817 999.115 104.463C1004.93 97.1282 1010.42 97.3979 1013.05 88.4454C1014.94 82.0817 1015.47 79.9245 1014.29 73.345C1012.84 65.1476 1010.04 60.7792 1004.01 55.0087C995.778 47.1348 986.091 47.2966 974.952 44.9776C967.041 43.3058 959.453 40.2318 951.488 38.8835C916.67 32.8972 875.824 50.2089 852.952 76.3651C841.705 89.2544 835.731 105.973 833.471 122.745C832.341 131.32 832.072 140.003 832.664 148.578C833.094 154.888 832.717 162.33 836.754 167.669C837.561 168.802 838.583 169.718 839.713 170.527L839.767 170.581Z" fill="#FF7FD1"/>
<path d="M967.794 44.1152C979.795 42.4973 992.549 43.522 1003.1 49.0229C1013.64 54.5238 1021.66 65.0402 1021.45 76.3116C1021.34 83.9158 1017.57 91.1424 1012.3 96.913C1006.97 102.684 1000.19 107.052 993.087 110.827" fill="#FF7FD1"/>
<path d="M995.025 57.1667C1003.2 41.473 1005.47 22.8131 1001.32 5.60938C1001.32 5.98689 1001.32 6.41833 1001.38 6.79584" fill="#DE6EB6"/>
<path d="M998.684 61.4269C997.016 62.883 994.541 63.2605 992.442 62.128C989.697 60.6719 988.621 57.3282 990.074 54.5778C997.231 40.8795 999.492 24.5386 996.424 9.38417C996.047 8.68308 995.832 7.92805 995.778 7.06517V5.8787C995.563 2.96647 997.608 0.431743 1000.46 0.000301004C1003.31 -0.431141 1006.06 1.40249 1006.7 4.20686C1011.17 22.651 1008.69 42.8749 999.922 59.7011C999.599 60.3483 999.115 60.8876 998.631 61.373L998.684 61.4269Z" fill="#DE6EB6"/>
<path d="M1013.16 75.287C1013.16 81.1115 1009.07 88.1225 1004.07 91.0347C999.061 93.9469 994.971 91.574 994.971 85.8035C994.971 80.0329 999.061 72.968 1004.07 70.0558C1009.07 67.1436 1013.16 69.5165 1013.16 75.287Z" fill="white"/>
<path d="M982.486 88.4461C982.001 88.5539 981.571 88.6618 981.086 88.6618C978.019 88.8236 975.113 86.8282 974.306 83.7002C970.861 70.9727 963.327 59.4316 953.425 50.587C936.312 49.7781 918.822 54.6318 903.592 62.8292C899.287 65.1482 895.143 67.7369 891.161 70.5412C875.178 81.8666 861.993 96.9671 852.737 114.225C848.108 122.854 844.449 131.968 841.92 141.406C839.659 149.873 837.507 158.555 836.592 167.292C832.933 161.953 833.255 154.78 832.825 148.632C832.233 140.003 832.448 131.321 833.632 122.746C835.892 105.973 841.812 89.255 853.113 76.3657C872.056 54.6857 903.377 39.0999 933.406 37.8055C939.595 37.5359 945.73 37.8595 951.649 38.8841C955.901 39.6392 959.991 40.8256 964.134 42.0121C975.059 52.3128 983.293 65.4718 987.275 80.1947C988.244 83.7541 986.145 87.4214 982.539 88.3922L982.486 88.4461Z" fill="#DE6EB6"/>
</g>
<defs>
<clipPath id="clip0_88_1048">
<rect width="257" height="211" fill="white"/>
</clipPath>
<clipPath id="clip1_88_1048">
<rect width="256" height="211" fill="white" transform="translate(513)"/>
</clipPath>
<clipPath id="clip2_88_1048">
<rect width="256" height="212" fill="white" transform="translate(769)"/>
</clipPath>
</defs>
</svg>
