<svg width="875" height="986" viewBox="0 0 875 986" fill="none" xmlns="http://www.w3.org/2000/svg">
<path d="M40.65 985.87L834.71 527.57L874.19 504.9L823.02 475.34L772.4 445.99L772.3 446.05L0 0V117.37L670.77 504.67L40.71 868.27L40.65 985.87Z" fill="#DBD5D5"/>
<path d="M40.72 906.57L736.77 504.67L33 98.3199V57.1699L772.23 484.12L772.3 484.08L806.46 503.89L808.09 504.83L40.72 947.91V906.57Z" stroke="#F2ECEC" stroke-width="4" stroke-miterlimit="10"/>
<path d="M297.03 288.62L398.56 229.939L418.99 241.67L317.36 300.359L297.03 288.62Z" fill="#DBD5D5"/>
<path d="M304.9 293.42L406.42 234.729L410.24 236.88L308.61 295.559L304.9 293.42Z" fill="#F2ECEC"/>
</svg>
