<svg width="1179" height="828" viewBox="0 0 1179 828" fill="none" xmlns="http://www.w3.org/2000/svg">
<path d="M671.7 210.58V258.56C671.7 260.27 672.82 261.97 675.07 263.27C679.55 265.86 686.89 265.86 691.38 263.27C693.62 261.97 694.75 260.27 694.75 258.56V210.58C694.75 212.29 693.63 213.99 691.38 215.29C686.89 217.88 679.55 217.88 675.07 215.29C672.83 213.99 671.7 212.29 671.7 210.58Z" fill="#D66BB0"/>
<path d="M773.34 152.46V200.44C773.34 202.15 774.46 203.85 776.71 205.15C781.19 207.74 788.53 207.74 793.02 205.15C795.26 203.85 796.39 202.15 796.39 200.44V152.46C796.39 154.17 795.27 155.87 793.02 157.17C788.53 159.76 781.19 159.76 776.71 157.17C774.47 155.87 773.34 154.17 773.34 152.46Z" fill="#D66BB0"/>
<path d="M643.01 258.2V140.84L846.27 23.4697V140.84L643.01 258.2Z" fill="#FF7FD1"/>
<path d="M602.35 234.73V117.37L643.01 140.84V258.2L602.35 234.73Z" fill="#D66BB0"/>
<path d="M805.62 0L846.27 23.47L643.01 140.84L602.35 117.37L805.62 0Z" fill="#D66BB0"/>
<path d="M824.15 49.1201L784.4 117.99L824.15 140.94V49.1201Z" fill="#FFB0E1"/>
<path d="M764.52 83.5605L724.76 152.421L764.52 175.38V83.5605Z" fill="#FFB0E1"/>
<path d="M704.88 117.99L665.13 186.86L704.88 209.81V117.99Z" fill="#FFB0E1"/>
<path d="M1077.31 87.96L1178.94 146.63L0.0100098 827.34L0 710.21L1077.31 87.96Z" fill="#DBD5D5"/>
<path d="M33 729.259L1077.32 126.069L1112.94 146.629L33.01 770.189L33 729.259Z" stroke="#F2ECEC" stroke-width="4" stroke-miterlimit="10"/>
<path d="M579.84 375.31L681.47 433.99L640.82 457.46L539.19 398.78L579.84 375.31Z" fill="#DBD5D5"/>
<path d="M548.83 393.099L558.99 387.229L569.15 393.099L558.99 398.959L548.83 393.099Z" fill="#F7F5F3"/>
<path d="M569.15 393.099L579.31 387.229L589.48 393.099L579.31 398.959L569.15 393.099Z" fill="#F7F5F3"/>
<path d="M569.15 404.83L579.31 398.96L589.48 404.83L579.31 410.7L569.15 404.83Z" fill="#F7F5F3"/>
<path d="M589.48 404.83L599.64 398.96L609.8 404.83L599.64 410.7L589.48 404.83Z" fill="#F7F5F3"/>
<path d="M589.48 416.569L599.64 410.699L609.8 416.569L599.64 422.439L589.48 416.569Z" fill="#F7F5F3"/>
<path d="M609.8 416.569L619.97 410.699L630.13 416.569L619.97 422.439L609.8 416.569Z" fill="#F7F5F3"/>
<path d="M609.8 428.299L619.97 422.439L630.13 428.299L619.97 434.169L609.8 428.299Z" fill="#F7F5F3"/>
<path d="M630.13 428.299L640.29 422.439L650.46 428.299L640.29 434.169L630.13 428.299Z" fill="#F7F5F3"/>
<path d="M630.13 440.039L640.29 434.169L650.46 440.039L640.29 445.909L630.13 440.039Z" fill="#F7F5F3"/>
<path d="M650.46 440.039L660.62 434.169L670.78 440.039L660.62 445.909L650.46 440.039Z" fill="#F7F5F3"/>
</svg>
