<svg width="971" height="1020" viewBox="0 0 971 1020" fill="none" xmlns="http://www.w3.org/2000/svg">
<g clip-path="url(#clip0_88_1049)">
<path d="M-30 250.5L971 843V1020H-30V250.5Z" fill="white"/>
<path d="M871.78 466.649C871.78 422.599 856.18 391.569 831.04 377.049C805.9 362.529 771.22 364.539 733.08 386.559C656.79 430.609 594.37 538.729 594.37 626.829C594.37 670.879 609.97 701.909 635.12 716.429C660.26 730.949 694.94 728.939 733.08 706.919C809.37 662.869 871.79 554.749 871.79 466.649H871.78Z" fill="#4533A3"/>
<path d="M871.77 466.649C871.77 554.739 809.36 662.859 733.07 706.919C694.92 728.939 660.23 730.929 635.1 716.409L671.43 704.719C686.76 704.719 704.47 699.189 722.56 688.729C792.07 648.619 850.76 546.909 850.76 466.649H871.76H871.77Z" fill="#5640CC"/>
<path d="M788.23 843.34L645.94 925.49L584.96 890.29L686.59 784.66L788.23 843.34Z" fill="#C2BCBC"/>
<path d="M609.6 912.28L716.03 801.66" stroke="#F2ECEC" stroke-width="4" stroke-miterlimit="10"/>
<path d="M664.68 918.369L755.22 824.279" stroke="#F2ECEC" stroke-width="4" stroke-miterlimit="10"/>
<path d="M605.29 643.82L300.39 467.77L299.48 350.1L706.53 585.14" fill="#DBD5D5"/>
<path d="M300.39 467.77L605.29 643.82L767.9 737.71L686.6 784.66L788.23 843.34L869.53 796.39L971.16 737.94L706.53 585.14L299.48 350.1L300.39 467.77Z" fill="#DBD5D5"/>
<path d="M833.56 737.52L333.25 448.64L332.93 407.52L905.07 737.88L869.57 758.31" stroke="#F2ECEC" stroke-width="4" stroke-miterlimit="10"/>
<path d="M813.11 725.71L833.9 737.71L716.03 801.66L710.25 807.67" stroke="#F2ECEC" stroke-width="4" stroke-miterlimit="10"/>
<path d="M869.57 758.311L811.49 791.811L755.22 824.28L752.72 826.87" stroke="#F2ECEC" stroke-width="4" stroke-miterlimit="10"/>
<path d="M828.88 866.81L645.94 972.44L463 866.81L645.94 761.18L788.23 843.34L686.59 784.66L544.31 866.81L584.96 890.29L645.94 925.49L788.23 843.34L828.88 866.81Z" fill="#CBC4FF"/>
<path d="M686.59 784.66L584.96 890.29L544.31 866.81L686.59 784.66Z" fill="#4533A3"/>
</g>
<defs>
<clipPath id="clip0_88_1049">
<rect width="971" height="1020" fill="white"/>
</clipPath>
</defs>
</svg>
