<svg width="875" height="846" viewBox="0 0 875 846" fill="none" xmlns="http://www.w3.org/2000/svg">
<path d="M284.51 845.25L834.71 527.57L874.19 504.9L823.02 475.34L772.4 445.99L772.3 446.05L0 0V117.37L670.77 504.67L284.57 727.66L284.51 845.25Z" fill="#DBD5D5"/>
<path d="M317.56 746.72L736.77 504.67L33 98.3199V57.1699L772.23 484.12L772.3 484.08L806.46 503.89L808.09 504.83L317.54 788.08L317.56 746.72Z" stroke="#F2ECEC" stroke-width="4" stroke-miterlimit="10"/>
<path d="M297.03 288.62L398.56 229.94L418.99 241.671L317.36 300.36L297.03 288.62Z" fill="#DBD5D5"/>
<path d="M304.9 293.421L406.42 234.73L410.24 236.88L308.61 295.56L304.9 293.421Z" fill="#F2ECEC"/>
</svg>
