<svg width="1302" height="1147" viewBox="0 0 1302 1147" fill="none" xmlns="http://www.w3.org/2000/svg">
<g clip-path="url(#clip0_146_41)">
<path d="M635.82 529.94V577.92C635.82 579.63 636.94 581.33 639.19 582.63C643.67 585.22 651.01 585.22 655.5 582.63C657.74 581.33 658.87 579.63 658.87 577.92V529.94C658.87 531.65 657.75 533.35 655.5 534.65C651.01 537.24 643.67 537.24 639.19 534.65C636.95 533.35 635.82 531.65 635.82 529.94Z" fill="#D66BB0"/>
<path d="M737.46 471.82V519.8C737.46 521.51 738.58 523.21 740.83 524.51C745.31 527.1 752.65 527.1 757.14 524.51C759.38 523.21 760.51 521.51 760.51 519.8V471.82C760.51 473.53 759.39 475.23 757.14 476.53C752.65 479.12 745.31 479.12 740.83 476.53C738.59 475.23 737.46 473.53 737.46 471.82Z" fill="#D66BB0"/>
<path d="M607.13 577.56V460.2L810.39 342.83V460.2L607.13 577.56Z" fill="#D66BB0"/>
<path d="M788.27 368.48L748.52 437.35L788.27 460.301V368.48Z" fill="#FFB0E1"/>
<path d="M728.64 402.921L688.88 471.781L728.64 494.741V402.921Z" fill="#FFB0E1"/>
<path d="M669 437.351L629.25 506.221L669 529.171V437.351Z" fill="#FFB0E1"/>
<path d="M810.39 342.83L769.74 319.36L566.47 436.73V554.09L607.13 577.56V460.2L810.39 342.83Z" fill="#FF7FD1"/>
<path d="M1041.43 407.32L1143.06 465.99L-35.8699 1146.7L-35.8799 1029.57L1041.43 407.32Z" fill="#DBD5D5"/>
<path d="M-2.87988 1048.62L1041.44 445.43L1077.06 465.99L-2.86987 1089.55L-2.87988 1048.62Z" stroke="#F2ECEC" stroke-width="4" stroke-miterlimit="10"/>
<path d="M543.96 694.67L645.59 753.35L604.94 776.82L503.31 718.14L543.96 694.67Z" fill="#DBD5D5"/>
<path d="M512.95 712.46L523.11 706.59L533.27 712.46L523.11 718.32L512.95 712.46Z" fill="#F7F5F3"/>
<path d="M533.271 712.46L543.431 706.59L553.6 712.46L543.431 718.32L533.271 712.46Z" fill="#F7F5F3"/>
<path d="M533.271 724.19L543.431 718.32L553.6 724.19L543.431 730.06L533.271 724.19Z" fill="#F7F5F3"/>
<path d="M553.6 724.19L563.76 718.32L573.92 724.19L563.76 730.06L553.6 724.19Z" fill="#F7F5F3"/>
<path d="M553.6 735.929L563.76 730.06L573.92 735.929L563.76 741.8L553.6 735.929Z" fill="#F7F5F3"/>
<path d="M573.92 735.929L584.09 730.06L594.25 735.929L584.09 741.8L573.92 735.929Z" fill="#F7F5F3"/>
<path d="M573.92 747.66L584.09 741.8L594.25 747.66L584.09 753.53L573.92 747.66Z" fill="#F7F5F3"/>
<path d="M594.25 747.66L604.41 741.8L614.58 747.66L604.41 753.53L594.25 747.66Z" fill="#F7F5F3"/>
<path d="M594.25 759.399L604.41 753.529L614.58 759.399L604.41 765.269L594.25 759.399Z" fill="#F7F5F3"/>
<path d="M614.58 759.399L624.74 753.529L634.9 759.399L624.74 765.269L614.58 759.399Z" fill="#F7F5F3"/>
</g>
<defs>
<clipPath id="clip0_146_41">
<rect width="1302" height="1147" fill="white"/>
</clipPath>
</defs>
</svg>
