<svg width="1302" height="1147" viewBox="0 0 1302 1147" fill="none" xmlns="http://www.w3.org/2000/svg">
<g clip-path="url(#clip0_146_80)">
<path d="M969.9 378.26L858.96 443.01C858.96 404.75 873.56 378.71 896.66 368.42C916.22 359.66 941.89 362.26 969.9 378.26Z" fill="#4533A3"/>
<path d="M1671.55 208.01L1203.29 500.97L1082.09 571.84C1082.09 513.39 1047.89 443.95 1001.45 401.53C991.61 392.57 981.22 384.8 970.51 378.61C942.26 362.3 916.36 359.6 896.66 368.42L1476.32 10.3301C1496.79 -4.71985 1526.75 -4.43978 1559.97 14.7802C1621.36 50.2002 1671.55 137.17 1671.55 208.01Z" fill="#6C50FF"/>
<path opacity="0.44" d="M858.96 443.011L1082.09 571.841L1168.7 468.341L980.45 372.101L858.96 443.011Z" fill="#6C50FF"/>
</g>
<defs>
<clipPath id="clip0_146_80">
<rect width="1302" height="1147" fill="white"/>
</clipPath>
</defs>
</svg>
