<svg width="813" height="573" viewBox="0 0 813 573" fill="none" xmlns="http://www.w3.org/2000/svg">
<path d="M110.94 378.617L0 443.367C0 405.107 14.6001 379.067 37.7001 368.777C57.2601 360.017 82.9301 362.617 110.94 378.617Z" fill="#4533A3"/>
<path d="M812.59 208.368L344.33 501.328L223.13 572.198C223.13 513.748 188.93 444.308 142.49 401.888C132.65 392.928 122.26 385.158 111.55 378.968C83.3002 362.658 57.4002 359.958 37.7002 368.778L617.36 10.6876C637.83 -4.36243 667.79 -4.08236 701.01 15.1376C762.4 50.5576 812.59 137.528 812.59 208.368Z" fill="#6C50FF"/>
<path opacity="0.44" d="M0 443.368L223.13 572.198L309.74 468.698L121.49 372.458L0 443.368Z" fill="#6C50FF"/>
</svg>
