<svg width="972" height="973" viewBox="0 0 972 973" fill="none" xmlns="http://www.w3.org/2000/svg">
<path d="M828.88 866.81L645.94 972.44L463 866.81L645.94 761.18L788.23 843.34L686.59 784.66L544.31 866.81L584.96 890.29L645.94 925.49L788.23 843.34L828.88 866.81Z" fill="#CBC4FF"/>
<path d="M686.59 784.66L584.96 890.29L544.31 866.81L686.59 784.66Z" fill="#4533A3"/>
<path d="M397.67 127.82C372.62 122.51 340.25 125.35 302.61 138.06C182.87 178.43 86.46 286.95 86.46 362.28C86.46 382.43 93.45 398.17 105.38 409.34L0 348.48L175.4 0L397.68 127.81L397.67 127.82Z" fill="#8B7DFF"/>
<path d="M830.78 376.9C805.66 362.51 771.12 364.6 733.06 386.54C656.8 430.58 594.37 538.72 594.37 626.8C594.37 664.86 606 693.23 625.4 709.57L489.7 631.22C477.74 620.04 470.75 604.3 470.75 584.16C470.75 508.83 567.16 400.31 686.9 359.94C725.78 346.82 759.01 344.24 784.36 350.22H784.4L830.79 376.91L830.78 376.9Z" fill="#8B7DFF"/>
<path d="M784.35 350.21C759 344.23 725.77 346.81 686.89 359.93C567.15 400.3 470.74 508.83 470.74 584.15C470.74 604.3 477.73 620.04 489.69 631.21L385.66 571.17L359.83 556.25C359.83 556.25 359.79 556.21 359.76 556.21C347.8 545.03 340.81 529.29 340.81 509.11C340.81 433.78 437.22 325.26 556.96 284.89C595.43 271.92 628.32 269.26 653.59 274.98H653.63L784.36 350.19L784.35 350.21Z" fill="#6C50FF"/>
<path d="M653.59 274.99C628.32 269.27 595.42 271.92 556.96 284.9C437.22 325.27 340.81 433.8 340.81 509.12C340.81 529.31 347.8 545.04 359.76 556.22L231.46 482.13C220.77 471.1 214.56 456.04 214.56 437.05C214.56 361.72 310.97 253.2 430.67 212.83C469.96 199.6 503.45 197.09 528.91 203.3L528.95 203.34L653.58 275L653.59 274.99Z" fill="#8B7DFF"/>
<path d="M528.92 203.29C503.46 197.08 469.97 199.59 430.68 212.82C310.98 253.19 214.57 361.71 214.57 437.04C214.57 456.03 220.77 471.1 231.47 482.12L131.32 424.33L105.45 409.38C105.45 409.38 105.41 409.34 105.38 409.34C93.45 398.16 86.46 382.42 86.46 362.28C86.46 286.95 182.87 178.43 302.61 138.06C340.26 125.35 372.63 122.51 397.67 127.82C397.67 127.82 397.71 127.82 397.74 127.86L528.91 203.3L528.92 203.29Z" fill="#6C50FF"/>
<path d="M831.03 377.05C814.97 367.77 795 365.23 772.73 370.37C760.15 373.27 746.84 378.62 733.07 386.57C656.77 430.6 594.36 538.72 594.36 626.81C594.36 642.73 596.4 656.95 600.19 669.3C606.88 691.15 619.05 707.15 635.1 716.41L671.43 704.72C661.74 704.72 653.06 702.55 645.6 698.25C633.69 691.36 625.05 679.21 620.13 662.86C616.99 652.45 615.36 640.34 615.36 626.81C615.36 546.56 674.09 444.88 743.57 404.74C755.11 398.08 766.46 393.41 777.14 390.9C783.25 389.47 789.13 388.74 794.7 388.74C804.4 388.74 813.08 390.95 820.53 395.25C840.03 406.49 850.77 431.86 850.77 466.65H871.77C871.77 422.59 856.16 391.58 831.03 377.05Z" fill="#5640CC"/>
</svg>
