<svg width="1129" height="760" viewBox="0 0 1129 760" fill="none" xmlns="http://www.w3.org/2000/svg">
<path d="M518.32 160.884L579.3 196.094L640.28 160.884L579.3 125.674L518.32 160.884Z" fill="#FFD1EE"/>
<path d="M396.36 231.304L457.34 266.514L518.32 231.304L457.34 196.094L396.36 231.304Z" fill="#FFD1EE"/>
<path d="M518.32 231.304L579.3 266.514L640.28 231.304L579.3 196.094L518.32 231.304Z" fill="#FFD1EE"/>
<path d="M640.28 231.304L701.26 266.514L762.24 231.304L701.26 196.094L640.28 231.304Z" fill="#FFD1EE"/>
<path d="M152.45 301.724L213.43 336.934L274.4 301.724L213.43 266.514L152.45 301.724Z" fill="#FFD1EE"/>
<path d="M274.4 301.724L335.38 336.934L396.36 301.724L335.38 266.514L274.4 301.724Z" fill="#FFD1EE"/>
<path d="M396.36 301.724L457.34 336.934L518.32 301.724L457.34 266.514L396.36 301.724Z" fill="#FFD1EE"/>
<path d="M518.32 301.724L579.3 336.934L640.28 301.724L579.3 266.514L518.32 301.724Z" fill="#FFD1EE"/>
<path d="M640.28 301.724L701.26 336.934L762.24 301.724L701.26 266.514L640.28 301.724Z" fill="#FFD1EE"/>
<path d="M762.24 301.724L823.22 336.934L884.2 301.724L823.22 266.514L762.24 301.724Z" fill="#FFD1EE"/>
<path d="M30.49 372.144L91.47 407.354L152.45 372.144L91.47 336.934L30.49 372.144Z" fill="#FFD1EE"/>
<path d="M152.42 372.144L213.39 407.354L274.37 372.144L213.39 336.934L152.42 372.144Z" fill="#FFD1EE"/>
<path d="M274.4 372.144L335.38 407.354L396.36 372.144L335.38 336.934L274.4 372.144Z" fill="#FFD1EE"/>
<path d="M396.36 372.144L457.34 407.354L518.32 372.144L457.34 336.934L396.36 372.144Z" fill="#FFD1EE"/>
<path d="M518.32 372.144L579.3 407.354L640.28 372.144L579.3 336.934L518.32 372.144Z" fill="#FFD1EE"/>
<path d="M640.28 372.144L701.26 407.354L762.24 372.144L701.26 336.934L640.28 372.144Z" fill="#FFD1EE"/>
<path d="M762.24 372.144L823.22 407.354L884.2 372.144L823.22 336.934L762.24 372.144Z" fill="#FFD1EE"/>
<path d="M274.4 442.564L335.38 477.774L396.36 442.564L335.38 407.354L274.4 442.564Z" fill="#FFD1EE"/>
<path d="M518.32 442.564L579.3 477.774L640.28 442.564L579.3 407.354L518.32 442.564Z" fill="#FFD1EE"/>
<path d="M640.28 442.564L701.26 477.774L762.24 442.564L701.26 407.354L640.28 442.564Z" fill="#FFD1EE"/>
<path d="M762.24 442.564L823.22 477.774L884.2 442.564L823.22 407.354L762.24 442.564Z" fill="#FFD1EE"/>
<path d="M884.2 442.564L945.17 477.774L1006.15 442.564L945.17 407.354L884.2 442.564Z" fill="#FFD1EE"/>
<path d="M152.45 512.983L213.43 548.193L274.4 512.983L213.43 477.773L152.45 512.983Z" fill="#FFD1EE"/>
<path d="M274.4 512.983L335.38 548.193L396.36 512.983L335.38 477.773L274.4 512.983Z" fill="#FFD1EE"/>
<path d="M396.36 512.983L457.34 548.193L518.32 512.983L457.34 477.773L396.36 512.983Z" fill="#FFD1EE"/>
<path d="M640.28 512.983L701.26 548.193L762.24 512.983L701.26 477.773L640.28 512.983Z" fill="#FFD1EE"/>
<path d="M884.2 512.983L945.17 548.193L1006.15 512.983L945.17 477.773L884.2 512.983Z" fill="#FFD1EE"/>
<path d="M518.32 583.403L579.3 618.603L640.28 583.403L579.3 548.193L518.32 583.403Z" fill="#FFD1EE"/>
<path d="M640.28 583.403L701.26 618.603L762.24 583.403L701.26 548.193L640.28 583.403Z" fill="#FFD1EE"/>
<path d="M762.24 583.403L823.22 618.603L884.2 583.403L823.22 548.193L762.24 583.403Z" fill="#FFD1EE"/>
<path d="M396.36 653.814L457.34 689.024L518.32 653.814L457.34 618.604L396.36 653.814Z" fill="#FFD1EE"/>
<path d="M518.32 653.814L579.3 689.024L640.28 653.814L579.3 618.604L518.32 653.814Z" fill="#FFD1EE"/>
<path d="M518.32 724.233L579.3 759.443L640.28 724.233L579.3 689.023L518.32 724.233Z" fill="#FFD1EE"/>
<path d="M640.28 653.815L670.77 671.425L701.26 653.815L670.77 636.215L640.28 653.815Z" fill="#FFD1EE"/>
<path d="M701.26 653.815L731.75 671.425L762.24 653.815L731.75 636.215L701.26 653.815Z" fill="#FFD1EE"/>
<path d="M426.85 601.004L457.34 618.604L487.83 601.004L457.34 583.404L426.85 601.004Z" fill="#FFD1EE"/>
<path d="M426.82 565.745L457.31 583.345L487.8 565.745L457.31 548.135L426.82 565.745Z" fill="#FFD1EE"/>
<path d="M792.73 530.584L823.22 548.194L853.71 530.584L823.22 512.984L792.73 530.584Z" fill="#FFD1EE"/>
<path d="M1006.15 442.563L1036.64 460.163L1067.13 442.563L1036.64 424.953L1006.15 442.563Z" fill="#FFD1EE"/>
<path d="M1006.15 477.774L1036.64 495.374L1067.13 477.774L1036.64 460.164L1006.15 477.774Z" fill="#FFD1EE"/>
<path d="M1067.13 442.563L1097.62 460.163L1128.11 442.563L1097.62 424.953L1067.13 442.563Z" fill="#FFD1EE"/>
<path d="M1006.15 407.354L1036.64 424.954L1067.13 407.354L1036.64 389.744L1006.15 407.354Z" fill="#FFD1EE"/>
<path d="M792.75 495.424L823.24 513.034L853.73 495.424L823.24 477.824L792.75 495.424Z" fill="#FFD1EE"/>
<path d="M304.89 565.745L335.38 583.345L365.87 565.745L335.38 548.135L304.89 565.745Z" fill="#FFD1EE"/>
<path d="M365.87 565.745L396.36 583.345L426.85 565.745L396.36 548.135L365.87 565.745Z" fill="#FFD1EE"/>
<path d="M182.94 460.164L213.43 477.774L243.91 460.164L213.43 442.564L182.94 460.164Z" fill="#FFD1EE"/>
<path d="M182.9 424.905L213.39 442.515L243.88 424.905L213.39 407.305L182.9 424.905Z" fill="#FFD1EE"/>
<path d="M60.4299 460.164L90.9199 477.774L121.41 460.164L90.9199 442.564L60.4299 460.164Z" fill="#FFD1EE"/>
<path d="M0 424.954L30.49 442.564L60.98 424.954L30.49 407.354L0 424.954Z" fill="#FFD1EE"/>
<path d="M60.98 424.954L91.47 442.564L121.96 424.954L91.47 407.354L60.98 424.954Z" fill="#FFD1EE"/>
<path d="M304.89 600.954L335.38 618.554L365.87 600.954L335.38 583.344L304.89 600.954Z" fill="#FFD1EE"/>
<path d="M579.3 571.944V501.524L945.17 290.264V360.684L579.3 571.944Z" fill="#FF77A3"/>
<path d="M579.3 571.944V501.524L213.43 290.264V360.684L579.3 571.944Z" fill="#D4719D"/>
<path d="M213.43 290.264L579.3 79.0137L945.17 290.264L579.3 501.524L213.43 290.264Z" fill="#FF7FD1"/>
<path d="M469.89 240.264C503.72 265.014 545.14 276.934 586.15 285.604C608.33 290.294 630.93 294.174 653.57 292.854C676.2 291.534 699.09 284.594 716.27 269.784C733.44 254.984 743.98 231.554 739.92 209.254C735.62 185.624 716.71 167.584 697.52 153.134C647.72 115.634 588.78 90.3445 527.29 80.0945C502.57 75.9745 476.41 74.3945 453.17 83.7845C431.88 92.3845 410.05 115.214 411.74 139.774C413.49 165.134 423.61 190.104 438.99 210.144C447.78 221.594 458.25 231.754 469.9 240.274L469.89 240.264Z" fill="#603FC9"/>
<path d="M580.26 9.51543C572.24 9.13543 564.05 9.51543 556.47 12.1754C548.9 14.8354 541.95 20.0254 538.52 27.2854C534.25 36.3154 536.02 47.3254 540.95 56.0154C545.88 64.7054 553.59 71.4554 561.52 77.5254C592.8 101.495 629.94 117.745 668.77 124.445C674.18 125.375 679.82 126.115 685.1 124.605C695.92 121.495 702.23 109.255 701.51 98.0154C700.67 84.9454 693.56 75.8954 684.39 67.6354C674.36 58.6054 667.11 47.2054 656.35 38.6354C634.78 21.4554 607.87 10.8354 580.27 9.51543H580.26Z" fill="#603FC9"/>
<path d="M781.43 315.795C783.36 321.645 784.65 328.695 780.73 333.445C778.1 336.635 773.64 337.875 769.51 337.515C765.38 337.155 761.52 335.405 757.86 333.485C738.03 323.105 721.35 306.805 710.51 287.225C706.21 279.455 702.88 269.645 707.42 262.015C716.08 247.475 739.05 255.695 749.03 264.565C764.02 277.875 775.19 296.915 781.42 315.795H781.43Z" fill="#603FC9"/>
<path d="M480.74 275.094C462.6 291.624 452.28 315.064 452.73 338.664C452.82 343.324 453.35 348.104 455.56 352.344C457.77 356.584 461.94 360.244 467 361.024C474.77 362.224 481.54 356.704 486.72 351.414C507.48 330.234 524.29 305.834 536.24 279.514C535.67 280.764 546.79 280.474 547.68 280.254C551.57 279.284 555.12 277.104 557.29 273.994C561.18 268.424 560.49 258.994 555.15 254.084C544.04 243.874 519.21 253.064 507.9 257.854C497.83 262.114 488.57 267.934 480.74 275.074V275.094Z" fill="#6C50FF"/>
<path d="M413.11 215.185C392.07 222.535 375.5 239.215 362.86 257.565C357.74 265.005 352.98 274.435 356.62 282.705C360.8 292.215 373.52 294.295 383.76 292.545C409.06 288.235 430.82 267.715 436.63 242.715C441.52 246.175 446.52 249.685 452.25 251.435C470.01 256.855 483.72 237.125 469.69 223.985C455.16 210.375 431.11 208.895 413.11 215.185Z" fill="#6C50FF"/>
<path d="M614.34 272.105C614.43 272.005 614.53 271.915 614.62 271.815C620.06 266.435 629.5 265.895 635.67 270.415C642.34 275.305 641.5 281.565 642.53 288.725C643.43 294.935 647.21 300.445 649.07 306.395C655.94 328.335 653.74 352.975 643.09 373.355C638.58 381.985 631.15 390.645 621.42 390.685C615.29 390.715 609.54 387.105 605.79 382.245C602.03 377.395 600.02 371.425 598.64 365.445C594.96 349.515 595.56 332.665 600.02 316.955C602.44 308.435 608.41 300.625 610.4 292.255C612.13 284.965 608.33 278.345 614.33 272.095L614.34 272.105Z" fill="#6C50FF"/>
<mask id="mask0_243_1114" style="mask-type:luminance" maskUnits="userSpaceOnUse" x="391" y="6" width="269" height="225">
<path d="M569.69 226.475C528.42 235.345 483.34 227.645 448.78 203.405C414.22 179.165 391.33 138.175 391.34 95.9646C391.34 83.8746 393.19 71.5946 398.48 60.7246C407.88 41.3946 427.04 28.5846 446.87 20.3146C478.87 6.96464 514.79 3.21464 548.85 9.64464C582.91 16.0746 614.99 32.6846 639.92 56.7746C647.74 64.3346 655.06 72.9446 658.2 83.3546C663.05 99.4146 657.19 116.605 650.63 132.045C641.1 154.465 629.53 175.565 617.39 196.645C612.54 205.075 610.58 209.865 601.62 214.935C591.73 220.525 580.77 224.095 569.7 226.475H569.69Z" fill="white"/>
</mask>
<g mask="url(#mask0_243_1114)">
<path d="M569.69 226.475C528.42 235.345 483.34 227.645 448.78 203.405C414.22 179.165 391.33 138.175 391.34 95.9646C391.34 83.8746 393.19 71.5946 398.48 60.7246C407.88 41.3946 427.04 28.5846 446.87 20.3146C478.87 6.96464 514.79 3.21464 548.85 9.64464C582.91 16.0746 614.99 32.6846 639.92 56.7746C647.74 64.3346 655.06 72.9446 658.2 83.3546C663.05 99.4146 657.19 116.605 650.63 132.045C641.1 154.465 629.53 175.565 617.39 196.645C612.54 205.075 610.58 209.865 601.62 214.935C591.73 220.525 580.77 224.095 569.7 226.475H569.69Z" fill="#6C50FF"/>
<path d="M481.63 223.036C488.83 205.796 496.08 188.386 499.35 169.996C502.62 151.606 501.63 131.886 492.96 115.346C484.29 98.7956 466.99 86.1255 448.31 86.3055C435.26 86.4255 422.2 92.5155 409.52 89.4255C398.75 86.7955 390.08 77.1056 388.67 66.1056C387.26 55.1156 391.44 40.1955 401.2 34.9355C398.47 42.7855 396.75 51.3156 398.72 59.3956C400.69 67.4756 407.13 74.8755 415.38 75.8655C425.37 77.0655 433.83 69.2356 442.76 64.5956C461.8 54.6756 486.13 59.4856 503.36 72.2956C520.59 85.1056 531.68 104.616 539.32 124.676C552.57 159.476 556.79 197.666 551.48 234.516" fill="#8B7DFF"/>
<path d="M404.15 24.2237C466.65 -0.806278 536.07 7.34371 594.83 46.6037C606.11 54.1437 617.16 62.9337 625.99 75.1637C634.82 87.3937 641.31 103.464 641.9 120.574C642.5 137.684 636.83 148.954 625.77 156.904C606.24 105.574 573.46 63.7937 534.64 40.7537C495.82 17.7137 451.24 13.5737 410.68 29.2337" fill="#8B7DFF"/>
<path d="M678.89 51.1738C636.16 76.8238 605.81 122.164 598.38 171.444Z" fill="#603FC9"/>
<path d="M598.39 186.444C597.64 186.444 596.89 186.384 596.13 186.274C587.94 185.034 582.3 177.394 583.54 169.204C591.67 115.304 624.43 66.3737 671.16 38.3137C678.27 34.0437 687.48 36.3537 691.74 43.4537C696 50.5537 693.7 59.7737 686.6 64.0337C647.45 87.5437 620.01 128.534 613.2 173.684C612.08 181.114 605.68 186.444 598.39 186.444Z" fill="#603FC9"/>
</g>
<path d="M612.66 216.535C604.86 170.795 625.11 119.535 656.21 85.1048C687.31 50.6748 728.14 31.3448 770.34 12.0548C785.44 5.14477 801.59 -1.46523 818.11 0.284767C822.08 5.42477 821.48 13.5648 818.17 19.1448C814.86 24.7248 809.61 28.8348 804.73 33.1148C783.04 52.1348 766.25 78.4348 764.65 107.235C763.58 130.945 773.9 155.505 793.75 169.045C801.37 174.245 810.62 177.725 819.93 177.565C827.04 177.445 835.65 175.365 839.86 169.105C841.01 167.395 841.68 165.265 841.29 163.235C840.76 160.475 838.52 158.775 836.81 156.745C834.85 154.415 833.13 151.885 831.67 149.215C827.39 141.415 820.49 122.365 833.66 118.905C839.76 117.305 847.03 120.325 851.74 124.135C857.77 129.015 863.78 135.885 871.5 135.065C876.13 134.565 879.91 131.315 883.69 128.585C887.47 125.855 892.21 123.455 896.63 124.945C900.42 126.215 902.83 130.125 903.48 134.065C904.14 138.005 903.36 142.035 902.58 145.955C900.39 156.985 898.2 168.025 896.02 179.055C888.6 216.495 858.19 251.305 823.09 266.285C805.13 273.955 785.61 277.095 766.28 279.855C735.17 284.305 703.07 287.885 672.64 280.055C642.21 272.225 617.95 247.525 612.67 216.545L612.66 216.535Z" fill="#6C50FF"/>
<path d="M706.54 267.794C726.185 267.794 742.11 251.869 742.11 232.224C742.11 212.58 726.185 196.654 706.54 196.654C686.895 196.654 670.97 212.58 670.97 232.224C670.97 251.869 686.895 267.794 706.54 267.794Z" fill="#DBFF00"/>
</svg>
