<svg width="1060" height="721" viewBox="0 0 1060 721" fill="none" xmlns="http://www.w3.org/2000/svg">
<path d="M486.589 158.962L543.836 192.016L601.083 158.962L543.836 125.907L486.589 158.962Z" fill="#FFD1EE"/>
<path d="M372.095 225.071L429.342 258.126L486.589 225.071L429.342 192.017L372.095 225.071Z" fill="#FFD1EE"/>
<path d="M486.589 225.071L543.836 258.126L601.083 225.071L543.836 192.017L486.589 225.071Z" fill="#FFD1EE"/>
<path d="M601.083 225.071L658.329 258.126L715.576 225.071L658.329 192.017L601.083 225.071Z" fill="#FFD1EE"/>
<path d="M257.602 291.18L314.848 324.234L372.095 291.18L314.848 258.125L257.602 291.18Z" fill="#FFD1EE"/>
<path d="M372.095 291.18L429.342 324.234L486.589 291.18L429.342 258.125L372.095 291.18Z" fill="#FFD1EE"/>
<path d="M486.589 291.18L543.836 324.234L601.083 291.18L543.836 258.125L486.589 291.18Z" fill="#FFD1EE"/>
<path d="M601.083 291.18L658.329 324.234L715.576 291.18L658.329 258.125L601.083 291.18Z" fill="#FFD1EE"/>
<path d="M715.576 291.18L772.823 324.234L830.07 291.18L772.823 258.125L715.576 291.18Z" fill="#FFD1EE"/>
<path d="M143.089 357.289L200.336 390.344L257.574 357.289L200.336 324.235L143.089 357.289Z" fill="#FFD1EE"/>
<path d="M257.602 357.289L314.848 390.344L372.095 357.289L314.848 324.235L257.602 357.289Z" fill="#FFD1EE"/>
<path d="M372.095 357.289L429.342 390.344L486.589 357.289L429.342 324.235L372.095 357.289Z" fill="#FFD1EE"/>
<path d="M486.589 357.289L543.836 390.344L601.083 357.289L543.836 324.235L486.589 357.289Z" fill="#FFD1EE"/>
<path d="M601.083 357.289L658.329 390.344L715.576 357.289L658.329 324.235L601.083 357.289Z" fill="#FFD1EE"/>
<path d="M715.576 357.289L772.823 390.344L830.07 357.289L772.823 324.235L715.576 357.289Z" fill="#FFD1EE"/>
<path d="M257.602 423.398L314.848 456.452L372.095 423.398L314.848 390.343L257.602 423.398Z" fill="#FFD1EE"/>
<path d="M486.589 423.398L543.836 456.452L601.083 423.398L543.836 390.343L486.589 423.398Z" fill="#FFD1EE"/>
<path d="M601.083 423.398L658.329 456.452L715.576 423.398L658.329 390.343L601.083 423.398Z" fill="#FFD1EE"/>
<path d="M715.576 423.398L772.823 456.452L830.07 423.398L772.823 390.343L715.576 423.398Z" fill="#FFD1EE"/>
<path d="M830.07 423.398L887.308 456.452L944.555 423.398L887.308 390.343L830.07 423.398Z" fill="#FFD1EE"/>
<path d="M143.117 489.506L200.364 522.561L257.601 489.506L200.364 456.452L143.117 489.506Z" fill="#FFD1EE"/>
<path d="M257.602 489.506L314.848 522.561L372.095 489.506L314.848 456.452L257.602 489.506Z" fill="#FFD1EE"/>
<path d="M372.095 489.506L429.342 522.561L486.589 489.506L429.342 456.452L372.095 489.506Z" fill="#FFD1EE"/>
<path d="M601.083 489.506L658.329 522.561L715.576 489.506L658.329 456.452L601.083 489.506Z" fill="#FFD1EE"/>
<path d="M830.07 489.506L887.308 522.561L944.555 489.506L887.308 456.452L830.07 489.506Z" fill="#FFD1EE"/>
<path d="M486.589 555.615L543.836 588.66L601.083 555.615L543.836 522.561L486.589 555.615Z" fill="#FFD1EE"/>
<path d="M601.083 555.615L658.329 588.66L715.576 555.615L658.329 522.561L601.083 555.615Z" fill="#FFD1EE"/>
<path d="M715.576 555.615L772.823 588.66L830.07 555.615L772.823 522.561L715.576 555.615Z" fill="#FFD1EE"/>
<path d="M372.095 621.715L429.342 654.769L486.589 621.715L429.342 588.66L372.095 621.715Z" fill="#FFD1EE"/>
<path d="M486.589 621.715L543.836 654.769L601.083 621.715L543.836 588.66L486.589 621.715Z" fill="#FFD1EE"/>
<path d="M486.589 687.824L543.836 720.878L601.083 687.824L543.836 654.769L486.589 687.824Z" fill="#FFD1EE"/>
<path d="M601.083 621.715L629.706 638.247L658.329 621.715L629.706 605.192L601.083 621.715Z" fill="#FFD1EE"/>
<path d="M658.33 621.715L686.953 638.247L715.576 621.715L686.953 605.192L658.33 621.715Z" fill="#FFD1EE"/>
<path d="M400.719 572.138L429.342 588.661L457.966 572.138L429.342 555.616L400.719 572.138Z" fill="#FFD1EE"/>
<path d="M400.69 539.037L429.314 555.559L457.937 539.037L429.314 522.505L400.69 539.037Z" fill="#FFD1EE"/>
<path d="M744.2 506.029L772.824 522.561L801.447 506.029L772.824 489.506L744.2 506.029Z" fill="#FFD1EE"/>
<path d="M944.554 423.397L973.178 439.92L1001.8 423.397L973.178 406.865L944.554 423.397Z" fill="#FFD1EE"/>
<path d="M944.554 456.452L973.178 472.975L1001.8 456.452L973.178 439.92L944.554 456.452Z" fill="#FFD1EE"/>
<path d="M1001.8 423.397L1030.42 439.92L1059.05 423.397L1030.42 406.865L1001.8 423.397Z" fill="#FFD1EE"/>
<path d="M944.554 390.343L973.178 406.866L1001.8 390.343L973.178 373.811L944.554 390.343Z" fill="#FFD1EE"/>
<path d="M744.218 473.022L772.842 489.554L801.465 473.022L772.842 456.499L744.218 473.022Z" fill="#FFD1EE"/>
<path d="M286.225 539.037L314.849 555.559L343.472 539.037L314.849 522.505L286.225 539.037Z" fill="#FFD1EE"/>
<path d="M343.472 539.037L372.095 555.56L400.718 539.037L372.095 522.505L343.472 539.037Z" fill="#FFD1EE"/>
<path d="M171.741 439.92L200.364 456.452L228.988 439.92L200.364 423.398L171.741 439.92Z" fill="#FFD1EE"/>
<path d="M171.712 406.819L200.336 423.351L228.95 406.819L200.336 390.296L171.712 406.819Z" fill="#FFD1EE"/>
<path d="M56.7402 439.92L85.3636 456.452L113.978 439.92L85.3636 423.398L56.7402 439.92Z" fill="#FFD1EE"/>
<path d="M0 406.866L28.6234 423.398L57.2468 406.866L28.6234 390.343L0 406.866Z" fill="#FFD1EE"/>
<path d="M57.2471 406.866L85.8705 423.398L114.494 406.866L85.8705 390.343L57.2471 406.866Z" fill="#FFD1EE"/>
<path d="M286.225 572.091L314.849 588.613L343.472 572.091L314.849 555.559L286.225 572.091Z" fill="#FFD1EE"/>
<path d="M543.836 544.856V478.747L887.308 280.421V346.53L543.836 544.856Z" fill="#FF77A3"/>
<path d="M543.836 544.856V478.747L200.364 280.421V346.53L543.836 544.856Z" fill="#D4719D"/>
<path d="M200.364 280.421L543.836 82.1035L887.308 280.421L543.836 478.748L200.364 280.421Z" fill="#FF7FD1"/>
<path d="M435.92 225.556C467.679 248.791 506.563 259.981 545.062 268.121C565.885 272.523 587.101 276.166 608.355 274.927C629.6 273.688 651.088 267.172 667.217 253.269C683.335 239.375 693.23 217.379 689.419 196.445C685.382 174.261 667.63 157.326 649.614 143.76C602.863 108.556 547.531 84.8142 489.806 75.1917C466.599 71.3239 442.041 69.8407 420.223 78.6558C400.237 86.7293 379.743 108.162 381.33 131.218C382.973 155.026 392.473 178.467 406.912 197.28C415.163 208.029 424.992 217.567 435.929 225.566L435.92 225.556Z" fill="#603FC9"/>
<path d="M539.533 8.93235C532.004 8.57561 524.316 8.93235 517.2 11.4295C510.084 13.9267 503.569 18.7989 500.349 25.6145C496.34 34.0917 498.002 44.4276 502.63 52.5856C507.258 60.7436 514.496 67.0804 521.94 72.7788C551.306 95.2814 586.172 110.537 622.625 116.826C627.704 117.699 632.998 118.394 637.955 116.977C648.113 114.057 654.036 102.566 653.36 92.0144C652.572 79.7446 645.897 71.2486 637.288 63.4943C627.872 55.0171 621.066 44.315 610.965 36.2696C590.716 20.1414 565.453 10.1715 539.543 8.93235H539.533Z" fill="#603FC9"/>
<path d="M728.388 296.462C730.199 301.954 731.41 308.572 727.73 313.031C725.261 316.026 721.074 317.19 717.197 316.852C713.32 316.514 709.696 314.871 706.26 313.069C687.644 303.324 671.986 288.022 661.809 269.641C657.772 262.347 654.646 253.137 658.908 245.974C667.038 232.324 688.602 240.041 697.971 248.368C712.043 260.863 722.53 278.738 728.378 296.462H728.388Z" fill="#603FC9"/>
<path d="M446.106 258.254C429.076 273.772 419.388 295.777 419.811 317.932C419.895 322.307 420.393 326.794 422.467 330.774C424.542 334.755 428.457 338.191 433.207 338.923C440.501 340.05 446.857 334.867 451.72 329.901C471.209 310.018 486.99 287.112 498.208 262.403C497.673 263.576 508.112 263.304 508.948 263.098C512.6 262.187 515.932 260.141 517.97 257.221C521.621 251.992 520.974 243.139 515.961 238.53C505.531 228.945 482.221 237.572 471.603 242.069C462.15 246.068 453.457 251.532 446.106 258.235V258.254Z" fill="#6C50FF"/>
<path d="M382.616 202.012C362.864 208.912 347.309 224.57 335.442 241.797C330.636 248.782 326.167 257.634 329.584 265.398C333.509 274.326 345.45 276.278 355.063 274.636C378.814 270.589 399.242 251.326 404.696 227.856C409.287 231.104 413.981 234.399 419.36 236.042C436.033 241.13 448.904 222.608 435.732 210.273C422.092 197.496 399.514 196.107 382.616 202.012Z" fill="#6C50FF"/>
<path d="M571.527 255.447C571.611 255.353 571.705 255.268 571.79 255.175C576.897 250.124 585.759 249.617 591.551 253.86C597.813 258.451 597.024 264.328 597.991 271.049C598.836 276.879 602.385 282.052 604.131 287.638C610.58 308.234 608.515 331.366 598.517 350.498C594.283 358.6 587.308 366.73 578.173 366.767C572.419 366.796 567.021 363.407 563.5 358.844C559.97 354.291 558.084 348.687 556.788 343.073C553.333 328.118 553.897 312.299 558.084 297.551C560.355 289.553 565.96 282.221 567.828 274.363C569.452 267.52 565.885 261.305 571.518 255.437L571.527 255.447Z" fill="#6C50FF"/>
<mask id="mask0_42_17616" style="mask-type:luminance" maskUnits="userSpaceOnUse" x="362" y="6" width="253" height="210">
<path d="M529.61 212.61C490.867 220.937 448.546 213.708 416.102 190.952C383.658 168.196 362.169 129.716 362.179 90.0897C362.179 78.7399 363.915 67.2117 368.882 57.0071C377.706 38.8605 395.693 26.8347 414.309 19.071C444.35 6.53826 478.071 3.01784 510.046 9.0542C542.021 15.0906 572.137 30.6837 595.541 53.2989C602.882 60.3961 609.754 68.479 612.702 78.2517C617.255 93.3285 611.753 109.466 605.595 123.961C596.648 145.008 585.787 164.817 574.39 184.606C569.837 192.52 567.997 197.017 559.585 201.776C550.301 207.024 540.012 210.376 529.62 212.61H529.61Z" fill="white"/>
</mask>
<g mask="url(#mask0_42_17616)">
<path d="M529.61 212.61C490.867 220.937 448.546 213.708 416.102 190.952C383.658 168.196 362.169 129.716 362.179 90.0897C362.179 78.7399 363.915 67.2117 368.882 57.0071C377.706 38.8605 395.693 26.8347 414.309 19.071C444.35 6.53826 478.071 3.01784 510.046 9.0542C542.021 15.0906 572.137 30.6837 595.541 53.2989C602.882 60.3961 609.754 68.479 612.702 78.2517C617.255 93.3285 611.753 109.466 605.595 123.961C596.648 145.008 585.787 164.817 574.39 184.606C569.837 192.52 567.997 197.017 559.585 201.776C550.301 207.024 540.012 210.376 529.62 212.61H529.61Z" fill="#6C50FF"/>
<path d="M446.941 209.381C453.701 193.196 460.507 176.852 463.576 159.588C466.646 142.324 465.717 123.811 457.578 108.283C449.439 92.7467 433.198 80.8523 415.661 81.0213C403.41 81.134 391.15 86.8511 379.246 83.9503C369.135 81.4813 360.996 72.3845 359.672 62.0579C358.349 51.7314 362.273 37.7341 371.435 32.7961C368.872 40.1656 367.258 48.1734 369.107 55.7587C370.956 63.3347 377.002 70.291 384.747 71.2204C394.126 72.347 402.068 64.9963 410.451 60.6404C428.325 51.3277 451.166 55.8432 467.341 67.869C483.516 79.8948 493.927 98.2104 501.1 117.042C513.538 149.712 517.5 185.564 512.515 220.158" fill="#8B7DFF"/>
<path d="M374.205 22.7414C432.878 -0.756231 498.049 6.89482 553.211 43.7513C563.801 50.8297 574.174 59.0816 582.464 70.5629C590.753 82.0442 596.846 97.1304 597.4 113.193C597.963 129.255 592.64 139.836 582.257 147.299C563.923 99.1112 533.15 59.889 496.706 38.2595C460.263 16.63 418.412 12.7434 380.335 27.4447" fill="#8B7DFF"/>
<path d="M632.125 48.0415C592.011 72.1212 563.519 114.686 556.544 160.949Z" fill="#603FC9"/>
<path d="M556.553 175.03C555.849 175.03 555.145 174.974 554.432 174.871C546.743 173.707 541.449 166.534 542.613 158.846C550.245 108.246 580.999 62.3111 624.869 35.9689C631.543 31.9603 640.189 34.1289 644.189 40.7942C648.188 47.4595 646.029 56.1151 639.363 60.1143C602.61 82.185 576.85 120.666 570.457 163.052C569.405 170.027 563.397 175.03 556.553 175.03Z" fill="#603FC9"/>
</g>
<path d="M569.95 203.279C562.627 160.339 581.037 115.944 610.233 83.6217C639.429 51.2995 678.36 29.4259 717.977 11.3168C732.152 4.82981 747.313 -1.37553 762.822 0.267333C766.549 5.09267 765.986 12.7343 762.878 17.9727C759.771 23.2111 754.842 27.0695 750.261 31.0875C729.899 48.9431 714.137 73.6331 712.635 100.67C711.63 122.928 721.319 145.985 739.953 158.696C747.107 163.578 755.791 166.845 764.531 166.694C771.205 166.582 779.288 164.629 783.241 158.752C784.32 157.147 784.949 155.147 784.583 153.242C784.085 150.651 781.983 149.055 780.377 147.149C778.537 144.962 776.923 142.586 775.552 140.08C771.534 132.757 765.056 114.874 777.42 111.625C783.147 110.123 789.972 112.959 794.393 116.535C800.054 121.117 805.696 127.566 812.944 126.796C817.29 126.327 820.839 123.276 824.387 120.713C827.936 118.15 832.386 115.897 836.535 117.296C840.093 118.488 842.356 122.159 842.966 125.857C843.585 129.556 842.853 133.339 842.121 137.02C840.065 147.374 838.009 157.738 835.962 168.093C828.997 203.241 800.448 235.92 767.497 249.983C750.637 257.183 732.312 260.131 714.165 262.722C684.96 266.9 654.825 270.261 626.258 262.91C597.691 255.559 574.916 232.371 569.959 203.288L569.95 203.279Z" fill="#6C50FF"/>
<path d="M658.083 251.4C676.525 251.4 691.475 236.45 691.475 218.008C691.475 199.566 676.525 184.615 658.083 184.615C639.641 184.615 624.69 199.566 624.69 218.008C624.69 236.45 639.641 251.4 658.083 251.4Z" fill="#DBFF00"/>
<path d="M677.328 216.459C668.137 216.018 661.012 208.188 661.453 198.997C661.519 197.636 660.467 196.481 659.106 196.416C659.022 196.416 658.928 196.416 658.843 196.416C657.604 196.491 656.581 197.486 656.524 198.763C656.121 207.324 649.362 214.149 640.819 214.628C640.237 214.666 639.655 214.666 639.054 214.628C638.969 214.628 638.875 214.628 638.791 214.628C637.552 214.703 636.528 215.698 636.472 216.975C636.406 218.336 637.458 219.491 638.819 219.557C643.269 219.773 647.371 221.707 650.376 225.002C653.37 228.297 654.91 232.568 654.694 237.018C654.628 238.379 655.68 239.534 657.041 239.6C657.125 239.6 657.219 239.6 657.304 239.6C658.543 239.525 659.566 238.529 659.623 237.253C660.026 228.691 666.785 221.866 675.328 221.387C675.91 221.35 676.492 221.35 677.093 221.387C677.178 221.387 677.272 221.387 677.356 221.387C678.595 221.312 679.619 220.317 679.675 219.04C679.741 217.679 678.689 216.524 677.328 216.459Z" fill="white"/>
<path d="M443.355 85.4617C429.048 84.7857 417.961 72.591 418.647 58.2746C418.75 56.1623 417.116 54.3599 414.995 54.2566C414.863 54.2566 414.722 54.2566 414.591 54.2566C412.657 54.3692 411.071 55.9276 410.977 57.8991C410.338 71.2297 399.833 81.8474 386.531 82.5984C385.63 82.6453 384.71 82.6547 383.79 82.6078C383.658 82.6078 383.517 82.6078 383.386 82.6078C381.452 82.7204 379.866 84.2788 379.772 86.2502C379.668 88.3625 381.302 90.1649 383.424 90.2682C390.352 90.5968 396.735 93.6103 401.411 98.7454C406.076 103.881 408.47 110.527 408.132 117.455C408.029 119.568 409.662 121.37 411.784 121.473C411.916 121.473 412.056 121.473 412.188 121.473C414.122 121.361 415.708 119.802 415.802 117.831C416.44 104.51 426.945 93.8919 440.248 93.1315C441.149 93.0846 442.069 93.0752 442.989 93.1221C443.121 93.1221 443.261 93.1221 443.393 93.1221C445.327 93.0095 446.913 91.4511 447.007 89.4796C447.11 87.3674 445.477 85.5649 443.355 85.4617Z" fill="white"/>
<path d="M476.128 56.8196C468.261 56.4441 462.159 49.7318 462.534 41.8648C462.591 40.7007 461.69 39.715 460.525 39.6587C460.45 39.6587 460.375 39.6587 460.3 39.6587C459.239 39.715 458.366 40.5787 458.31 41.6677C457.963 48.9996 452.18 54.8388 444.867 55.2518C444.369 55.28 443.862 55.28 443.355 55.2518C443.28 55.2518 443.205 55.2518 443.13 55.2518C442.069 55.3082 441.196 56.1718 441.14 57.2608C441.083 58.4249 441.985 59.4106 443.149 59.467C446.96 59.6453 450.471 61.307 453.043 64.1327C455.616 66.9584 456.921 70.6103 456.742 74.4217C456.686 75.5858 457.587 76.5715 458.751 76.6279C458.826 76.6279 458.901 76.6279 458.977 76.6279C460.037 76.5715 460.91 75.7079 460.967 74.6189C461.314 67.287 467.097 61.4478 474.41 61.0347C474.908 61.0066 475.415 61.0066 475.921 61.0347C475.997 61.0347 476.072 61.0347 476.147 61.0347C477.208 60.9784 478.081 60.1147 478.137 59.0257C478.193 57.8617 477.292 56.8759 476.128 56.8196Z" fill="white"/>
</svg>
