<svg width="246" height="324" viewBox="0 0 246 324" fill="none" xmlns="http://www.w3.org/2000/svg">
<path d="M17.5298 323.839L245.373 192.275V10.1228L17.5298 141.678V323.839Z" fill="#DBFF00"/>
<path d="M17.5297 323.838L0 313.715V131.563L17.5297 141.678V323.838Z" fill="#F1FF99"/>
<path d="M0 131.563L227.852 0L245.373 10.1229L17.5297 141.678L0 131.563Z" fill="#F1FF99"/>
<path d="M245.373 192.275L17.5298 323.839V141.678L245.373 10.1228V192.275Z" fill="#DBFF00"/>
<path d="M94.7883 189.86C88.718 193.215 82.6304 197.362 76.6894 202.217C74.2579 204.2 71.7746 206.39 69.8 209.27C67.8341 212.15 66.4889 215.909 67.1184 218.324C67.8254 221.057 70.6709 221.221 73.3611 220.583C80.6645 218.858 88.9163 212.607 95.2108 204.01" fill="#F1FF9C"/>
<path d="M107.929 236.017C103.868 243.553 99.3323 250.9 94.4347 257.867C92.4343 260.712 90.2872 263.584 87.916 265.55C85.5448 267.516 82.8717 268.378 81.6646 266.86C80.3022 265.153 81.1818 261.152 82.4752 257.582C86.0018 247.891 92.5204 238.104 99.7375 231.654" fill="#F1FF9C"/>
<path d="M98.4181 178.556C94.5983 177.703 90.6232 176.728 88.5365 173.133C86.1998 169.106 86.7689 161.88 89.942 155.275C91.839 151.318 95.2104 147.213 98.0472 147.084C100.444 146.98 101.436 149.765 101.522 152.758C101.6 155.75 101.022 159.147 101.376 161.958C101.729 164.769 103.428 166.959 106.04 165.812" fill="#F1FF9C"/>
<path d="M168.399 147.36C174.469 143.704 180.557 140.824 186.498 138.806C188.929 137.978 191.413 137.297 193.387 137.909C195.353 138.522 196.698 140.729 196.069 143.859C195.362 147.403 192.517 150.852 189.826 153.335C182.523 160.052 174.271 163.32 167.977 161.992" fill="#F1FF9C"/>
<path d="M155.267 208.684C159.328 211.538 163.864 213.642 168.761 214.952C170.762 215.487 172.909 215.883 175.28 215.107C177.651 214.331 180.324 212.107 181.532 209.201C182.894 205.916 182.014 202.932 180.721 200.863C177.194 195.241 170.676 192.982 163.459 194.87" fill="#F1FF9C"/>
<path d="M164.778 140.238C168.597 134.969 172.572 129.408 174.659 123.398C176.996 116.672 176.427 110.11 173.254 107.161C171.357 105.394 167.985 105.187 165.148 108.325C162.751 110.981 161.76 114.922 161.674 118.008C161.596 121.095 162.174 123.82 161.82 127.036C161.466 130.253 159.768 134.4 157.155 136.28" fill="#F1FF9C"/>
<path d="M153.957 133.305C153.957 147.946 143.894 165.631 131.478 172.797C119.061 179.962 108.999 173.9 108.999 159.259C108.999 144.618 119.061 126.933 131.478 119.768C143.894 112.602 153.957 118.664 153.957 133.305Z" fill="#F1FF9C"/>
<mask id="mask0_42_17494" style="mask-type:luminance" maskUnits="userSpaceOnUse" x="108" y="116" width="46" height="60">
<path d="M153.957 133.305C153.957 147.946 143.894 165.631 131.478 172.797C119.061 179.962 108.999 173.9 108.999 159.259C108.999 144.618 119.061 126.933 131.478 119.768C143.894 112.602 153.957 118.664 153.957 133.305Z" fill="white"/>
</mask>
<g mask="url(#mask0_42_17494)">
<path d="M121.527 133.202C121.527 138.858 117.561 145.731 112.663 148.559C107.765 151.387 103.799 149.093 103.799 143.437C103.799 137.781 107.765 130.908 112.663 128.08C117.561 125.252 121.527 127.546 121.527 133.202Z" fill="#F1FF9C"/>
<path d="M159.173 111.473C159.173 117.129 155.207 124.001 150.309 126.83C145.412 129.658 141.445 127.364 141.445 121.708C141.445 116.051 145.412 109.179 150.309 106.351C155.207 103.523 159.173 105.816 159.173 111.473Z" fill="#F1FF9C"/>
</g>
<path d="M122.312 125.01C122.183 123.993 121.881 123.087 121.312 122.544C120.691 121.958 119.777 121.828 118.811 122.001C117.837 122.173 116.802 122.648 115.776 123.208C115.302 123.467 114.793 123.777 114.405 124.32C113.914 125.001 113.758 125.907 113.948 126.459C114.138 127.011 114.621 127.243 115.155 127.235C115.698 127.235 116.293 127.019 116.888 126.795C117.483 126.571 118.087 126.321 118.647 126.252C119.837 126.097 120.786 126.786 121.096 128.037C121.165 128.321 121.208 128.632 121.329 128.864C121.639 129.442 122.597 128.976 122.45 128.088C122.295 127.148 122.441 125.984 122.312 125.01Z" fill="#F1FF99"/>
<path d="M140.66 114.413C140.79 113.249 141.092 111.99 141.661 110.783C142.281 109.481 143.195 108.3 144.161 107.351C145.136 106.403 146.17 105.678 147.196 105.057C147.671 104.764 148.179 104.488 148.567 104.583C149.059 104.695 149.214 105.42 149.024 106.196C148.835 106.963 148.352 107.748 147.817 108.377C147.274 108.998 146.679 109.481 146.084 109.946C145.489 110.403 144.886 110.86 144.325 111.438C143.135 112.663 142.187 114.439 141.876 116.051C141.807 116.413 141.764 116.776 141.643 117.146C141.333 118.078 140.376 118.716 140.522 117.664C140.678 116.543 140.531 115.543 140.66 114.43V114.413Z" fill="#F1FF99"/>
<path d="M141.04 125.122C141.04 125.122 136.298 112.645 135.66 105.411C135.367 102.048 135.108 98.4441 136.522 94.4777C137.255 92.4341 138.384 90.4423 139.092 88.3988C139.807 86.3552 139.997 84.0788 138.91 83.3718C137.807 82.6561 135.824 83.9409 134.487 85.7257C133.996 86.3811 133.444 86.9674 132.883 87.4848C132.426 87.9073 131.952 88.2953 131.469 88.5626C130.952 88.804 130.434 88.9678 129.943 89.0713C129.426 89.1834 128.917 89.2179 128.46 89.1403C127.115 88.9075 125.132 89.9163 124.036 91.8995C122.95 93.8569 123.148 95.9177 123.855 97.1334C124.571 98.3492 125.701 99.039 126.425 100.238C127.839 102.566 127.58 106.472 127.287 110.171C126.649 118.138 121.907 136.056 121.907 136.056" fill="#F1FF99"/>
<path d="M177.427 164.476C177.427 194.371 156.888 230.465 131.546 245.097C106.205 259.73 85.6655 247.356 85.6655 217.462C85.6655 187.567 106.205 151.473 131.546 136.841C156.888 122.208 177.427 134.582 177.427 164.476Z" fill="#F1FF9C"/>
<mask id="mask1_42_17494" style="mask-type:luminance" maskUnits="userSpaceOnUse" x="85" y="130" width="93" height="122">
<path d="M177.427 164.476C177.427 194.371 156.888 230.465 131.546 245.097C106.205 259.73 85.6655 247.356 85.6655 217.462C85.6655 187.567 106.205 151.473 131.546 136.841C156.888 122.208 177.427 134.582 177.427 164.476Z" fill="white"/>
</mask>
<g mask="url(#mask1_42_17494)">
<path d="M210.815 145.196C210.815 167.373 195.242 194.344 176.04 205.442C156.828 216.53 141.265 207.545 141.265 185.36C141.265 163.182 156.837 136.211 176.04 125.114C195.251 114.025 210.815 123.01 210.815 145.196ZM176.031 140.617C164.235 147.429 154.681 163.984 154.681 177.599C154.681 191.214 164.244 196.733 176.031 189.93C187.827 183.118 197.381 166.562 197.381 152.947C197.381 139.332 187.818 133.814 176.031 140.617Z" fill="white"/>
<path d="M121.829 196.578C121.829 218.755 106.257 245.727 87.0542 256.824C67.843 267.913 52.2793 258.928 52.2793 236.742C52.2793 214.565 67.8517 187.593 87.0542 176.496C106.265 165.407 121.829 174.392 121.829 196.578ZM87.0455 191.999C75.2498 198.811 65.696 215.366 65.696 228.982C65.696 242.597 75.2585 248.115 87.0455 241.312C98.8412 234.5 108.395 217.945 108.395 204.33C108.395 190.714 98.8326 185.196 87.0455 191.999Z" fill="white"/>
</g>
<path d="M153.879 225.36C147.265 233.56 139.66 240.424 131.537 245.114C123.441 249.788 115.836 251.711 109.248 251.133C119.845 238.389 127.942 222.48 131.589 206.873C135.185 218.298 143.307 224.843 153.879 225.36Z" fill="white"/>
<path d="M109.24 156.552C115.827 148.369 123.433 141.505 131.529 136.832C139.652 132.141 147.257 130.218 153.87 130.779C143.299 143.54 135.177 159.432 131.581 175.013C127.934 163.614 119.837 157.06 109.24 156.552Z" fill="white"/>
<path d="M34.5941 301.377C32.9299 301.377 31.5762 300.023 31.5762 298.359V154.396C31.5762 152.732 32.9299 151.378 34.5941 151.378C36.2582 151.378 37.612 152.732 37.612 154.396V298.359C37.612 300.023 36.2582 301.377 34.5941 301.377Z" fill="#F1FF99"/>
<path d="M34.594 157.414C33.5507 157.414 32.5332 156.87 31.9813 155.905C31.1449 154.465 31.6451 152.62 33.085 151.783L51.4339 141.186C52.8739 140.358 54.7191 140.85 55.5555 142.29C56.3919 143.73 55.8918 145.575 54.4519 146.411L36.103 157.008C35.6287 157.284 35.1114 157.414 34.594 157.414Z" fill="#F1FF99"/>
<path d="M34.594 301.377C33.5507 301.377 32.5332 300.833 31.9813 299.868C31.1449 298.428 31.6451 296.582 33.085 295.746L51.4339 285.149C52.8739 284.321 54.7191 284.813 55.5555 286.253C56.3919 287.693 55.8918 289.538 54.4519 290.374L36.103 300.971C35.6287 301.247 35.1114 301.377 34.594 301.377Z" fill="#F1FF99"/>
<path d="M34.594 157.414C33.5507 157.414 32.5332 156.871 31.9813 155.905C31.1449 154.465 31.6451 152.62 33.085 151.783L42.2594 146.489C43.6994 145.653 45.5446 146.153 46.381 147.593C47.2174 149.033 46.7174 150.878 45.2774 151.714L36.103 157.009C35.6287 157.285 35.1114 157.414 34.594 157.414Z" fill="#F1FF99"/>
<path d="M34.594 186.205C33.5507 186.205 32.5332 185.661 31.9813 184.696C31.1449 183.256 31.6451 181.41 33.085 180.574L42.2594 175.28C43.6994 174.452 45.5446 174.943 46.381 176.383C47.2174 177.823 46.7174 179.669 45.2774 180.505L36.103 185.799C35.6287 186.075 35.1114 186.205 34.594 186.205Z" fill="#F1FF99"/>
<path d="M34.594 214.996C33.5507 214.996 32.5332 214.452 31.9813 213.487C31.1449 212.047 31.6451 210.201 33.085 209.365L42.2594 204.071C43.6994 203.243 45.5446 203.734 46.381 205.174C47.2174 206.614 46.7174 208.46 45.2774 209.296L36.103 214.59C35.6287 214.866 35.1114 214.996 34.594 214.996Z" fill="#F1FF99"/>
<path d="M34.594 243.795C33.5507 243.795 32.5332 243.252 31.9813 242.286C31.1449 240.846 31.6451 239.001 33.085 238.164L42.2594 232.87C43.6994 232.042 45.5446 232.534 46.381 233.974C47.2174 235.414 46.7174 237.259 45.2774 238.095L36.103 243.39C35.6287 243.666 35.1114 243.795 34.594 243.795Z" fill="#F1FF99"/>
<path d="M34.594 272.586C33.5507 272.586 32.5332 272.043 31.9813 271.077C31.1449 269.637 31.6451 267.792 33.085 266.955L42.2594 261.661C43.6994 260.825 45.5446 261.325 46.381 262.765C47.2174 264.205 46.7174 266.05 45.2774 266.886L36.103 272.181C35.6287 272.457 35.1114 272.586 34.594 272.586Z" fill="#F1FF99"/>
<path d="M34.594 301.377C33.5507 301.377 32.5332 300.834 31.9813 299.868C31.1449 298.428 31.6451 296.583 33.085 295.746L42.2594 290.452C43.6994 289.616 45.5446 290.116 46.381 291.556C47.2174 292.996 46.7174 294.841 45.2774 295.677L36.103 300.972C35.6287 301.248 35.1114 301.377 34.594 301.377Z" fill="#F1FF99"/>
<path d="M228.318 189.516C226.654 189.516 225.3 188.162 225.3 186.498V42.5352C225.3 40.8711 226.654 39.5173 228.318 39.5173C229.982 39.5173 231.336 40.8711 231.336 42.5352V186.498C231.336 188.162 229.982 189.516 228.318 189.516Z" fill="#F1FF99"/>
<path d="M209.977 56.1505C208.934 56.1505 207.916 55.6072 207.365 54.6415C206.528 53.2015 207.028 51.3563 208.468 50.5199L226.817 39.9227C228.257 39.0863 230.102 39.5865 230.939 41.0264C231.775 42.4664 231.275 44.3116 229.835 45.148L211.486 55.7452C211.012 56.0211 210.495 56.1505 209.977 56.1505Z" fill="#F1FF99"/>
<path d="M209.977 200.113C208.934 200.113 207.916 199.57 207.365 198.604C206.528 197.164 207.028 195.319 208.468 194.483L226.817 183.886C228.257 183.049 230.102 183.549 230.939 184.989C231.775 186.429 231.275 188.275 229.835 189.111L211.486 199.708C211.012 199.984 210.495 200.113 209.977 200.113Z" fill="#F1FF99"/>
<path d="M219.143 50.8561C218.1 50.8561 217.082 50.3129 216.531 49.3472C215.694 47.9072 216.194 46.062 217.634 45.2256L226.809 39.9313C228.249 39.0949 230.094 39.595 230.93 41.035C231.767 42.475 231.267 44.3202 229.827 45.1566L220.652 50.4509C220.178 50.7268 219.661 50.8561 219.143 50.8561Z" fill="#F1FF99"/>
<path d="M219.143 79.6469C218.1 79.6469 217.082 79.1037 216.531 78.1379C215.694 76.698 216.194 74.8527 217.634 74.0163L226.809 68.7221C228.249 67.8857 230.094 68.3858 230.93 69.8257C231.767 71.2657 231.267 73.111 229.827 73.9473L220.652 79.2416C220.178 79.5175 219.661 79.6469 219.143 79.6469Z" fill="#F1FF99"/>
<path d="M219.143 108.438C218.1 108.438 217.082 107.894 216.531 106.929C215.694 105.489 216.194 103.643 217.634 102.807L226.809 97.5128C228.249 96.6764 230.094 97.1765 230.93 98.6165C231.767 100.056 231.267 101.902 229.827 102.738L220.652 108.032C220.178 108.308 219.661 108.438 219.143 108.438Z" fill="#F1FF99"/>
<path d="M219.143 137.228C218.1 137.228 217.082 136.685 216.531 135.72C215.694 134.28 216.194 132.434 217.634 131.598L226.809 126.304C228.249 125.476 230.094 125.967 230.93 127.407C231.767 128.847 231.267 130.693 229.827 131.529L220.652 136.823C220.178 137.099 219.661 137.228 219.143 137.228Z" fill="#F1FF99"/>
<path d="M219.143 166.019C218.1 166.019 217.082 165.476 216.531 164.51C215.694 163.07 216.194 161.225 217.634 160.389L226.809 155.094C228.249 154.267 230.094 154.758 230.93 156.198C231.767 157.638 231.267 159.483 229.827 160.32L220.652 165.614C220.178 165.89 219.661 166.019 219.143 166.019Z" fill="#F1FF99"/>
<path d="M219.143 194.81C218.1 194.81 217.082 194.267 216.531 193.301C215.694 191.862 216.194 190.016 217.634 189.18L226.809 183.886C228.249 183.049 230.094 183.549 230.93 184.989C231.767 186.429 231.267 188.275 229.827 189.111L220.652 194.405C220.178 194.681 219.661 194.81 219.143 194.81Z" fill="#F1FF99"/>
</svg>
