<svg width="285" height="376" viewBox="0 0 285 376" fill="none" xmlns="http://www.w3.org/2000/svg">
<path d="M20.3301 375.57L284.57 222.99V11.7402L20.3301 164.31V375.57Z" fill="#DBFF00"/>
<path d="M20.33 375.57L0 363.83V152.58L20.33 164.31V375.57Z" fill="#F1FF99"/>
<path d="M0 152.58L264.25 0L284.57 11.74L20.33 164.31L0 152.58Z" fill="#F1FF99"/>
<path d="M284.57 222.99L20.3301 375.57V164.31L284.57 11.7402V222.99Z" fill="#DBFF00"/>
<path d="M40.11 179.061V346.021" stroke="#F1FF99" stroke-width="7" stroke-linecap="round" stroke-linejoin="round"/>
<path d="M40.11 179.06L61.39 166.771" stroke="#F1FF99" stroke-width="7" stroke-linecap="round" stroke-linejoin="round"/>
<path d="M40.11 346.02L61.39 333.73" stroke="#F1FF99" stroke-width="7" stroke-linecap="round" stroke-linejoin="round"/>
<path d="M40.11 179.061L50.75 172.921" stroke="#F1FF99" stroke-width="7" stroke-linecap="round" stroke-linejoin="round"/>
<path d="M40.11 212.451L50.75 206.311" stroke="#F1FF99" stroke-width="7" stroke-linecap="round" stroke-linejoin="round"/>
<path d="M40.11 245.841L50.75 239.701" stroke="#F1FF99" stroke-width="7" stroke-linecap="round" stroke-linejoin="round"/>
<path d="M40.11 279.241L50.75 273.091" stroke="#F1FF99" stroke-width="7" stroke-linecap="round" stroke-linejoin="round"/>
<path d="M40.11 312.63L50.75 306.48" stroke="#F1FF99" stroke-width="7" stroke-linecap="round" stroke-linejoin="round"/>
<path d="M40.11 346.021L50.75 339.881" stroke="#F1FF99" stroke-width="7" stroke-linecap="round" stroke-linejoin="round"/>
<path d="M264.79 49.3301V216.29" stroke="#F1FF99" stroke-width="7" stroke-linecap="round" stroke-linejoin="round"/>
<path d="M264.79 49.3301L243.51 61.6201" stroke="#F1FF99" stroke-width="7" stroke-linecap="round" stroke-linejoin="round"/>
<path d="M264.79 216.29L243.51 228.58" stroke="#F1FF99" stroke-width="7" stroke-linecap="round" stroke-linejoin="round"/>
<path d="M264.79 49.3301L254.15 55.4701" stroke="#F1FF99" stroke-width="7" stroke-linecap="round" stroke-linejoin="round"/>
<path d="M264.79 82.7197L254.15 88.8697" stroke="#F1FF99" stroke-width="7" stroke-linecap="round" stroke-linejoin="round"/>
<path d="M264.79 116.12L254.15 122.26" stroke="#F1FF99" stroke-width="7" stroke-linecap="round" stroke-linejoin="round"/>
<path d="M264.79 149.51L254.15 155.65" stroke="#F1FF99" stroke-width="7" stroke-linecap="round" stroke-linejoin="round"/>
<path d="M264.79 182.9L254.15 189.04" stroke="#F1FF99" stroke-width="7" stroke-linecap="round" stroke-linejoin="round"/>
<path d="M264.79 216.29L254.15 222.43" stroke="#F1FF99" stroke-width="7" stroke-linecap="round" stroke-linejoin="round"/>
</svg>
