<svg width="363" height="279" viewBox="0 0 363 279" fill="none" xmlns="http://www.w3.org/2000/svg">
<path d="M133.579 58.3975L9.85397e-05 135.528L133.579 212.648L267.149 135.528L133.579 58.3975Z" fill="#FF7FD1"/>
<path d="M267.149 135.527V157.56L133.579 234.681V212.648L267.149 135.527Z" fill="#D4719D"/>
<path d="M-1.90258e-05 135.527V157.56L133.579 234.681V212.648L-1.90258e-05 135.527Z" fill="#FF77A3"/>
<path d="M52.9851 85.9876C52.9851 90.8599 56.1863 95.7322 62.5794 99.431C75.3843 106.829 96.3473 106.829 109.143 99.431C115.545 95.7416 118.747 90.8693 118.747 85.9876C118.747 81.106 115.545 76.2431 109.143 72.5443C96.3473 65.1467 75.3843 65.1467 62.5794 72.5443C56.1863 76.2337 52.9851 81.106 52.9851 85.9876Z" fill="#64A7DE"/>
<path d="M52.9851 85.9876C52.9851 90.8599 56.1863 95.7322 62.5794 99.431C75.3843 106.829 96.3473 106.829 109.143 99.431C115.545 95.7416 118.747 90.8693 118.747 85.9876C118.747 81.106 115.545 76.2431 109.143 72.5443C96.3473 65.1467 75.3843 65.1467 62.5794 72.5443C56.1863 76.2337 52.9851 81.106 52.9851 85.9876Z" fill="#BABCBE"/>
<path d="M52.9845 89.6956C52.9845 94.5679 56.1857 99.4402 62.5788 103.139C68.1739 106.378 75.3368 108.199 82.6875 108.603C83.1569 108.631 83.6262 108.64 84.1049 108.65C85.2784 108.687 86.4613 108.687 87.6348 108.65C88.1042 108.65 88.583 108.621 89.0523 108.603C96.403 108.199 103.557 106.378 109.152 103.139C115.554 99.4402 118.755 94.5679 118.755 89.6956C118.755 89.076 118.709 88.4564 118.596 87.8368C117.892 83.6029 114.737 79.4817 109.152 76.2523C96.3561 68.8547 75.3931 68.8547 62.5882 76.2523C57.0118 79.4817 53.8575 83.6029 53.1534 87.8368C53.0407 88.4564 52.9939 89.076 52.9939 89.6956H52.9845Z" fill="white"/>
<path d="M58.0353 69.9152C73.3468 61.0719 98.3934 61.0719 113.705 69.9152C121.356 74.3369 125.177 80.1573 125.177 85.9871C125.177 91.8169 121.356 97.6374 113.705 102.05C106.861 106.011 98.0554 108.189 89.0431 108.602C88.5737 108.63 88.1043 108.64 87.6255 108.649C86.4521 108.687 85.2693 108.687 84.0958 108.649C83.6264 108.649 83.1476 108.621 82.6783 108.602C73.6753 108.189 64.8696 106.011 58.0165 102.05C50.356 97.6374 46.5352 91.8076 46.5352 85.9871C46.5352 80.1667 50.356 74.3369 58.0165 69.9152H58.0353ZM53.1441 87.8459C53.8482 92.0892 57.0026 96.2104 62.5789 99.4305C75.3839 106.828 96.3468 106.828 109.142 99.4305C114.728 96.2104 117.883 92.0892 118.587 87.8459C118.699 87.2263 118.746 86.6161 118.746 85.9871C118.746 81.1148 115.545 76.2426 109.142 72.5438C96.3468 65.1462 75.3839 65.1462 62.5789 72.5438C56.1858 76.2332 52.9846 81.1055 52.9846 85.9871C52.9846 86.6067 53.0315 87.2263 53.1441 87.8459Z" fill="#E6DFDF"/>
<path d="M46.5539 85.9873V143.037C46.5539 148.857 50.3748 154.687 58.0353 159.1C73.3468 167.943 98.3934 167.943 113.705 159.1C121.356 154.687 125.177 148.857 125.177 143.037V85.9873C125.177 91.8077 121.356 97.6376 113.705 102.05C106.861 106.011 98.0554 108.189 89.0431 108.602C88.5737 108.631 88.1043 108.64 87.6255 108.649C86.4521 108.687 85.2693 108.687 84.0958 108.649C83.6264 108.649 83.1476 108.621 82.6783 108.602C73.6753 108.189 64.8696 106.011 58.0165 102.05C50.356 97.6376 46.5352 91.8077 46.5352 85.9873H46.5539Z" fill="#DBD5D5"/>
<path d="M69.4979 126.834V149.533C84.0209 153.345 101.811 151.815 113.696 144.943C114.597 144.426 115.442 143.882 116.23 143.328V120.638C115.442 121.182 114.597 121.727 113.705 122.243C101.801 129.115 84.0209 130.645 69.4979 126.834Z" fill="#603FC9"/>
<path d="M203.462 82.9647C203.462 87.837 200.261 92.7092 193.868 96.408C181.063 103.806 160.1 103.806 147.304 96.408C140.902 92.7186 137.7 87.8463 137.7 82.9647C137.7 78.083 140.902 73.2201 147.304 69.5213C160.1 62.1237 181.063 62.1237 193.868 69.5213C200.261 73.2107 203.462 78.083 203.462 82.9647Z" fill="#64A7DE"/>
<path d="M203.462 82.9647C203.462 87.837 200.261 92.7092 193.868 96.408C181.063 103.806 160.1 103.806 147.304 96.408C140.902 92.7186 137.7 87.8463 137.7 82.9647C137.7 78.083 140.902 73.2201 147.304 69.5213C160.1 62.1237 181.063 62.1237 193.868 69.5213C200.261 73.2107 203.462 78.083 203.462 82.9647Z" fill="#BABCBE"/>
<path d="M203.462 86.6732C203.462 91.5455 200.261 96.4177 193.868 100.117C188.272 103.355 181.11 105.177 173.759 105.58C173.289 105.608 172.82 105.618 172.341 105.627C171.168 105.665 169.985 105.665 168.812 105.627C168.342 105.627 167.863 105.599 167.394 105.58C160.043 105.177 152.89 103.355 147.295 100.117C140.892 96.4177 137.691 91.5455 137.691 86.6732C137.691 86.0536 137.738 85.434 137.851 84.8144C138.555 80.5805 141.709 76.4592 147.295 73.2298C160.09 65.8322 181.053 65.8322 193.858 73.2298C199.435 76.4592 202.589 80.5805 203.293 84.8144C203.406 85.434 203.453 86.0536 203.453 86.6732H203.462Z" fill="white"/>
<path d="M198.411 66.8927C183.1 58.0494 158.053 58.0494 142.741 66.8927C135.09 71.3144 131.27 77.1348 131.27 82.9647C131.27 88.7945 135.09 94.615 142.741 99.0272C149.585 102.989 158.391 105.167 167.403 105.58C167.873 105.608 168.342 105.617 168.821 105.627C169.994 105.664 171.177 105.664 172.351 105.627C172.82 105.627 173.299 105.599 173.768 105.58C182.771 105.167 191.577 102.989 198.43 99.0272C206.09 94.615 209.911 88.7851 209.911 82.9647C209.911 77.1442 206.09 71.3144 198.43 66.8927H198.411ZM203.302 84.8235C202.598 89.0668 199.444 93.188 193.867 96.408C181.062 103.806 160.099 103.806 147.304 96.408C141.718 93.188 138.564 89.0668 137.86 84.8235C137.747 84.2039 137.7 83.5936 137.7 82.9647C137.7 78.0924 140.901 73.2201 147.304 69.5213C160.099 62.1237 181.062 62.1237 193.867 69.5213C200.261 73.2107 203.462 78.083 203.462 82.9647C203.462 83.5843 203.415 84.2039 203.302 84.8235Z" fill="#E6DFDF"/>
<path d="M209.902 82.9648V140.015C209.902 145.835 206.081 151.665 198.421 156.077C183.109 164.92 158.063 164.92 142.751 156.077C135.1 151.665 131.279 145.835 131.279 140.015V82.9648C131.279 88.7853 135.1 94.6152 142.751 99.0274C149.595 102.989 158.401 105.167 167.413 105.58C167.882 105.608 168.352 105.618 168.83 105.627C170.004 105.665 171.187 105.665 172.36 105.627C172.83 105.627 173.308 105.599 173.778 105.58C182.781 105.167 191.587 102.989 198.44 99.0274C206.1 94.6152 209.921 88.7853 209.921 82.9648H209.902Z" fill="#DBD5D5"/>
<path d="M186.949 123.802V146.502C172.426 150.313 154.636 148.783 142.751 141.911C141.85 141.395 141.005 140.85 140.216 140.296V117.606C141.005 118.15 141.85 118.695 142.742 119.211C154.645 126.083 172.426 127.613 186.949 123.802Z" fill="#DBFF00"/>
<path d="M92.301 22.7049C92.301 27.5772 95.5022 32.4495 101.895 36.1483C114.7 43.5459 135.663 43.5459 148.459 36.1483C154.861 32.4589 158.062 27.5866 158.062 22.7049C158.062 17.8233 154.861 12.9604 148.459 9.26157C135.663 1.86398 114.7 1.86398 101.895 9.26157C95.5022 12.951 92.301 17.8233 92.301 22.7049Z" fill="#64A7DE"/>
<path d="M92.301 22.7049C92.301 27.5772 95.5022 32.4495 101.895 36.1483C114.7 43.5459 135.663 43.5459 148.459 36.1483C154.861 32.4589 158.062 27.5866 158.062 22.7049C158.062 17.8233 154.861 12.9604 148.459 9.26157C135.663 1.86398 114.7 1.86398 101.895 9.26157C95.5022 12.951 92.301 17.8233 92.301 22.7049Z" fill="#BABCBE"/>
<path d="M92.3014 26.4124C92.3014 31.2847 95.5026 36.157 101.896 39.8558C107.491 43.0945 114.654 44.9158 122.004 45.3195C122.474 45.3476 122.943 45.357 123.422 45.3664C124.595 45.4039 125.778 45.4039 126.952 45.3664C127.421 45.3664 127.9 45.3382 128.369 45.3195C135.72 44.9158 142.873 43.0945 148.469 39.8558C154.871 36.157 158.072 31.2847 158.072 26.4124C158.072 25.7928 158.025 25.1732 157.913 24.5536C157.209 20.3197 154.054 16.1985 148.469 12.9691C135.673 5.5715 114.71 5.5715 101.905 12.9691C96.3287 16.1985 93.1744 20.3197 92.4703 24.5536C92.3576 25.1732 92.3108 25.7928 92.3108 26.4124H92.3014Z" fill="white"/>
<path d="M97.3522 6.63248C112.664 -2.21083 137.71 -2.21083 153.022 6.63248C160.673 11.0541 164.494 16.8746 164.494 22.7044C164.494 28.5342 160.673 34.3547 153.022 38.767C146.178 42.7286 137.372 44.9066 128.36 45.3196C127.891 45.3478 127.421 45.3572 126.942 45.3665C125.769 45.4041 124.586 45.4041 123.413 45.3665C122.943 45.3665 122.465 45.3384 121.995 45.3196C112.992 44.9066 104.186 42.7286 97.3334 38.767C89.6729 34.3547 85.8521 28.5248 85.8521 22.7044C85.8521 16.884 89.6729 11.0541 97.3334 6.63248H97.3522ZM92.461 24.5632C93.1651 28.8065 96.3195 32.9277 101.896 36.1477C114.701 43.5453 135.664 43.5453 148.459 36.1477C154.045 32.9277 157.199 28.8065 157.904 24.5632C158.016 23.9436 158.063 23.3334 158.063 22.7044C158.063 17.8321 154.862 12.9599 148.459 9.26106C135.664 1.86347 114.701 1.86347 101.896 9.26106C95.5027 12.9505 92.3015 17.8227 92.3015 22.7044C92.3015 23.324 92.3484 23.9436 92.461 24.5632Z" fill="#E6DFDF"/>
<path d="M85.861 22.7046V79.7543C85.861 85.5747 89.6818 91.4045 97.3423 95.8168C112.654 104.66 137.7 104.66 153.012 95.8168C160.663 91.4045 164.484 85.5747 164.484 79.7543V22.7046C164.484 28.525 160.663 34.3549 153.012 38.7671C146.168 42.7288 137.362 44.9067 128.35 45.3198C127.881 45.348 127.411 45.3574 126.933 45.3667C125.759 45.4043 124.576 45.4043 123.403 45.3667C122.933 45.3667 122.455 45.3386 121.985 45.3198C112.982 44.9067 104.177 42.7288 97.3235 38.7671C89.663 34.3549 85.8422 28.525 85.8422 22.7046H85.861Z" fill="#DBD5D5"/>
<path d="M133.335 65.0902V87.7994C140.564 86.9263 147.435 84.8798 153.012 81.6597C160.672 77.2381 164.502 71.4177 164.502 65.5878V42.8975C164.502 46.8216 162.756 50.7457 159.283 54.2473C157.593 55.9371 155.509 57.5236 153.012 58.96C147.435 62.18 140.564 64.2266 133.335 65.0902Z" fill="#8B7DFF"/>
<path d="M286.225 168.544L209.893 212.611L286.225 256.687L362.548 212.611L286.225 168.544Z" fill="#FF7FD1"/>
<path d="M362.548 212.611V234.522L286.225 278.598V256.687L362.548 212.611Z" fill="#D4719D"/>
<path d="M209.893 212.611V234.644L286.225 278.598V256.687L209.893 212.611Z" fill="#FF77A3"/>
<path d="M253.978 107.149V210.772C253.978 215.541 257.123 220.319 263.394 223.943C275.936 231.199 296.477 231.199 309.038 223.943C315.309 220.319 318.454 215.541 318.454 210.772V107.149C318.454 111.918 315.309 116.696 309.038 120.32C296.477 127.577 275.936 127.577 263.394 120.32C257.123 116.696 253.978 111.918 253.978 107.149Z" fill="#7F6DE5"/>
<path d="M261.432 136.767V174.675C270.501 179.913 283.747 181.368 295.134 179.021V141.123C283.747 143.47 270.501 142.014 261.432 136.767Z" fill="#ABA0E5"/>
<path d="M253.978 107.148C253.978 111.917 257.123 116.696 263.394 120.319C275.936 127.576 296.477 127.576 309.038 120.319C315.309 116.696 318.454 111.917 318.454 107.148C318.454 102.379 315.309 97.5822 309.038 93.9772C296.477 86.7205 275.936 86.7205 263.394 93.9772C257.123 97.5822 253.978 102.379 253.978 107.148Z" fill="#ABA0E5"/>
<path d="M260.042 106.942C260.042 110.838 262.596 114.687 267.694 117.625C277.861 123.511 294.552 123.511 304.757 117.625C309.817 114.687 312.37 110.838 312.37 106.942C312.37 95.6109 300.645 86.439 286.206 86.439C271.768 86.439 260.033 95.6109 260.033 106.942H260.042Z" fill="white"/>
<path d="M277.288 85.7441V93.0854C277.288 94.4091 278.161 95.7234 279.898 96.7279C283.371 98.7369 289.051 98.7369 292.534 96.7279C294.27 95.7234 295.144 94.3997 295.144 93.0854V85.7441C295.144 87.0678 294.27 88.3821 292.534 89.3866C289.06 91.3956 283.371 91.3956 279.898 89.3866C278.161 88.3821 277.288 87.0584 277.288 85.7441Z" fill="#7F6DE5"/>
<path d="M277.288 85.7439C277.288 87.0676 278.161 88.3819 279.898 89.3864C283.371 91.3954 289.051 91.3954 292.534 89.3864C294.27 88.3819 295.144 87.0582 295.144 85.7439C295.144 84.4296 294.27 83.0966 292.534 82.1015C289.06 80.0925 283.371 80.0925 279.898 82.1015C278.161 83.0966 277.288 84.4296 277.288 85.7439Z" fill="#ABA0E5"/>
<path d="M278.649 92.2123C278.649 91.6866 278.837 91.3111 279.138 91.1421C279.438 90.9731 279.851 90.9919 280.311 91.2548C281.222 91.7805 281.973 93.076 281.973 94.1274C281.973 94.6531 281.785 95.0287 281.484 95.1976C281.184 95.3666 280.771 95.3479 280.311 95.085C279.4 94.5593 278.649 93.2638 278.649 92.2123Z" fill="#ABA0E5"/>
</svg>
