<svg width="387" height="297" viewBox="0 0 387 297" fill="none" xmlns="http://www.w3.org/2000/svg">
<path d="M142.29 62.2051L0 144.365L142.29 233.5L284.57 144.365L142.29 62.2051Z" fill="#FF7FD1"/>
<path d="M284.57 144.365V167.835L142.29 249.985V226.515L284.57 144.365Z" fill="#D4719D"/>
<path d="M0.00012207 144.365V167.835L142.29 249.985V226.515L0.00012207 144.365Z" fill="#FF77A3"/>
<path d="M56.4501 91.5952C56.4501 96.7852 59.8602 101.975 66.6702 105.915C80.3102 113.795 102.64 113.795 116.27 105.915C123.09 101.985 126.5 96.7952 126.5 91.5952C126.5 86.3952 123.09 81.2152 116.27 77.2752C102.64 69.3952 80.3102 69.3952 66.6702 77.2752C59.8602 81.2052 56.4501 86.3952 56.4501 91.5952Z" fill="#64A7DE"/>
<path d="M56.4501 91.5952C56.4501 96.7852 59.8602 101.975 66.6702 105.915C80.3102 113.795 102.64 113.795 116.27 105.915C123.09 101.985 126.5 96.7952 126.5 91.5952C126.5 86.3952 123.09 81.2152 116.27 77.2752C102.64 69.3952 80.3102 69.3952 66.6702 77.2752C59.8602 81.2052 56.4501 86.3952 56.4501 91.5952Z" fill="#BABCBE"/>
<path d="M56.4498 95.5445C56.4498 100.734 59.8599 105.924 66.6699 109.864C72.6299 113.314 80.2598 115.254 88.0898 115.684C88.5898 115.714 89.0899 115.724 89.5999 115.734C90.8499 115.774 92.1099 115.774 93.3599 115.734C93.8599 115.734 94.3699 115.704 94.8699 115.684C102.7 115.254 110.32 113.314 116.28 109.864C123.1 105.924 126.51 100.734 126.51 95.5445C126.51 94.8845 126.46 94.2244 126.34 93.5644C125.59 89.0544 122.23 84.6645 116.28 81.2245C102.65 73.3445 80.3198 73.3445 66.6798 81.2245C60.7398 84.6645 57.3799 89.0544 56.6299 93.5644C56.5099 94.2244 56.4598 94.8845 56.4598 95.5445H56.4498Z" fill="white"/>
<path d="M61.8199 74.4752C78.1299 65.0552 104.81 65.0552 121.12 74.4752C129.27 79.1852 133.34 85.3852 133.34 91.5952C133.34 97.8052 129.27 104.005 121.12 108.705C113.83 112.925 104.45 115.245 94.85 115.685C94.35 115.715 93.85 115.725 93.34 115.735C92.09 115.775 90.83 115.775 89.58 115.735C89.08 115.735 88.5699 115.705 88.0699 115.685C78.4799 115.245 69.1 112.925 61.8 108.705C53.64 104.005 49.5699 97.7952 49.5699 91.5952C49.5699 85.3952 53.64 79.1852 61.8 74.4752H61.8199ZM56.61 93.5751C57.36 98.0951 60.72 102.485 66.66 105.915C80.3 113.795 102.63 113.795 116.26 105.915C122.21 102.485 125.57 98.0951 126.32 93.5751C126.44 92.9151 126.49 92.2652 126.49 91.5952C126.49 86.4052 123.08 81.2151 116.26 77.2751C102.63 69.3951 80.3 69.3951 66.66 77.2751C59.85 81.2051 56.4399 86.3952 56.4399 91.5952C56.4399 92.2552 56.49 92.9151 56.61 93.5751Z" fill="#E6DFDF"/>
<path d="M49.59 91.5957V152.366C49.59 158.566 53.6599 164.776 61.8199 169.476C78.1299 178.896 104.81 178.896 121.12 169.476C129.27 164.776 133.34 158.566 133.34 152.366V91.5957C133.34 97.7957 129.27 104.006 121.12 108.706C113.83 112.926 104.45 115.246 94.85 115.686C94.35 115.716 93.85 115.726 93.34 115.736C92.09 115.776 90.83 115.776 89.58 115.736C89.08 115.736 88.5699 115.706 88.0699 115.686C78.4799 115.246 69.1 112.926 61.8 108.706C53.64 104.006 49.5699 97.7957 49.5699 91.5957H49.59Z" fill="#DBD5D5"/>
<path d="M74.03 135.106V159.286C89.5 163.346 108.45 161.716 121.11 154.396C122.07 153.846 122.97 153.266 123.81 152.676V128.506C122.97 129.086 122.07 129.666 121.12 130.216C108.44 137.536 89.5 139.166 74.03 135.106Z" fill="#603FC9"/>
<path d="M216.73 88.3745C216.73 93.5645 213.32 98.7545 206.51 102.695C192.87 110.575 170.54 110.575 156.91 102.695C150.09 98.7645 146.68 93.5745 146.68 88.3745C146.68 83.1745 150.09 77.9945 156.91 74.0545C170.54 66.1745 192.87 66.1745 206.51 74.0545C213.32 77.9845 216.73 83.1745 216.73 88.3745Z" fill="#64A7DE"/>
<path d="M216.73 88.3745C216.73 93.5645 213.32 98.7545 206.51 102.695C192.87 110.575 170.54 110.575 156.91 102.695C150.09 98.7645 146.68 93.5745 146.68 88.3745C146.68 83.1745 150.09 77.9945 156.91 74.0545C170.54 66.1745 192.87 66.1745 206.51 74.0545C213.32 77.9845 216.73 83.1745 216.73 88.3745Z" fill="#BABCBE"/>
<path d="M216.73 92.3238C216.73 97.5138 213.32 102.704 206.51 106.644C200.55 110.094 192.92 112.034 185.09 112.464C184.59 112.494 184.09 112.504 183.58 112.514C182.33 112.554 181.07 112.554 179.82 112.514C179.32 112.514 178.81 112.484 178.31 112.464C170.48 112.034 162.86 110.094 156.9 106.644C150.08 102.704 146.67 97.5138 146.67 92.3238C146.67 91.6638 146.72 91.0038 146.84 90.3438C147.59 85.8338 150.95 81.4437 156.9 78.0037C170.53 70.1237 192.86 70.1237 206.5 78.0037C212.44 81.4437 215.8 85.8338 216.55 90.3438C216.67 91.0038 216.72 91.6638 216.72 92.3238H216.73Z" fill="white"/>
<path d="M211.35 71.2545C195.04 61.8345 168.36 61.8345 152.05 71.2545C143.9 75.9645 139.83 82.1644 139.83 88.3744C139.83 94.5844 143.9 100.784 152.05 105.484C159.34 109.704 168.72 112.024 178.32 112.464C178.82 112.494 179.32 112.504 179.83 112.514C181.08 112.554 182.34 112.554 183.59 112.514C184.09 112.514 184.6 112.484 185.1 112.464C194.69 112.024 204.07 109.704 211.37 105.484C219.53 100.784 223.6 94.5744 223.6 88.3744C223.6 82.1744 219.53 75.9645 211.37 71.2545H211.35ZM216.56 90.3545C215.81 94.8745 212.45 99.2645 206.51 102.694C192.87 110.574 170.54 110.574 156.91 102.694C150.96 99.2645 147.6 94.8745 146.85 90.3545C146.73 89.6945 146.68 89.0444 146.68 88.3744C146.68 83.1844 150.09 77.9944 156.91 74.0544C170.54 66.1744 192.87 66.1744 206.51 74.0544C213.32 77.9844 216.73 83.1744 216.73 88.3744C216.73 89.0344 216.68 89.6945 216.56 90.3545Z" fill="#E6DFDF"/>
<path d="M223.59 88.375V149.145C223.59 155.345 219.52 161.555 211.36 166.255C195.05 175.675 168.37 175.675 152.06 166.255C143.91 161.555 139.84 155.345 139.84 149.145V88.375C139.84 94.575 143.91 100.785 152.06 105.485C159.35 109.705 168.73 112.025 178.33 112.465C178.83 112.495 179.33 112.505 179.84 112.515C181.09 112.555 182.35 112.555 183.6 112.515C184.1 112.515 184.61 112.485 185.11 112.465C194.7 112.025 204.08 109.705 211.38 105.485C219.54 100.785 223.61 94.575 223.61 88.375H223.59Z" fill="#DBD5D5"/>
<path d="M199.14 131.875V156.055C183.67 160.115 164.72 158.485 152.06 151.165C151.1 150.615 150.2 150.035 149.36 149.445V125.275C150.2 125.855 151.1 126.435 152.05 126.985C164.73 134.305 183.67 135.935 199.14 131.875Z" fill="#DBFF00"/>
<path d="M98.3202 24.1851C98.3202 29.3751 101.73 34.5651 108.54 38.5051C122.18 46.3851 144.51 46.3851 158.14 38.5051C164.96 34.5751 168.37 29.3851 168.37 24.1851C168.37 18.9851 164.96 13.8051 158.14 9.86508C144.51 1.98508 122.18 1.98508 108.54 9.86508C101.73 13.7951 98.3202 18.9851 98.3202 24.1851Z" fill="#64A7DE"/>
<path d="M98.3202 24.1851C98.3202 29.3751 101.73 34.5651 108.54 38.5051C122.18 46.3851 144.51 46.3851 158.14 38.5051C164.96 34.5751 168.37 29.3851 168.37 24.1851C168.37 18.9851 164.96 13.8051 158.14 9.86508C144.51 1.98508 122.18 1.98508 108.54 9.86508C101.73 13.7951 98.3202 18.9851 98.3202 24.1851Z" fill="#BABCBE"/>
<path d="M98.3199 28.1343C98.3199 33.3243 101.73 38.5143 108.54 42.4543C114.5 45.9043 122.13 47.8443 129.96 48.2743C130.46 48.3043 130.96 48.3143 131.47 48.3243C132.72 48.3643 133.98 48.3643 135.23 48.3243C135.73 48.3243 136.24 48.2943 136.74 48.2743C144.57 47.8443 152.19 45.9043 158.15 42.4543C164.97 38.5143 168.38 33.3243 168.38 28.1343C168.38 27.4743 168.33 26.8143 168.21 26.1543C167.46 21.6443 164.1 17.2543 158.15 13.8143C144.52 5.9343 122.19 5.9343 108.55 13.8143C102.61 17.2543 99.25 21.6443 98.5 26.1543C98.38 26.8143 98.33 27.4743 98.33 28.1343H98.3199Z" fill="white"/>
<path d="M103.7 7.065C120.01 -2.355 146.69 -2.355 163 7.065C171.15 11.775 175.22 17.975 175.22 24.185C175.22 30.395 171.15 36.595 163 41.295C155.71 45.515 146.33 47.835 136.73 48.275C136.23 48.305 135.73 48.315 135.22 48.325C133.97 48.365 132.71 48.365 131.46 48.325C130.96 48.325 130.45 48.295 129.95 48.275C120.36 47.835 110.98 45.515 103.68 41.295C95.5201 36.595 91.4501 30.385 91.4501 24.185C91.4501 17.985 95.5201 11.775 103.68 7.065H103.7ZM98.4901 26.165C99.2401 30.685 102.6 35.075 108.54 38.505C122.18 46.385 144.51 46.385 158.14 38.505C164.09 35.075 167.45 30.685 168.2 26.165C168.32 25.505 168.37 24.855 168.37 24.185C168.37 18.995 164.96 13.805 158.14 9.86499C144.51 1.98499 122.18 1.98499 108.54 9.86499C101.73 13.795 98.3201 18.985 98.3201 24.185C98.3201 24.845 98.3701 25.505 98.4901 26.165Z" fill="#E6DFDF"/>
<path d="M91.4601 24.1855V84.9555C91.4601 91.1555 95.5301 97.3655 103.69 102.066C120 111.486 146.68 111.486 162.99 102.066C171.14 97.3655 175.21 91.1555 175.21 84.9555V24.1855C175.21 30.3855 171.14 36.5956 162.99 41.2956C155.7 45.5156 146.32 47.8355 136.72 48.2755C136.22 48.3055 135.72 48.3155 135.21 48.3255C133.96 48.3655 132.7 48.3655 131.45 48.3255C130.95 48.3255 130.44 48.2955 129.94 48.2755C120.35 47.8355 110.97 45.5156 103.67 41.2956C95.5102 36.5956 91.4401 30.3855 91.4401 24.1855H91.4601Z" fill="#DBD5D5"/>
<path d="M142.03 69.3353V93.5253C149.73 92.5953 157.05 90.4154 162.99 86.9854C171.15 82.2754 175.23 76.0754 175.23 69.8654V45.6953C175.23 49.8753 173.37 54.0553 169.67 57.7853C167.87 59.5853 165.65 61.2753 162.99 62.8053C157.05 66.2353 149.73 68.4153 142.03 69.3353Z" fill="#8B7DFF"/>
<path d="M304.89 179.537L223.58 226.477L304.89 281.5L386.19 226.477L304.89 179.537Z" fill="#FF7FD1"/>
<path d="M386.19 226.477V249.817L304.89 296.767V273.427L386.19 226.477Z" fill="#D4719D"/>
<path d="M223.58 226.477V249.947L304.89 296.767V273.427L223.58 226.477Z" fill="#FF77A3"/>
<path d="M270.54 114.137V224.517C270.54 229.597 273.89 234.687 280.57 238.547C293.93 246.277 315.81 246.277 329.19 238.547C335.87 234.687 339.22 229.597 339.22 224.517V114.137C339.22 119.217 335.87 124.307 329.19 128.167C315.81 135.897 293.93 135.897 280.57 128.167C273.89 124.307 270.54 119.217 270.54 114.137Z" fill="#7F6DE5"/>
<path d="M278.48 145.688V186.068C288.14 191.648 302.25 193.198 314.38 190.698V150.328C302.25 152.828 288.14 151.278 278.48 145.688Z" fill="#ABA0E5"/>
<path d="M270.54 114.136C270.54 119.216 273.89 124.306 280.57 128.166C293.93 135.896 315.81 135.896 329.19 128.166C335.87 124.306 339.22 119.216 339.22 114.136C339.22 109.056 335.87 103.946 329.19 100.106C315.81 92.3761 293.93 92.3761 280.57 100.106C273.89 103.946 270.54 109.056 270.54 114.136Z" fill="#ABA0E5"/>
<path d="M277 113.916C277 118.066 279.72 122.166 285.15 125.296C295.98 131.566 313.76 131.566 324.63 125.296C330.02 122.166 332.74 118.066 332.74 113.916C332.74 101.846 320.25 92.0762 304.87 92.0762C289.49 92.0762 276.99 101.846 276.99 113.916H277Z" fill="white"/>
<path d="M295.37 91.3359V99.1559C295.37 100.566 296.3 101.966 298.15 103.036C301.85 105.176 307.9 105.176 311.61 103.036C313.46 101.966 314.39 100.556 314.39 99.1559V91.3359C314.39 92.7459 313.46 94.1459 311.61 95.2159C307.91 97.3559 301.85 97.3559 298.15 95.2159C296.3 94.1459 295.37 92.7359 295.37 91.3359Z" fill="#7F6DE5"/>
<path d="M295.37 91.3366C295.37 92.7466 296.3 94.1466 298.15 95.2166C301.85 97.3566 307.9 97.3566 311.61 95.2166C313.46 94.1466 314.39 92.7366 314.39 91.3366C314.39 89.9366 313.46 88.5166 311.61 87.4566C307.91 85.3166 301.85 85.3166 298.15 87.4566C296.3 88.5166 295.37 89.9366 295.37 91.3366Z" fill="#ABA0E5"/>
<path d="M296.82 98.2272C296.82 97.6672 297.02 97.2672 297.34 97.0872C297.66 96.9072 298.1 96.9272 298.59 97.2072C299.56 97.7672 300.36 99.1472 300.36 100.267C300.36 100.827 300.16 101.227 299.84 101.407C299.52 101.587 299.08 101.567 298.59 101.287C297.62 100.727 296.82 99.3472 296.82 98.2272Z" fill="#ABA0E5"/>
</svg>
