<svg width="285" height="376" viewBox="0 0 285 376" fill="none" xmlns="http://www.w3.org/2000/svg">
<path d="M264.24 375.57L0 222.99V11.7402L264.24 164.31V375.57Z" fill="#DBFF00"/>
<path d="M264.24 375.57L284.57 363.83V152.58L264.24 164.31V375.57Z" fill="#F1FF99"/>
<path d="M284.57 152.58L20.3199 0L0 11.74L264.24 164.31L284.57 152.58Z" fill="#F1FF99"/>
<path d="M64.9243 109.513C65.6075 111.273 63.6949 112.913 62.0596 111.968L34.7397 96.1917C34.3451 95.9639 34.0401 95.6081 33.8753 95.1834L25.4357 73.4366C24.7525 71.6761 26.665 70.0367 28.3003 70.981L55.6203 86.7576C56.0149 86.9854 56.3198 87.3412 56.4847 87.766L64.9243 109.513Z" fill="white"/>
<path d="M104.944 132.614C105.627 134.375 103.715 136.014 102.08 135.07L74.76 119.302C74.3652 119.074 74.0601 118.718 73.8952 118.293L65.4557 96.5469C64.7725 94.7865 66.6851 93.147 68.3204 94.0914L95.6405 109.868C96.035 110.096 96.3399 110.451 96.5047 110.876L104.944 132.614Z" fill="white"/>
<path d="M144.966 155.724C145.649 157.484 143.736 159.123 142.101 158.179L114.779 142.401C114.385 142.174 114.08 141.818 113.915 141.393L105.476 119.656C104.793 117.896 106.705 116.256 108.341 117.2L135.67 132.977C136.065 133.205 136.37 133.561 136.535 133.986L144.966 155.724Z" fill="white"/>
<path d="M184.987 178.835C185.669 180.595 183.757 182.234 182.122 181.29L154.799 165.512C154.405 165.284 154.1 164.928 153.935 164.504L145.495 142.764C144.812 141.004 146.724 139.365 148.359 140.308L175.689 156.078C176.085 156.305 176.39 156.662 176.555 157.087L184.987 178.835Z" fill="white"/>
<path d="M225.007 201.944C225.69 203.705 223.777 205.344 222.142 204.399L194.82 188.622C194.425 188.394 194.12 188.038 193.955 187.613L185.523 165.864C184.84 164.104 186.753 162.465 188.388 163.409L215.71 179.187C216.105 179.415 216.41 179.771 216.575 180.196L225.007 201.944Z" fill="white"/>
<path d="M64.9243 175.612C65.6075 177.373 63.6949 179.012 62.0596 178.068L34.7397 162.291C34.3451 162.063 34.0401 161.708 33.8753 161.283L25.4357 139.536C24.7525 137.776 26.665 136.136 28.3003 137.081L55.6203 152.857C56.0149 153.085 56.3198 153.441 56.4847 153.866L64.9243 175.612Z" fill="white"/>
<path d="M104.944 198.723C105.628 200.483 103.715 202.123 102.08 201.178L74.7597 185.402C74.3651 185.174 74.0602 184.818 73.8953 184.393L65.4557 162.647C64.7725 160.886 66.6851 159.247 68.3204 160.191L95.6404 175.968C96.0349 176.195 96.3399 176.551 96.5047 176.976L104.944 198.723Z" fill="white"/>
<path d="M144.966 221.823C145.649 223.584 143.736 225.223 142.101 224.279L114.779 208.501C114.385 208.273 114.08 207.918 113.915 207.493L105.476 185.756C104.793 183.995 106.705 182.356 108.341 183.3L135.67 199.077C136.065 199.305 136.37 199.661 136.535 200.086L144.966 221.823Z" fill="white"/>
<path d="M184.986 244.934C185.669 246.694 183.756 248.333 182.121 247.389L154.799 231.611C154.405 231.383 154.1 231.028 153.935 230.603L145.496 208.866C144.813 207.106 146.725 205.466 148.361 206.41L175.69 222.187C176.085 222.415 176.39 222.771 176.555 223.196L184.986 244.934Z" fill="#F1FF99"/>
<path d="M225.007 268.044C225.69 269.804 223.777 271.443 222.142 270.499L194.82 254.721C194.425 254.493 194.12 254.137 193.955 253.712L185.523 231.964C184.84 230.203 186.753 228.565 188.388 229.509L215.71 245.287C216.105 245.515 216.41 245.871 216.575 246.296L225.007 268.044Z" fill="#F1FF99"/>
<path d="M64.9233 241.701C65.6067 243.462 63.6941 245.101 62.0587 244.157L34.7395 228.381C34.345 228.153 34.0401 227.797 33.8753 227.373L25.4367 205.637C24.7532 203.876 26.6659 202.236 28.3013 203.181L55.6205 218.957C56.0149 219.185 56.3198 219.54 56.4847 219.965L64.9233 241.701Z" fill="white"/>
<path d="M104.944 264.812C105.628 266.572 103.715 268.211 102.08 267.267L74.7597 251.491C74.3651 251.263 74.0602 250.907 73.8953 250.482L65.4557 228.735C64.7725 226.975 66.6851 225.335 68.3204 226.28L95.6404 242.056C96.0349 242.284 96.3399 242.64 96.5047 243.065L104.944 264.812Z" fill="white"/>
<path d="M144.967 287.924C145.65 289.684 143.737 291.323 142.102 290.379L114.78 274.601C114.385 274.373 114.08 274.017 113.915 273.592L105.475 251.845C104.792 250.084 106.704 248.445 108.34 249.389L135.67 265.167C136.065 265.395 136.37 265.751 136.535 266.176L144.967 287.924Z" fill="white"/>
<path d="M184.987 311.034C185.669 312.795 183.757 314.433 182.122 313.489L154.8 297.711C154.405 297.483 154.1 297.128 153.935 296.703L145.495 274.955C144.812 273.195 146.724 271.555 148.36 272.499L175.69 288.277C176.085 288.505 176.39 288.861 176.555 289.286L184.987 311.034Z" fill="white"/>
<path d="M225.006 334.133C225.689 335.893 223.776 337.532 222.141 336.588L194.82 320.811C194.425 320.583 194.12 320.227 193.955 319.802L185.524 298.064C184.841 296.304 186.754 294.665 188.389 295.609L215.71 311.386C216.105 311.614 216.41 311.97 216.575 312.395L225.006 334.133Z" fill="#F1FF99"/>
</svg>
