<svg width="246" height="324" viewBox="0 0 246 324" fill="none" xmlns="http://www.w3.org/2000/svg">
<path d="M227.843 323.839L0 192.275V10.1228L227.843 141.678V323.839Z" fill="#DBFF00"/>
<path d="M227.844 323.838L245.373 313.715V131.563L227.844 141.678V323.838Z" fill="#F1FF99"/>
<path d="M245.373 131.563L17.5211 0L0 10.1229L227.843 141.678L245.373 131.563Z" fill="#F1FF99"/>
<path d="M57.7543 98.9958L29.429 82.6387L20.1597 58.7542L48.4936 75.1112L57.7543 98.9958Z" fill="white"/>
<path d="M92.2626 118.914L63.9373 102.565L54.668 78.6809L83.0018 95.038L92.2626 118.914Z" fill="white"/>
<path d="M126.77 138.841L98.4446 122.484L89.1753 98.6077L117.509 114.965L126.77 138.841Z" fill="white"/>
<path d="M161.277 158.768L132.952 142.411L123.691 118.535L152.017 134.883L161.277 158.768Z" fill="white"/>
<path d="M195.785 178.694L167.459 162.337L158.199 138.453L186.524 154.81L195.785 178.694Z" fill="#F1FF99"/>
<path d="M57.7543 153.818L29.429 137.461L20.1597 113.577L48.4936 129.934L57.7543 153.818Z" fill="white"/>
<path d="M92.2626 173.745L63.9373 157.388L54.668 133.504L83.0018 149.861L92.2626 173.745Z" fill="white"/>
<path d="M126.77 193.663L98.4446 177.306L89.1753 153.43L117.509 169.787L126.77 193.663Z" fill="#F1FF99"/>
<path d="M161.277 213.59L132.952 197.233L123.691 173.357L152.017 189.714L161.277 213.59Z" fill="#F1FF99"/>
<path d="M195.785 233.517L167.459 217.16L158.199 193.275L186.524 209.632L195.785 233.517Z" fill="#F1FF99"/>
<path d="M57.7543 206.476L29.429 190.119L20.1597 166.243L48.4936 182.6L57.7543 206.476Z" fill="white"/>
<path d="M92.2626 226.403L63.9373 210.046L54.668 186.161L83.0018 202.518L92.2626 226.403Z" fill="white"/>
<path d="M126.77 246.33L98.4446 229.972L89.1753 206.088L117.509 222.445L126.77 246.33Z" fill="white"/>
<path d="M161.277 266.256L132.952 249.899L123.691 226.015L152.017 242.372L161.277 266.256Z" fill="white"/>
<path d="M195.785 286.174L167.459 269.817L158.199 245.941L186.524 262.298L195.785 286.174Z" fill="white"/>
<path d="M34.775 51.3301C34.6457 52.3476 34.2835 53.0805 33.6713 53.5375C33.0591 53.9945 32.2486 54.1583 31.2398 54.0376C30.231 53.9083 29.0841 53.4685 27.7821 52.7184C26.3766 51.9078 25.1522 50.9421 24.1089 49.8212C23.0569 48.7002 22.2464 47.5017 21.6686 46.2342C21.0909 44.9667 20.7979 43.7078 20.7979 42.4661C20.7979 41.2245 21.0909 40.3018 21.6686 39.6983C22.2464 39.0947 23.0656 38.8446 24.1089 38.9309C25.1522 39.0171 26.3766 39.4655 27.7821 40.276C29.0841 41.0261 30.231 41.9143 31.2398 42.949C32.2486 43.9837 33.0591 45.0788 33.6713 46.2514C34.2835 47.4155 34.6543 48.5795 34.775 49.735L30.7052 47.3896C30.6104 46.924 30.4378 46.4756 30.1878 46.0359C29.9377 45.6047 29.6101 45.1909 29.2049 44.8028C28.7996 44.4148 28.3254 44.0699 27.7821 43.7509C27.1699 43.3974 26.6525 43.2077 26.2214 43.1732C25.7903 43.1387 25.4541 43.2594 25.2212 43.5353C24.9884 43.8112 24.8763 44.2337 24.8763 44.8115C24.8763 45.3892 24.9884 45.9324 25.2212 46.4756C25.4541 47.0188 25.7816 47.5189 26.2214 47.9932C26.6611 48.4674 27.1785 48.8813 27.7821 49.2262C28.3254 49.5366 28.7996 49.7436 29.2049 49.8384C29.6101 49.9247 29.9377 49.8988 30.1878 49.7608C30.4378 49.6142 30.6104 49.3556 30.7052 48.9762L34.775 51.3215V51.3301Z" fill="#F1FF99"/>
<path d="M35.9482 57.1503V48.0535L39.9405 50.3557V53.296L41.3719 54.1238L43.812 52.5889L47.994 55.0033L44.2863 57.0037L48.2182 64.2208L43.7086 61.6168L41.2856 57.021L39.9491 56.2535V59.4525L35.9569 57.1503H35.9482Z" fill="#F1FF99"/>
<path d="M53.6586 67.6613C52.4687 66.9715 51.4167 66.1696 50.5286 65.247C49.6319 64.333 48.9334 63.3587 48.4333 62.3498C47.9332 61.3324 47.6831 60.3494 47.6831 59.3837C47.6831 58.4179 47.9332 57.7109 48.4333 57.2711C48.9334 56.8314 49.6319 56.6675 50.5286 56.7882C51.4254 56.9003 52.4687 57.3056 53.6586 57.9954C54.8571 58.6852 55.9005 59.4871 56.7972 60.4097C57.694 61.3324 58.3924 62.2981 58.8838 63.3069C59.384 64.3244 59.634 65.316 59.634 66.2817C59.634 67.2475 59.384 67.9373 58.8838 68.3856C58.3837 68.834 57.694 68.9892 56.7972 68.8685C55.9005 68.7564 54.8571 68.3511 53.6586 67.6613ZM53.6586 64.7297C54.0811 64.9711 54.4346 65.1004 54.7192 65.1177C55.0037 65.1349 55.2279 65.0487 55.3831 64.8504C55.5383 64.6521 55.6073 64.3503 55.6073 63.9536C55.6073 63.557 55.5297 63.1517 55.3831 62.7809C55.2279 62.4102 55.0123 62.0653 54.7192 61.7549C54.4346 61.4445 54.0811 61.1599 53.6586 60.9185C53.2533 60.6857 52.8997 60.5563 52.6066 60.5305C52.3134 60.5132 52.0893 60.5994 51.9341 60.7891C51.7789 60.9875 51.7099 61.2892 51.7099 61.6859C51.7099 62.0825 51.7875 62.4878 51.9341 62.8586C52.0893 63.2293 52.3134 63.5742 52.6066 63.8933C52.8997 64.2123 53.2533 64.4882 53.6586 64.721V64.7297Z" fill="#F1FF99"/>
<path d="M60.7812 62.3841L64.7735 64.6863V66.0746C65.1184 65.8331 65.5322 65.7038 65.9979 65.6866C66.6704 65.6866 67.4292 65.928 68.2742 66.4195C69.1624 66.9368 69.9384 67.5835 70.6023 68.3596C71.2662 69.1442 71.775 70.0065 72.1544 70.9463C72.5338 71.8862 72.7149 72.8433 72.7149 73.8177C72.7149 74.792 72.5338 75.5163 72.1544 76.025C71.775 76.5338 71.2662 76.8011 70.6023 76.8269C69.947 76.8442 69.171 76.6028 68.2742 76.0854C67.412 75.5853 66.6532 74.9472 65.9979 74.1712C65.5236 73.6107 65.1184 73.0158 64.7735 72.3691V76.3872L60.7812 74.085V62.3755V62.3841ZM68.6881 71.5068C68.6881 71.1619 68.6191 70.8084 68.4725 70.4549C68.3346 70.1013 68.1363 69.765 67.8776 69.4632C67.6189 69.1615 67.3258 68.9028 66.9895 68.7131C66.6446 68.5148 66.3083 68.4027 65.9806 68.3682C65.6529 68.3423 65.3684 68.394 65.1356 68.5234C64.8942 68.6613 64.7217 68.8683 64.6183 69.1615C64.7217 69.5667 64.8942 69.9806 65.1356 70.3859C65.377 70.7911 65.6616 71.1705 65.9806 71.5154C66.3083 71.8603 66.6359 72.1363 66.9895 72.3346C67.3258 72.5243 67.6189 72.6191 67.8776 72.6105C68.1363 72.6019 68.3346 72.4984 68.4725 72.3173C68.6105 72.1276 68.6881 71.8603 68.6881 71.5154V71.5068Z" fill="#F1FF99"/>
<path d="M79.5177 82.5871C78.3191 81.8973 77.2758 81.0954 76.379 80.1728C75.4823 79.2502 74.7838 78.2845 74.2923 77.2756C73.8008 76.2668 73.5508 75.2752 73.5508 74.3094C73.5508 73.3437 73.8008 72.6367 74.2923 72.1969C74.7924 71.7572 75.4909 71.5933 76.379 71.714C77.2758 71.8261 78.3191 72.2314 79.5177 72.9212C80.7162 73.611 81.7595 74.4129 82.6563 75.3355C83.553 76.2495 84.2514 77.2239 84.7429 78.2327C85.243 79.2502 85.493 80.2418 85.493 81.2075C85.493 82.1732 85.243 82.863 84.7429 83.3114C84.2428 83.7512 83.553 83.915 82.6563 83.7943C81.7595 83.6822 80.7162 83.2769 79.5177 82.5871ZM79.5177 79.6554C79.9402 79.8969 80.2937 80.0262 80.5782 80.0435C80.8628 80.0607 81.087 79.9745 81.2335 79.7762C81.3887 79.5778 81.4577 79.2761 81.4577 78.8794C81.4577 78.4828 81.3801 78.0775 81.2335 77.7067C81.0783 77.336 80.8628 76.9911 80.5782 76.6806C80.285 76.3702 79.9315 76.0857 79.5177 75.8443C79.1124 75.6114 78.7589 75.4821 78.4657 75.4562C78.1726 75.439 77.9483 75.5252 77.8018 75.7149C77.6466 75.9132 77.5776 76.215 77.5776 76.6117C77.5776 77.0083 77.6552 77.4136 77.8018 77.7843C77.957 78.1551 78.1726 78.5 78.4657 78.819C78.7589 79.1381 79.1124 79.414 79.5177 79.6468V79.6554Z" fill="#F1FF99"/>
<path d="M97.9185 88.9247C97.8495 89.7352 97.5477 90.3129 97.0217 90.6578C96.4957 91.0027 95.8146 91.1062 94.9695 90.9768C94.1245 90.8475 93.1761 90.4767 92.1155 89.8645C90.9601 89.2006 89.9512 88.4073 89.0631 87.4933C88.1836 86.5793 87.4938 85.6136 87.0023 84.6047C86.5108 83.5959 86.2607 82.6129 86.2607 81.6644C86.2607 80.7159 86.5108 80.0089 87.0023 79.5691C87.4938 79.1294 88.1836 78.9569 89.0631 79.0604C89.9426 79.1553 90.9601 79.5347 92.1155 80.2072C93.1761 80.8194 94.1245 81.5437 94.9695 82.3887C95.8146 83.2337 96.4957 84.1305 97.0217 85.0704C97.5477 86.0102 97.8409 86.9328 97.9185 87.8382L93.9694 85.5619C93.8745 85.0531 93.6676 84.5875 93.3313 84.1736C93.0037 83.7597 92.5984 83.4062 92.1155 83.1303C91.7534 82.9147 91.4257 82.8026 91.1498 82.7854C90.8739 82.7681 90.6583 82.8543 90.5117 83.0613C90.3651 83.2596 90.2962 83.57 90.2962 83.9925C90.2962 84.415 90.3651 84.8117 90.5117 85.1738C90.6583 85.536 90.8739 85.8723 91.1498 86.174C91.4257 86.4758 91.7534 86.7345 92.1155 86.9501C92.5984 87.226 93.0037 87.3381 93.3313 87.2777C93.659 87.2174 93.8745 87.0104 93.9694 86.6569L97.9185 88.9333V88.9247Z" fill="#F1FF99"/>
<path d="M98.2806 84.0354L108.714 90.0626V93.0546L105.489 91.1922V97.297L101.497 94.9947V88.8899L98.272 87.0274V84.0354H98.2806Z" fill="#F1FF99"/>
<path d="M109.706 99.7287V90.6318L113.664 92.9168V94.9862L115.975 96.3228C116.811 96.8056 117.544 97.3747 118.173 98.03C118.803 98.6853 119.286 99.3752 119.639 100.099C119.984 100.824 120.156 101.539 120.156 102.246C120.156 102.954 119.984 103.471 119.639 103.799C119.294 104.126 118.811 104.256 118.199 104.195C117.587 104.135 116.863 103.859 116.035 103.385L109.697 99.7287H109.706ZM113.664 99.2458L115.267 100.168C115.561 100.341 115.785 100.401 115.931 100.35C116.087 100.298 116.164 100.143 116.164 99.8839C116.164 99.6252 116.087 99.3751 115.931 99.151C115.776 98.9268 115.561 98.7285 115.267 98.556L113.664 97.6334V99.2458Z" fill="#F1FF99"/>
<path d="M38.9397 101.669V113.533L35.0855 111.309V102.988L31.8606 109.446L27.8511 107.135L24.6262 96.9866V105.273L20.772 103.048V91.1836L27.0406 94.8051L29.8516 104.161L32.6453 98.0386L38.9138 101.66L38.9397 101.669Z" fill="#F1FF99"/>
<path d="M44.1041 110.895C44.3024 110.998 44.4921 111.102 44.6732 111.205C45.8028 111.861 46.6737 112.473 47.2859 113.059C47.3549 113.128 47.4325 113.206 47.5015 113.283C47.4411 112.887 47.2341 112.49 46.8892 112.093C46.4667 111.61 45.7769 111.085 44.8026 110.524C44.1386 110.145 43.4833 109.834 42.8107 109.593C42.1468 109.351 41.5346 109.188 40.9827 109.11V106.282C41.7674 106.411 42.552 106.627 43.3367 106.928C44.1213 107.23 44.9492 107.635 45.8028 108.136C46.9755 108.817 47.9671 109.55 48.769 110.334C49.5709 111.119 50.2003 111.964 50.6745 112.852C51.1488 113.74 51.373 114.611 51.373 115.465V120.733L47.5187 118.509V117.543C47.4584 117.56 47.3979 117.577 47.3289 117.595C46.9409 117.689 46.4753 117.681 45.9321 117.569C45.3889 117.457 44.7767 117.215 44.1127 116.827C43.3798 116.405 42.7246 115.905 42.1382 115.335C41.5605 114.766 41.0948 114.154 40.7672 113.525C40.4309 112.887 40.2671 112.266 40.2671 111.654C40.2671 111.041 40.4395 110.619 40.7758 110.377C41.1207 110.136 41.5777 110.067 42.164 110.171C42.7417 110.274 43.3971 110.524 44.1214 110.921L44.1041 110.895ZM47.5187 114.93C47.1911 114.62 46.622 114.223 45.7942 113.749C44.9751 113.275 44.4059 113.025 44.0955 112.999C43.7851 112.973 43.6299 113.076 43.6299 113.309C43.6299 113.559 43.785 113.852 44.0868 114.18C44.3886 114.508 44.8112 114.827 45.3458 115.137C45.9839 115.508 46.5098 115.663 46.9064 115.603C47.3117 115.542 47.5101 115.318 47.5101 114.93H47.5187Z" fill="#F1FF99"/>
<path d="M52.7529 112.412L56.7452 114.715V117.655L60.108 119.595V116.655L64.1003 118.957V128.054L60.108 125.752V122.553L56.7452 120.612V123.811L52.7529 121.509V112.412Z" fill="#F1FF99"/>
<path d="M71.1191 132.408C69.9982 131.762 68.998 130.977 68.1098 130.063C67.2217 129.149 66.5232 128.175 66.0145 127.14C65.4971 126.114 65.2471 125.114 65.2471 124.139C65.2471 123.165 65.4971 122.484 65.9886 122.053C66.4887 121.621 67.1699 121.458 68.0235 121.552C68.8772 121.647 69.843 122.001 70.9122 122.622C72.0331 123.268 72.9902 124.062 73.7748 124.993C74.5595 125.924 75.163 126.959 75.5855 128.08C76.0081 129.201 76.215 130.365 76.215 131.563L69.7223 127.812C69.9378 128.218 70.2482 128.597 70.6362 128.968C71.1018 129.416 71.6795 129.839 72.378 130.244C73.0247 130.615 73.6627 130.908 74.2835 131.124C74.9044 131.33 75.4734 131.451 75.9994 131.477V133.917C75.3269 133.952 74.6026 133.848 73.8094 133.615C73.0161 133.383 72.128 132.977 71.1277 132.4L71.1191 132.408ZM68.446 120.82C67.8166 120.457 67.3165 120.018 66.9457 119.492C66.5749 118.974 66.3853 118.431 66.3853 117.871C66.3853 117.345 66.5749 117.034 66.9457 116.948C67.3165 116.862 67.8166 117 68.446 117.362C69.0755 117.724 69.5757 118.164 69.9464 118.681C70.3172 119.198 70.5068 119.716 70.5068 120.242C70.5068 120.802 70.3258 121.13 69.9464 121.216C69.5757 121.311 69.0755 121.173 68.446 120.811V120.82ZM72.6281 127.295C72.5936 127.217 72.5677 127.131 72.5332 127.054C72.378 126.709 72.1796 126.407 71.9382 126.131C71.6968 125.864 71.4122 125.631 71.076 125.433C70.6879 125.208 70.3603 125.096 70.093 125.096C69.8257 125.096 69.6274 125.183 69.4894 125.372C69.4636 125.389 69.4463 125.415 69.429 125.45L72.6367 127.304L72.6281 127.295ZM73.3869 123.665C72.7574 123.303 72.2573 122.863 71.8865 122.337C71.5158 121.82 71.326 121.277 71.326 120.716C71.326 120.19 71.5071 119.88 71.8865 119.793C72.2659 119.707 72.7574 119.845 73.3869 120.207C74.0163 120.569 74.5164 121.009 74.8872 121.527C75.2579 122.044 75.4477 122.561 75.4477 123.087C75.4477 123.648 75.2579 123.975 74.8872 124.062C74.5164 124.156 74.0163 124.018 73.3869 123.656V123.665Z" fill="#F1FF99"/>
<path d="M77.1553 135.607V126.51L85.0449 131.063C85.9157 131.563 86.6142 132.176 87.1488 132.891C87.6834 133.607 87.9508 134.314 87.9508 135.004C87.9508 135.694 87.6834 136.038 87.1488 136.142C86.9591 136.185 86.7436 136.185 86.5021 136.142C86.9505 136.53 87.3298 136.918 87.6316 137.297C88.2007 138.048 88.4854 138.78 88.4854 139.513C88.4854 140.307 88.1922 140.772 87.5972 140.91C87.0023 141.048 86.2263 140.833 85.2519 140.272L77.1553 135.599V135.607ZM80.9923 132.245L83.3462 133.607C83.5359 133.719 83.6825 133.753 83.7946 133.719C83.9067 133.684 83.9585 133.572 83.9585 133.391C83.9585 133.21 83.9067 133.038 83.7946 132.874C83.6825 132.71 83.5359 132.572 83.3462 132.469L80.9923 131.106V132.245ZM80.9923 135.426L83.8033 137.047C84.0102 137.168 84.1826 137.211 84.3033 137.168C84.4327 137.134 84.4931 137.013 84.4931 136.806C84.4931 136.599 84.4327 136.418 84.3033 136.228C84.174 136.047 84.0015 135.883 83.7687 135.754L80.9837 134.15V135.418L80.9923 135.426Z" fill="#F1FF99"/>
<path d="M89.6147 133.702L93.607 136.004V137.392C93.9519 137.151 94.3658 137.021 94.8315 137.004C95.504 137.004 96.2628 137.246 97.1078 137.737C97.996 138.254 98.772 138.901 99.4359 139.677C100.091 140.462 100.609 141.324 100.979 142.264C101.35 143.204 101.54 144.161 101.54 145.135C101.54 146.11 101.359 146.834 100.979 147.343C100.609 147.851 100.091 148.119 99.4359 148.145C98.772 148.162 97.996 147.92 97.1078 147.403C96.2456 146.903 95.4868 146.265 94.8315 145.489C94.3572 144.928 93.9519 144.333 93.607 143.687V147.705L89.6147 145.403V133.693V133.702ZM97.5217 142.824C97.5217 142.48 97.4527 142.126 97.3061 141.772C97.1682 141.419 96.9698 141.083 96.7111 140.781C96.4524 140.47 96.1593 140.22 95.823 140.031C95.4781 139.832 95.1419 139.72 94.8142 139.686C94.4865 139.66 94.202 139.712 93.9692 139.841C93.7278 139.979 93.5552 140.186 93.4518 140.479C93.5552 140.884 93.7278 141.298 93.9692 141.703C94.2106 142.109 94.4952 142.488 94.8142 142.833C95.1419 143.178 95.4781 143.454 95.823 143.652C96.1593 143.842 96.4524 143.937 96.7111 143.928C96.9698 143.92 97.1682 143.816 97.3061 143.635C97.4441 143.445 97.5217 143.178 97.5217 142.833V142.824Z" fill="#F1FF99"/>
<path d="M108.257 153.844C107.136 153.197 106.136 152.413 105.247 151.499C104.359 150.585 103.661 149.61 103.152 148.576C102.635 147.55 102.385 146.549 102.385 145.575C102.385 144.601 102.635 143.919 103.135 143.488C103.635 143.057 104.308 142.893 105.17 142.988C106.032 143.083 106.998 143.437 108.058 144.057C109.179 144.704 110.136 145.497 110.921 146.429C111.706 147.36 112.309 148.386 112.732 149.515C113.154 150.636 113.361 151.8 113.361 152.999L106.868 149.248C107.093 149.653 107.394 150.033 107.783 150.404C108.24 150.852 108.826 151.274 109.524 151.68C110.171 152.051 110.809 152.344 111.43 152.559C112.051 152.766 112.62 152.887 113.146 152.913V155.353C112.473 155.387 111.749 155.284 110.956 155.051C110.162 154.818 109.274 154.413 108.274 153.835L108.257 153.844ZM109.766 148.731C109.731 148.653 109.705 148.567 109.671 148.489C109.516 148.144 109.317 147.843 109.076 147.567C108.834 147.299 108.55 147.067 108.214 146.868C107.826 146.644 107.498 146.532 107.231 146.532C106.963 146.532 106.765 146.618 106.627 146.808C106.61 146.825 106.584 146.851 106.567 146.886L109.774 148.739L109.766 148.731Z" fill="#F1FF99"/>
<path d="M114.525 148.084L118.518 150.386V153.327L121.88 155.267V152.326L125.873 154.629V163.725L121.88 161.423V158.224L118.518 156.284V159.483L114.525 157.181V148.084Z" fill="#F1FF99"/>
<path d="M127.382 155.508L131.374 157.811V160.751L134.737 162.691V159.751L138.729 162.053V171.15L134.737 168.847V165.648L131.374 163.708V166.907L127.382 164.605V155.508Z" fill="#F1FF99"/>
<path d="M145.851 175.547C144.653 174.858 143.609 174.056 142.713 173.133C141.816 172.219 141.118 171.245 140.626 170.236C140.126 169.218 139.876 168.235 139.876 167.27C139.876 166.304 140.126 165.597 140.626 165.157C141.126 164.717 141.816 164.554 142.713 164.674C143.609 164.786 144.653 165.192 145.851 165.881C147.041 166.571 148.093 167.373 148.981 168.296C149.878 169.21 150.577 170.184 151.068 171.193C151.568 172.21 151.818 173.202 151.818 174.168C151.818 175.133 151.568 175.832 151.068 176.272C150.568 176.711 149.878 176.875 148.981 176.754C148.085 176.642 147.041 176.237 145.851 175.547ZM145.851 172.624C146.265 172.866 146.619 172.995 146.912 173.012C147.196 173.03 147.421 172.943 147.576 172.745C147.731 172.547 147.8 172.245 147.8 171.848C147.8 171.452 147.722 171.046 147.576 170.676C147.421 170.305 147.205 169.96 146.912 169.649C146.619 169.339 146.265 169.055 145.851 168.813C145.446 168.58 145.093 168.451 144.799 168.425C144.506 168.399 144.282 168.494 144.135 168.684C143.989 168.873 143.911 169.184 143.911 169.58C143.911 169.977 143.989 170.382 144.135 170.753C144.291 171.124 144.506 171.469 144.799 171.788C145.093 172.107 145.446 172.383 145.851 172.616V172.624Z" fill="#F1FF99"/>
<path d="M164.252 181.885C164.174 182.695 163.881 183.273 163.355 183.618C162.829 183.963 162.148 184.066 161.303 183.937C160.458 183.807 159.509 183.437 158.449 182.824C157.293 182.161 156.285 181.367 155.397 180.453C154.517 179.539 153.827 178.574 153.336 177.565C152.844 176.556 152.594 175.573 152.594 174.624C152.594 173.676 152.844 172.969 153.336 172.529C153.827 172.089 154.517 171.917 155.397 172.02C156.276 172.115 157.293 172.495 158.449 173.167C159.509 173.779 160.458 174.504 161.303 175.349C162.148 176.194 162.829 177.09 163.355 178.03C163.881 178.97 164.174 179.893 164.252 180.798L160.303 178.522C160.208 178.013 160.001 177.556 159.665 177.134C159.337 176.72 158.923 176.366 158.449 176.09C158.078 175.875 157.759 175.763 157.483 175.745C157.207 175.728 156.992 175.814 156.845 176.021C156.699 176.22 156.63 176.53 156.63 176.952C156.63 177.375 156.699 177.763 156.845 178.134C156.992 178.496 157.207 178.832 157.483 179.134C157.759 179.436 158.087 179.694 158.449 179.91C158.932 180.186 159.337 180.298 159.665 180.238C159.992 180.177 160.208 179.97 160.303 179.617L164.252 181.893V181.885Z" fill="#F1FF99"/>
<path d="M164.614 176.996L175.047 183.023V186.015L171.823 184.152V190.257L167.83 187.955V181.85L164.605 179.988V176.996H164.614Z" fill="#F1FF99"/>
<path d="M176.039 192.689V183.592L179.997 185.877V187.946L182.308 189.283C183.144 189.766 183.877 190.335 184.506 190.99C185.136 191.645 185.619 192.335 185.972 193.059C186.317 193.784 186.489 194.499 186.489 195.206C186.489 195.913 186.317 196.431 185.972 196.758C185.627 197.086 185.144 197.215 184.532 197.155C183.92 197.095 183.196 196.819 182.368 196.345L176.03 192.689H176.039ZM179.997 192.206L181.601 193.128C181.894 193.301 182.118 193.361 182.264 193.309C182.42 193.258 182.497 193.102 182.497 192.844C182.497 192.585 182.42 192.335 182.264 192.111C182.109 191.887 181.894 191.688 181.601 191.516L179.997 190.593V192.206Z" fill="#F1FF99"/>
<path d="M30.4636 164.64V160.38L28.17 159.052L25.0227 161.492L20.2803 158.75L25.1521 155.284L20.4355 146.98L24.833 149.524L28.0579 155.387L30.4636 156.776V152.775L34.4904 155.094V159.095L36.896 160.483L40.1209 158.345L44.5184 160.889L39.8018 163.751L44.6736 172.848L39.9312 170.106L36.7839 164.036L34.4904 162.708V166.968L30.4636 164.648V164.64Z" fill="#F1FF99"/>
<path d="M48.3209 177.841C47.5621 177.401 46.9069 176.927 46.3291 176.418C45.7514 175.91 45.191 175.271 44.6219 174.521V171.831C45.1737 172.512 45.691 173.064 46.1653 173.495C46.6395 173.926 47.1569 174.297 47.7174 174.616C48.1571 174.866 48.5451 174.996 48.8814 175.004C49.1832 175.004 49.4332 174.84 49.6402 174.487L47.8122 173.435L44.1821 163.458L48.5796 166.002L50.6404 172.538L52.7443 168.408L56.9867 170.857L52.865 177.453C52.5201 178.013 52.0976 178.367 51.5975 178.522C51.0974 178.677 50.5715 178.686 50.0024 178.539C49.4333 178.393 48.8727 178.16 48.3036 177.841H48.3209Z" fill="#F1FF99"/>
<path d="M64.9282 184.532V181.333L63.5918 180.566L61.1688 182.368L56.6592 179.764L60.591 177.082L56.8834 170.796L61.0653 173.211L63.4968 177.556L64.9282 178.384V175.444L68.9205 177.746V180.687L70.3519 181.514L72.7834 179.979L76.9653 182.394L73.2577 184.394L77.1895 191.611L72.6799 189.007L70.257 184.411L68.9205 183.644V186.843L64.9282 184.541V184.532Z" fill="#F1FF99"/>
<path d="M84.9244 196.078V192.879L83.5879 192.112L81.1649 193.914L76.6553 191.31L80.5872 188.628L76.8795 182.342L81.0614 184.757L83.5017 189.102L84.933 189.93V186.99L88.9252 189.292V192.232L90.3566 193.06L92.7968 191.525L96.9788 193.94L93.271 195.94L97.203 203.157L92.6934 200.553L90.2704 195.957L88.9338 195.19V198.389L84.9416 196.087L84.9244 196.078Z" fill="#F1FF99"/>
<path d="M100.686 199.544C100.885 199.648 101.074 199.751 101.255 199.855C102.385 200.51 103.256 201.122 103.868 201.708C103.937 201.786 104.015 201.855 104.084 201.933C104.023 201.536 103.816 201.139 103.471 200.743C103.049 200.26 102.359 199.734 101.385 199.173C100.721 198.794 100.065 198.484 99.4015 198.242C98.7376 198.001 98.1254 197.837 97.5735 197.759V194.931C98.3582 195.06 99.1428 195.276 99.9275 195.578C100.712 195.88 101.54 196.285 102.394 196.776C103.566 197.458 104.558 198.19 105.36 198.975C106.162 199.768 106.791 200.605 107.265 201.493C107.74 202.381 107.964 203.252 107.964 204.106V209.374L104.11 207.149V206.184C104.049 206.201 103.989 206.218 103.92 206.235C103.532 206.33 103.066 206.322 102.523 206.209C101.98 206.097 101.367 205.856 100.704 205.468C99.9706 205.045 99.3154 204.545 98.7291 203.976C98.1427 203.407 97.6856 202.795 97.358 202.165C97.0217 201.527 96.8579 200.907 96.8579 200.294C96.8579 199.682 97.0303 199.26 97.3666 199.018C97.7115 198.777 98.1685 198.708 98.7548 198.811C99.3326 198.915 99.9879 199.165 100.712 199.561L100.686 199.544ZM104.092 203.588C103.765 203.278 103.196 202.881 102.368 202.407C101.54 201.933 100.98 201.683 100.669 201.657C100.359 201.631 100.203 201.734 100.203 201.967C100.203 202.217 100.359 202.51 100.661 202.838C100.962 203.166 101.385 203.485 101.919 203.795C102.557 204.166 103.083 204.321 103.48 204.261C103.885 204.2 104.084 203.976 104.084 203.588H104.092Z" fill="#F1FF99"/>
<path d="M109.326 201.07L113.318 203.372V206.312L116.681 208.252V205.312L120.673 207.614V216.711L116.681 214.409V211.21L113.318 209.27V212.469L109.326 210.167V201.07Z" fill="#F1FF99"/>
<path d="M122.182 217.591V208.494L126.114 210.762V216.082L129.166 212.53L134.271 215.478V224.575L130.339 222.308V216.72L127.131 220.454L122.182 217.6V217.591Z" fill="#F1FF99"/>
<path d="M141.29 228.904C140.169 228.258 139.169 227.473 138.281 226.559C137.393 225.645 136.694 224.671 136.185 223.636C135.668 222.61 135.418 221.61 135.418 220.635C135.418 219.661 135.668 218.98 136.168 218.549C136.668 218.117 137.341 217.954 138.203 218.048C139.065 218.143 140.031 218.497 141.092 219.118C142.213 219.764 143.17 220.558 143.954 221.489C144.739 222.42 145.343 223.446 145.765 224.576C146.188 225.697 146.395 226.861 146.395 228.059L139.902 224.309C140.126 224.714 140.428 225.093 140.816 225.464C141.273 225.912 141.859 226.335 142.557 226.74C143.204 227.111 143.842 227.404 144.454 227.62C145.075 227.827 145.644 227.947 146.17 227.973V230.413C145.498 230.448 144.765 230.344 143.98 230.111C143.187 229.879 142.299 229.473 141.299 228.896L141.29 228.904ZM142.799 223.8C142.764 223.722 142.739 223.636 142.704 223.558C142.549 223.213 142.351 222.912 142.109 222.636C141.868 222.368 141.583 222.136 141.247 221.937C140.859 221.713 140.531 221.601 140.264 221.601C139.997 221.601 139.798 221.696 139.66 221.877C139.643 221.894 139.617 221.92 139.6 221.955L142.808 223.808L142.799 223.8Z" fill="#F1FF99"/>
</svg>
