<svg width="285" height="1504" viewBox="0 0 285 1504" fill="none" xmlns="http://www.w3.org/2000/svg">
<path d="M109.71 220.442C102.684 224.337 95.638 229.152 88.7618 234.789C85.9475 237.091 83.0731 239.634 80.7877 242.978C78.5123 246.322 76.9554 250.687 77.684 253.49C78.5023 256.664 81.7957 256.854 84.9095 256.113C93.3625 254.111 102.913 246.853 110.199 236.871" fill="#F1FF9C"/>
<path d="M124.919 274.034C120.219 282.784 114.969 291.313 109.301 299.403C106.985 302.706 104.5 306.04 101.756 308.323C99.0112 310.605 95.9174 311.606 94.5202 309.844C92.9433 307.862 93.9614 303.217 95.4584 299.072C99.5402 287.819 107.085 276.456 115.438 268.968" fill="#F1FF9C"/>
<path d="M113.911 207.317C109.49 206.326 104.889 205.195 102.474 201.02C99.7697 196.345 100.428 187.955 104.101 180.287C106.297 175.691 110.199 170.926 113.482 170.776C116.257 170.656 117.404 173.889 117.504 177.363C117.594 180.837 116.925 184.782 117.335 188.045C117.744 191.309 119.71 193.852 122.734 192.521" fill="#F1FF9C"/>
<path d="M194.909 171.096C201.935 166.851 208.981 163.507 215.857 161.164C218.671 160.203 221.545 159.412 223.831 160.123C226.106 160.834 227.663 163.397 226.934 167.031C226.116 171.146 222.823 175.15 219.709 178.034C211.256 185.833 201.705 189.627 194.42 188.085" fill="#F1FF9C"/>
<path d="M179.709 242.297C184.41 245.611 189.659 248.054 195.328 249.575C197.643 250.196 200.128 250.657 202.873 249.756C205.617 248.855 208.711 246.272 210.108 242.898C211.685 239.083 210.667 235.62 209.17 233.217C205.088 226.689 197.544 224.066 189.19 226.259" fill="#F1FF9C"/>
<path d="M190.717 162.826C195.138 156.709 199.739 150.252 202.154 143.274C204.859 135.465 204.2 127.846 200.528 124.422C198.332 122.37 194.43 122.13 191.146 125.774C188.372 128.857 187.224 133.433 187.124 137.017C187.035 140.601 187.703 143.765 187.294 147.499C186.885 151.233 184.919 156.049 181.895 158.231" fill="#F1FF9C"/>
<path d="M178.192 154.776C178.192 171.776 166.546 192.309 152.175 200.629C137.803 208.948 126.157 201.91 126.157 184.911C126.157 167.911 137.803 147.378 152.175 139.058C166.546 130.739 178.192 137.777 178.192 154.776Z" fill="#F1FF9C"/>
<mask id="mask0_179_1050" style="mask-type:luminance" maskUnits="userSpaceOnUse" x="126" y="135" width="53" height="70">
<path d="M178.192 154.776C178.192 171.776 166.546 192.309 152.175 200.629C137.803 208.948 126.157 201.91 126.157 184.911C126.157 167.911 137.803 147.378 152.175 139.058C166.546 130.739 178.192 137.777 178.192 154.776Z" fill="white"/>
</mask>
<g mask="url(#mask0_179_1050)">
<path d="M140.658 154.656C140.658 161.223 136.067 169.202 130.398 172.486C124.73 175.77 120.139 173.107 120.139 166.539C120.139 159.972 124.73 151.993 130.398 148.709C136.067 145.425 140.658 148.088 140.658 154.656Z" fill="#F1FF9C"/>
<path d="M184.23 129.427C184.23 135.995 179.639 143.974 173.971 147.258C168.302 150.541 163.711 147.878 163.711 141.311C163.711 134.743 168.302 126.764 173.971 123.481C179.639 120.197 184.23 122.86 184.23 129.427Z" fill="#F1FF9C"/>
</g>
<path d="M141.566 145.145C141.416 143.964 141.067 142.913 140.408 142.282C139.69 141.601 138.632 141.451 137.514 141.651C136.386 141.852 135.189 142.402 134.001 143.053C133.452 143.353 132.863 143.714 132.414 144.344C131.845 145.135 131.666 146.187 131.885 146.827C132.105 147.468 132.664 147.738 133.283 147.728C133.911 147.728 134.6 147.478 135.289 147.218C135.977 146.957 136.676 146.667 137.324 146.587C138.702 146.407 139.799 147.208 140.159 148.659C140.239 148.99 140.288 149.35 140.428 149.62C140.787 150.291 141.895 149.751 141.726 148.719C141.546 147.628 141.716 146.277 141.566 145.145Z" fill="#F1FF99"/>
<path d="M162.803 132.841C162.953 131.49 163.302 130.028 163.961 128.627C164.68 127.115 165.737 125.743 166.855 124.642C167.983 123.541 169.18 122.7 170.368 121.979C170.917 121.639 171.506 121.318 171.955 121.428C172.524 121.558 172.703 122.399 172.484 123.3C172.264 124.191 171.705 125.103 171.087 125.833C170.458 126.554 169.769 127.115 169.081 127.655C168.392 128.186 167.693 128.717 167.045 129.387C165.667 130.809 164.57 132.871 164.21 134.744C164.131 135.164 164.081 135.584 163.941 136.015C163.582 137.096 162.474 137.837 162.644 136.616C162.823 135.314 162.654 134.153 162.803 132.861V132.841Z" fill="#F1FF99"/>
<path d="M163.242 145.276C163.242 145.276 157.753 130.789 157.015 122.39C156.675 118.485 156.376 114.301 158.013 109.695C158.861 107.323 160.169 105.01 160.987 102.637C161.815 100.264 162.035 97.6214 160.777 96.8005C159.5 95.9696 157.204 97.4613 155.658 99.5336C155.089 100.294 154.45 100.975 153.801 101.576C153.272 102.067 152.723 102.517 152.165 102.827C151.566 103.108 150.967 103.298 150.398 103.418C149.799 103.548 149.21 103.588 148.682 103.498C147.125 103.228 144.829 104.399 143.562 106.702C142.304 108.974 142.534 111.367 143.352 112.779C144.181 114.19 145.488 114.991 146.326 116.383C147.963 119.086 147.664 123.621 147.324 127.916C146.586 137.167 141.097 157.97 141.097 157.97" fill="#F1FF99"/>
<path d="M205.358 190.968C205.358 225.678 181.586 267.586 152.254 284.575C122.923 301.565 99.1509 287.198 99.1509 252.488C99.1509 217.779 122.923 175.871 152.254 158.881C181.586 141.892 205.358 156.258 205.358 190.968Z" fill="#F1FF9C"/>
<mask id="mask1_179_1050" style="mask-type:luminance" maskUnits="userSpaceOnUse" x="99" y="151" width="107" height="141">
<path d="M205.358 190.968C205.358 225.678 181.586 267.586 152.254 284.575C122.923 301.565 99.1509 287.198 99.1509 252.488C99.1509 217.779 122.923 175.871 152.254 158.881C181.586 141.892 205.358 156.258 205.358 190.968Z" fill="white"/>
</mask>
<g mask="url(#mask1_179_1050)">
<path d="M244 168.583C244 194.332 225.976 225.648 203.751 238.533C181.516 251.408 163.502 240.976 163.502 215.216C163.502 189.467 181.526 158.151 203.751 145.266C225.986 132.392 244 142.824 244 168.583ZM203.741 163.267C190.088 171.176 179.031 190.398 179.031 206.206C179.031 222.014 190.098 228.421 203.741 220.522C217.394 212.613 228.451 193.391 228.451 177.583C228.451 161.775 217.384 155.368 203.741 163.267Z" fill="white"/>
<path d="M141.007 228.241C141.007 253.991 122.983 285.306 100.758 298.191C78.5223 311.066 60.5085 300.634 60.5085 274.874C60.5085 249.125 78.5323 217.809 100.758 204.925C122.993 192.05 141.007 202.482 141.007 228.241ZM100.748 222.925C87.0951 230.834 76.0374 250.056 76.0374 265.864C76.0374 281.672 87.1051 288.08 100.748 280.181C114.4 272.272 125.458 253.05 125.458 237.241C125.458 221.433 114.39 215.026 100.748 222.925Z" fill="white"/>
</g>
<path d="M178.092 261.659C170.438 271.18 161.636 279.149 152.234 284.595C142.863 290.021 134.061 292.254 126.436 291.583C138.702 276.786 148.073 258.315 152.294 240.194C156.456 253.459 165.857 261.058 178.092 261.659Z" fill="white"/>
<path d="M126.436 181.767C134.061 172.266 142.863 164.297 152.234 158.871C161.636 153.425 170.438 151.192 178.092 151.843C165.857 166.66 156.456 185.111 152.294 203.202C148.073 189.967 138.702 182.358 126.436 181.767Z" fill="white"/>
<path d="M110.154 596.699C103.095 600.624 96.0365 605.402 89.1477 611.033C86.3411 613.337 83.4495 615.897 81.1532 619.224C78.8569 622.552 77.3261 626.989 78.0065 629.719C78.8569 632.876 82.0888 633.047 85.2355 632.364C93.7403 630.402 103.266 623.064 110.58 613.081" fill="#F1FF9C"/>
<path d="M125.378 650.366C120.7 659.154 115.427 667.686 109.729 675.792C107.433 679.12 104.882 682.447 102.16 684.751C99.4385 687.055 96.2917 688.078 94.931 686.287C93.3151 684.324 94.3356 679.632 95.8665 675.536C99.9488 664.274 107.518 652.84 115.853 645.332" fill="#F1FF9C"/>
<path d="M114.322 583.56C109.899 582.536 105.307 581.427 102.84 577.246C100.119 572.553 100.799 564.192 104.456 556.513C106.667 551.905 110.58 547.127 113.811 546.957C116.618 546.871 117.724 550.114 117.809 553.527C117.894 557.025 117.213 560.95 117.639 564.192C118.064 567.434 120.02 569.994 123.082 568.714" fill="#F1FF9C"/>
<path d="M195.457 547.296C202.516 543.03 209.575 539.703 216.464 537.314C219.27 536.375 222.162 535.522 224.458 536.29C226.755 536.972 228.285 539.532 227.605 543.201C226.755 547.296 223.523 551.307 220.376 554.208C211.871 562.057 202.346 565.811 195.032 564.276" fill="#F1FF9C"/>
<path d="M180.234 618.625C184.911 621.953 190.184 624.427 195.882 625.878C198.179 626.475 200.73 626.987 203.452 626.048C206.173 625.11 209.32 622.55 210.681 619.137C212.297 615.298 211.276 611.885 209.745 609.411C205.663 602.841 198.094 600.281 189.759 602.414" fill="#F1FF9C"/>
<path d="M191.29 539.02C195.712 532.877 200.305 526.393 202.771 519.396C205.493 511.547 204.812 503.953 201.155 500.54C198.944 498.492 195.032 498.236 191.8 501.905C188.993 504.977 187.888 509.584 187.803 513.168C187.718 516.751 188.398 519.908 187.973 523.662C187.548 527.417 185.592 532.195 182.53 534.413" fill="#F1FF9C"/>
<path d="M178.448 531.084C178.448 548.149 166.796 568.711 152.423 576.987C138.05 585.349 126.399 578.267 126.399 561.203C126.399 544.138 138.05 523.576 152.423 515.3C166.796 506.938 178.448 514.02 178.448 531.084Z" fill="#F1FF9C"/>
<mask id="mask2_179_1050" style="mask-type:luminance" maskUnits="userSpaceOnUse" x="126" y="511" width="53" height="70">
<path d="M178.448 531.084C178.448 548.149 166.796 568.711 152.423 576.987C138.05 585.349 126.399 578.267 126.399 561.203C126.399 544.138 138.05 523.576 152.423 515.3C166.796 506.938 178.448 514.02 178.448 531.084Z" fill="white"/>
</mask>
<g mask="url(#mask2_179_1050)">
<path d="M140.772 530.999C140.772 537.568 136.179 545.589 130.481 548.831C124.783 552.159 120.19 549.428 120.19 542.858C120.19 536.289 124.783 528.268 130.481 525.026C136.179 521.699 140.772 524.429 140.772 530.999Z" fill="white" fill-opacity="0.46"/>
<path d="M184.486 505.743C184.486 512.313 179.893 520.333 174.195 523.575C168.497 526.903 163.904 524.172 163.904 517.603C163.904 511.033 168.497 503.013 174.195 499.77C179.893 496.443 184.486 499.173 184.486 505.743Z" fill="white" fill-opacity="0.46"/>
</g>
<path d="M145.789 514.106C145.449 511.12 144.514 508.389 142.813 506.768C140.942 504.976 138.305 504.635 135.414 505.147C132.522 505.659 129.46 507.109 126.399 508.731C124.953 509.498 123.507 510.437 122.316 512.058C120.87 514.106 120.36 516.751 120.956 518.457C121.551 520.164 122.912 520.761 124.528 520.761C126.143 520.761 127.929 520.164 129.715 519.481C131.501 518.799 133.287 518.116 134.903 517.86C138.475 517.433 141.282 519.481 142.132 523.15C142.302 524.003 142.473 524.942 142.813 525.624C143.748 527.331 146.555 525.966 146.13 523.321C145.704 520.505 146.13 517.092 145.704 514.191L145.789 514.106Z" fill="#F1FF9C"/>
<path d="M158.887 506.512C159.227 503.014 160.162 499.345 161.863 495.676C163.734 491.837 166.371 488.253 169.263 485.438C172.154 482.622 175.216 480.489 178.278 478.612C179.723 477.759 181.169 476.905 182.36 477.161C183.806 477.503 184.316 479.636 183.721 481.939C183.125 484.243 181.765 486.547 180.149 488.424C178.533 490.301 176.747 491.751 174.961 493.117C173.175 494.482 171.389 495.847 169.773 497.553C166.201 501.222 163.394 506.512 162.544 511.29C162.374 512.399 162.204 513.423 161.863 514.532C160.928 517.263 158.121 519.225 158.547 516.068C158.972 512.741 158.547 509.754 158.972 506.427L158.887 506.512Z" fill="#F1FF9C"/>
<path d="M206.003 567.176C206.003 601.988 182.19 643.966 152.763 660.945C123.337 677.924 99.5235 663.59 99.5235 628.779C99.5235 593.967 123.337 551.989 152.763 535.01C182.19 518.031 206.003 532.365 206.003 567.176Z" fill="#F1FF9C"/>
<mask id="mask3_179_1050" style="mask-type:luminance" maskUnits="userSpaceOnUse" x="99" y="527" width="108" height="142">
<path d="M206.003 567.176C206.003 601.988 182.19 643.966 152.763 660.945C123.337 677.924 99.5235 663.59 99.5235 628.779C99.5235 593.967 123.337 551.989 152.763 535.01C182.19 518.031 206.003 532.365 206.003 567.176Z" fill="white"/>
</mask>
<g mask="url(#mask3_179_1050)">
<path d="M163.479 547.893C163.479 553.524 158.461 560.947 152.253 564.616C146.044 568.199 141.027 566.578 141.027 560.947C141.027 555.316 146.044 547.893 152.253 544.224C158.461 540.64 163.479 542.261 163.479 547.893Z" fill="white"/>
<path d="M169.432 560.862C169.432 568.2 161.778 578.609 152.253 584.07C142.813 589.53 135.073 588.08 135.073 580.742C135.073 573.404 142.728 562.995 152.253 557.534C161.693 552.074 169.432 553.524 169.432 560.862Z" fill="white"/>
<path d="M171.984 586.63C171.984 596.783 163.139 610.008 152.253 616.322C141.367 622.636 132.522 619.564 132.522 609.411C132.522 599.257 141.367 586.032 152.253 579.719C163.139 573.405 171.984 576.476 171.984 586.63Z" fill="white"/>
<path d="M174.961 610.349C174.961 618.796 164.84 631.423 152.338 638.676C139.836 645.928 129.715 644.99 129.715 636.543C129.715 628.096 139.836 615.468 152.338 608.216C164.84 600.963 174.961 601.902 174.961 610.349Z" fill="white"/>
<path d="M166.626 641.064C166.626 650.791 160.162 662.395 152.253 667.002C144.344 671.61 137.88 667.429 137.88 657.702C137.88 647.976 144.344 636.372 152.253 631.764C160.162 627.157 166.626 631.338 166.626 641.064Z" fill="white"/>
<path d="M200.22 506C201.155 510.949 196.988 518.969 190.864 523.917C184.826 528.781 179.128 528.696 178.192 523.747C177.257 518.798 181.424 510.778 187.548 505.829C193.586 500.966 199.284 501.051 200.22 506Z" fill="white"/>
<path d="M208.724 515.898C209.915 522.383 203.366 533.73 194.096 541.239C184.826 548.747 176.236 549.515 175.046 543.031C173.855 536.546 180.404 525.198 189.674 517.69C198.944 510.182 207.534 509.414 208.724 515.898Z" fill="white"/>
<path d="M215.783 537.996C217.484 546.954 210.17 561.203 199.454 569.821C188.738 578.438 178.788 578.097 177.087 569.138C175.386 560.179 182.7 545.931 193.416 537.313C204.132 528.696 214.082 529.037 215.783 537.996Z" fill="white"/>
<path d="M222.842 558.131C224.203 565.554 215.358 579.633 203.111 589.53C190.864 599.427 179.723 601.39 178.363 593.881C177.002 586.458 185.847 572.38 198.094 562.483C210.34 552.585 221.482 550.623 222.842 558.131Z" fill="white"/>
<path d="M218.93 587.654C220.546 596.271 215.528 608.302 207.704 614.616C199.88 620.844 192.31 618.967 190.694 610.35C189.078 601.732 194.096 589.702 201.921 583.388C209.745 577.159 217.314 579.036 218.93 587.654Z" fill="white"/>
<path d="M104.371 561.544C103.436 567.602 107.603 570.759 113.726 568.626C119.765 566.493 125.463 559.838 126.399 553.78C127.334 547.722 123.167 544.565 117.043 546.698C111.005 548.831 105.307 555.487 104.371 561.544Z" fill="white"/>
<path d="M95.7814 581.34C94.5908 589.275 101.139 592.944 110.41 589.702C119.68 586.374 128.27 577.33 129.46 569.48C130.651 561.545 124.102 557.877 114.832 561.119C105.562 564.446 96.9721 573.491 95.7814 581.34Z" fill="white"/>
<path d="M88.8075 611.543C87.1066 622.465 94.4207 628.181 105.137 624.427C115.853 620.673 125.803 608.728 127.504 597.892C129.205 586.971 121.891 581.254 111.175 585.008C100.459 588.762 90.5085 600.707 88.8075 611.543Z" fill="white"/>
<path d="M81.7486 639.871C80.3878 648.915 89.2328 652.754 101.48 648.403C113.726 644.052 124.868 633.216 126.228 624.086C127.589 615.042 118.744 611.203 106.497 615.554C94.2506 619.905 83.1093 630.741 81.7486 639.871Z" fill="white"/>
<path d="M85.5757 664.87C83.9598 675.365 88.9776 681.593 96.802 678.863C104.626 676.133 112.196 665.382 113.811 654.888C115.427 644.393 110.41 638.164 102.585 640.895C94.7608 643.625 87.1916 654.376 85.5757 664.87Z" fill="white"/>
</g>
<path d="M137.902 922.582C129.313 913.965 126.251 895.109 130.333 875.229C131.099 871.474 132.119 867.635 133.905 864.222C135.606 860.809 138.158 857.908 140.539 857.567C142.835 857.226 144.621 859.956 143.856 863.71C143.005 868.062 139.263 872.584 139.774 876.423C140.794 874.119 141.645 873.01 143.005 871.133C144.366 869.256 146.152 867.891 147.428 868.488C148.959 869.171 149.214 872.328 148.618 875.314C147.938 878.3 146.577 881.116 145.302 883.931C144.026 886.747 142.835 889.819 142.665 892.634C142.07 901.081 146.152 906.456 150.83 908.163" fill="#F1FF9C"/>
<path d="M164.777 906.968C173.367 888.368 176.429 866.013 172.347 850.911C171.581 848.096 170.561 845.365 168.775 844C167.074 842.635 164.522 842.72 162.141 845.024C159.76 847.328 158.059 852.106 158.824 855.007C159.675 858.42 163.417 858.59 162.906 862.942C161.886 861.747 161.035 861.747 159.675 861.406C158.314 861.065 156.528 861.832 155.252 863.88C153.721 866.355 153.466 869.853 154.061 872.071C154.742 874.29 156.103 875.484 157.378 876.849C158.654 878.214 159.845 879.835 160.015 882.48C160.61 890.245 156.528 900.313 151.85 907.48" fill="#F1FF9C"/>
<path d="M177.365 907.906C177.365 924.971 165.713 945.533 151.34 953.81C136.967 962.171 125.315 955.089 125.315 938.025C125.315 920.961 136.967 900.398 151.34 892.122C165.713 883.76 177.365 890.842 177.365 907.906Z" fill="#F1FF9C"/>
<mask id="mask4_179_1050" style="mask-type:luminance" maskUnits="userSpaceOnUse" x="125" y="888" width="53" height="70">
<path d="M177.365 907.906C177.365 924.971 165.713 945.533 151.34 953.81C136.967 962.171 125.315 955.089 125.315 938.025C125.315 920.961 136.967 900.398 151.34 892.122C165.713 883.76 177.365 890.842 177.365 907.906Z" fill="white"/>
</mask>
<g mask="url(#mask4_179_1050)">
<path d="M139.774 907.737C139.774 914.307 135.181 922.327 129.483 925.569C123.785 928.897 119.192 926.167 119.192 919.597C119.192 913.027 123.785 905.007 129.483 901.764C135.181 898.437 139.774 901.167 139.774 907.737Z" fill="white" fill-opacity="0.46"/>
<path d="M183.488 882.481C183.488 889.051 178.895 897.071 173.197 900.313C167.499 903.641 162.906 900.911 162.906 894.341C162.906 887.771 167.499 879.751 173.197 876.509C178.895 873.181 183.488 875.911 183.488 882.481Z" fill="white" fill-opacity="0.46"/>
</g>
<path d="M109.156 973.52C102.097 977.444 95.0385 982.222 88.1497 987.854C85.3431 990.157 82.4515 992.717 80.1552 996.045C77.8589 999.372 76.3281 1003.81 77.0085 1006.54C77.859 1009.7 81.0908 1009.87 84.2375 1009.18C92.7423 1007.22 102.268 999.884 109.582 989.901" fill="#F1FF9C"/>
<path d="M124.38 1027.19C119.702 1035.98 114.429 1044.51 108.731 1052.61C106.435 1055.94 103.884 1059.27 101.162 1061.57C98.4405 1063.88 95.2937 1064.9 93.933 1063.11C92.3171 1061.15 93.3377 1056.45 94.8685 1052.36C98.9508 1041.09 106.52 1029.66 114.855 1022.15" fill="#F1FF9C"/>
<path d="M113.324 960.294C108.901 959.27 104.309 958.161 101.842 953.98C99.1208 949.288 99.8012 940.926 103.458 933.247C105.67 928.64 109.582 923.862 112.813 923.691C115.62 923.606 116.726 926.848 116.811 930.261C116.896 933.759 116.215 937.684 116.641 940.926C117.066 944.168 119.022 946.728 122.084 945.448" fill="#F1FF9C"/>
<path d="M194.459 924.033C201.518 919.767 208.577 916.439 215.466 914.05C218.272 913.112 221.164 912.258 223.46 913.026C225.757 913.709 227.287 916.268 226.607 919.937C225.757 924.033 222.525 928.043 219.378 930.944C210.873 938.793 201.348 942.548 194.034 941.012" fill="#F1FF9C"/>
<path d="M179.236 995.362C183.913 998.689 189.186 1001.16 194.884 1002.61C197.181 1003.21 199.732 1003.72 202.454 1002.78C205.175 1001.85 208.322 999.286 209.683 995.874C211.299 992.034 210.278 988.621 208.747 986.147C204.665 979.577 197.096 977.017 188.761 979.15" fill="#F1FF9C"/>
<path d="M190.292 915.757C194.714 909.614 199.307 903.129 201.773 896.133C204.495 888.283 203.814 880.689 200.157 877.277C197.946 875.229 194.034 874.973 190.802 878.642C187.995 881.713 186.89 886.321 186.805 889.904C186.72 893.488 187.4 896.645 186.975 900.399C186.55 904.153 184.594 908.931 181.532 911.149" fill="#F1FF9C"/>
<path d="M205.09 943.829C205.09 978.64 181.277 1020.62 151.85 1037.6C122.424 1054.58 98.6105 1040.24 98.6105 1005.43C98.6105 970.62 122.424 928.641 151.85 911.662C181.277 894.683 205.09 909.017 205.09 943.829Z" fill="#F1FF9C"/>
<mask id="mask5_179_1050" style="mask-type:luminance" maskUnits="userSpaceOnUse" x="98" y="904" width="108" height="141">
<path d="M205.09 943.829C205.09 978.64 181.277 1020.62 151.85 1037.6C122.424 1054.58 98.6105 1040.24 98.6105 1005.43C98.6105 970.62 122.424 928.641 151.85 911.662C181.277 894.683 205.09 909.017 205.09 943.829Z" fill="white"/>
</mask>
<g mask="url(#mask5_179_1050)">
<path d="M171.411 952.019C171.411 960.124 162.651 971.728 151.85 977.957C141.049 984.185 132.289 982.735 132.289 974.629C132.289 966.524 141.049 954.92 151.85 948.691C162.651 942.463 171.411 943.913 171.411 952.019Z" fill="white"/>
<path d="M164.012 907.224C164.012 912.258 158.569 919.511 151.85 923.35C145.131 927.275 139.688 926.337 139.688 921.303C139.688 916.269 145.131 909.016 151.85 905.177C158.569 901.252 164.012 902.19 164.012 907.224Z" fill="white"/>
<path d="M167.074 989.646C167.074 997.154 160.27 1007.22 151.85 1012.09C143.431 1016.95 136.627 1014.82 136.627 1007.22C136.627 999.714 143.431 989.646 151.85 984.783C160.27 979.919 167.074 982.052 167.074 989.646Z" fill="white"/>
<path d="M129.653 998.349C129.653 1005.52 124.635 1014.3 118.427 1017.89C112.218 1021.47 107.2 1018.57 107.2 1011.4C107.2 1004.24 112.218 995.448 118.427 991.865C124.635 988.281 129.653 991.182 129.653 998.349Z" fill="white"/>
<path d="M196.585 959.527C196.585 966.694 191.567 975.482 185.359 979.066C179.15 982.649 174.133 979.748 174.133 972.581C174.133 965.414 179.15 956.626 185.359 953.043C191.567 949.459 196.585 952.36 196.585 959.527Z" fill="white"/>
<path d="M146.747 1029.83C146.747 1039.99 137.562 1053.55 126.166 1060.12C114.855 1066.69 105.584 1063.79 105.584 1053.64C105.584 1043.48 114.77 1029.92 126.166 1023.35C137.477 1016.78 146.747 1019.68 146.747 1029.83Z" fill="white"/>
<path d="M198.116 1000.05C198.116 1010.21 188.931 1023.77 177.535 1030.34C166.223 1036.91 156.953 1034.01 156.953 1023.86C156.953 1013.71 166.138 1000.14 177.535 993.57C188.846 987.001 198.116 989.902 198.116 1000.05Z" fill="white"/>
<path d="M221.504 897.669C221.504 911.235 210.363 928.726 196.5 936.661C182.722 944.682 171.496 940.159 171.496 926.593C171.496 913.027 182.637 895.536 196.5 887.601C210.278 879.581 221.504 884.103 221.504 897.669Z" fill="white"/>
<path d="M129.823 950.824C129.823 964.391 119.192 981.54 106.095 989.134C92.9973 996.728 82.3664 991.864 82.3664 978.298C82.3664 964.732 92.9973 947.582 106.095 939.988C119.192 932.395 129.823 937.258 129.823 950.824Z" fill="white"/>
</g>
<path d="M109.71 1348.44C102.684 1352.34 95.638 1357.15 88.7618 1362.79C85.9475 1365.09 83.0731 1367.63 80.7877 1370.98C78.5123 1374.32 76.9554 1378.69 77.684 1381.49C78.5023 1384.66 81.7957 1384.85 84.9095 1384.11C93.3625 1382.11 102.913 1374.85 110.199 1364.87" fill="#F1FF9C"/>
<path d="M124.919 1402.03C120.219 1410.78 114.969 1419.31 109.301 1427.4C106.985 1430.71 104.5 1434.04 101.756 1436.32C99.0112 1438.61 95.9174 1439.61 94.5202 1437.84C92.9433 1435.86 93.9614 1431.22 95.4584 1427.07C99.5402 1415.82 107.085 1404.46 115.438 1396.97" fill="#F1FF9C"/>
<path d="M113.911 1335.32C109.49 1334.33 104.889 1333.2 102.474 1329.02C99.7697 1324.34 100.428 1315.96 104.101 1308.29C106.297 1303.69 110.199 1298.93 113.482 1298.78C116.257 1298.66 117.404 1301.89 117.504 1305.36C117.594 1308.84 116.925 1312.78 117.335 1316.05C117.744 1319.31 119.71 1321.85 122.734 1320.52" fill="#F1FF9C"/>
<path d="M194.909 1299.1C201.935 1294.85 208.981 1291.51 215.857 1289.16C218.671 1288.2 221.545 1287.41 223.831 1288.12C226.106 1288.83 227.663 1291.4 226.934 1295.03C226.116 1299.15 222.823 1303.15 219.709 1306.03C211.256 1313.83 201.705 1317.63 194.42 1316.09" fill="#F1FF9C"/>
<path d="M179.709 1370.3C184.41 1373.61 189.659 1376.05 195.328 1377.58C197.643 1378.2 200.128 1378.66 202.873 1377.76C205.617 1376.85 208.711 1374.27 210.108 1370.9C211.685 1367.08 210.667 1363.62 209.17 1361.22C205.088 1354.69 197.544 1352.07 189.19 1354.26" fill="#F1FF9C"/>
<path d="M190.717 1290.83C195.138 1284.71 199.739 1278.25 202.154 1271.27C204.859 1263.47 204.2 1255.85 200.528 1252.42C198.332 1250.37 194.43 1250.13 191.146 1253.77C188.372 1256.86 187.224 1261.43 187.124 1265.02C187.035 1268.6 187.703 1271.76 187.294 1275.5C186.885 1279.23 184.919 1284.05 181.895 1286.23" fill="#F1FF9C"/>
<path d="M178.192 1282.78C178.192 1299.78 166.546 1320.31 152.175 1328.63C137.803 1336.95 126.157 1329.91 126.157 1312.91C126.157 1295.91 137.803 1275.38 152.175 1267.06C166.546 1258.74 178.192 1265.78 178.192 1282.78Z" fill="#F1FF9C"/>
<mask id="mask6_179_1050" style="mask-type:luminance" maskUnits="userSpaceOnUse" x="126" y="1263" width="53" height="70">
<path d="M178.192 1282.78C178.192 1299.78 166.546 1320.31 152.175 1328.63C137.803 1336.95 126.157 1329.91 126.157 1312.91C126.157 1295.91 137.803 1275.38 152.175 1267.06C166.546 1258.74 178.192 1265.78 178.192 1282.78Z" fill="white"/>
</mask>
<g mask="url(#mask6_179_1050)">
<path d="M140.658 1282.66C140.658 1289.22 136.067 1297.2 130.398 1300.49C124.73 1303.77 120.139 1301.11 120.139 1294.54C120.139 1287.97 124.73 1279.99 130.398 1276.71C136.067 1273.43 140.658 1276.09 140.658 1282.66Z" fill="#F1FF9C"/>
<path d="M184.23 1257.43C184.23 1263.99 179.639 1271.97 173.971 1275.26C168.302 1278.54 163.711 1275.88 163.711 1269.31C163.711 1262.74 168.302 1254.76 173.971 1251.48C179.639 1248.2 184.23 1250.86 184.23 1257.43Z" fill="#F1FF9C"/>
</g>
<path d="M141.566 1273.15C141.416 1271.96 141.067 1270.91 140.408 1270.28C139.69 1269.6 138.632 1269.45 137.514 1269.65C136.386 1269.85 135.189 1270.4 134.001 1271.05C133.452 1271.35 132.863 1271.71 132.414 1272.34C131.845 1273.14 131.666 1274.19 131.885 1274.83C132.105 1275.47 132.664 1275.74 133.283 1275.73C133.911 1275.73 134.6 1275.48 135.289 1275.22C135.977 1274.96 136.676 1274.67 137.324 1274.59C138.702 1274.41 139.799 1275.21 140.159 1276.66C140.239 1276.99 140.288 1277.35 140.428 1277.62C140.787 1278.29 141.895 1277.75 141.726 1276.72C141.546 1275.63 141.716 1274.28 141.566 1273.15Z" fill="#F1FF99"/>
<path d="M162.803 1260.84C162.953 1259.49 163.302 1258.03 163.961 1256.63C164.68 1255.11 165.737 1253.74 166.855 1252.64C167.983 1251.54 169.18 1250.7 170.368 1249.98C170.917 1249.64 171.506 1249.32 171.955 1249.43C172.524 1249.56 172.703 1250.4 172.484 1251.3C172.264 1252.19 171.705 1253.1 171.087 1253.83C170.458 1254.55 169.769 1255.11 169.081 1255.66C168.392 1256.19 167.693 1256.72 167.045 1257.39C165.667 1258.81 164.57 1260.87 164.21 1262.74C164.131 1263.16 164.081 1263.58 163.941 1264.01C163.582 1265.1 162.474 1265.84 162.644 1264.62C162.823 1263.31 162.654 1262.15 162.803 1260.86V1260.84Z" fill="#F1FF99"/>
<path d="M163.242 1273.28C163.242 1273.28 157.753 1258.79 157.015 1250.39C156.675 1246.49 156.376 1242.3 158.013 1237.7C158.861 1235.32 160.169 1233.01 160.987 1230.64C161.815 1228.26 162.035 1225.62 160.777 1224.8C159.5 1223.97 157.204 1225.46 155.658 1227.53C155.089 1228.29 154.45 1228.98 153.801 1229.58C153.272 1230.07 152.723 1230.52 152.165 1230.83C151.566 1231.11 150.967 1231.3 150.398 1231.42C149.799 1231.55 149.21 1231.59 148.682 1231.5C147.125 1231.23 144.829 1232.4 143.562 1234.7C142.304 1236.97 142.534 1239.37 143.352 1240.78C144.181 1242.19 145.488 1242.99 146.326 1244.38C147.963 1247.09 147.664 1251.62 147.324 1255.92C146.586 1265.17 141.097 1285.97 141.097 1285.97" fill="#F1FF99"/>
<path d="M205.358 1318.97C205.358 1353.68 181.586 1395.59 152.254 1412.58C122.923 1429.56 99.1509 1415.2 99.1509 1380.49C99.1509 1345.78 122.923 1303.87 152.254 1286.88C181.586 1269.89 205.358 1284.26 205.358 1318.97Z" fill="#F1FF9C"/>
<mask id="mask7_179_1050" style="mask-type:luminance" maskUnits="userSpaceOnUse" x="99" y="1279" width="107" height="141">
<path d="M205.358 1318.97C205.358 1353.68 181.586 1395.59 152.254 1412.58C122.923 1429.56 99.1509 1415.2 99.1509 1380.49C99.1509 1345.78 122.923 1303.87 152.254 1286.88C181.586 1269.89 205.358 1284.26 205.358 1318.97Z" fill="white"/>
</mask>
<g mask="url(#mask7_179_1050)">
<path d="M244 1296.58C244 1322.33 225.976 1353.65 203.751 1366.53C181.516 1379.41 163.502 1368.98 163.502 1343.22C163.502 1317.47 181.526 1286.15 203.751 1273.27C225.986 1260.39 244 1270.82 244 1296.58ZM203.741 1291.27C190.088 1299.18 179.031 1318.4 179.031 1334.21C179.031 1350.01 190.098 1356.42 203.741 1348.52C217.394 1340.61 228.451 1321.39 228.451 1305.58C228.451 1289.78 217.384 1283.37 203.741 1291.27Z" fill="white"/>
<path d="M141.007 1356.24C141.007 1381.99 122.983 1413.31 100.758 1426.19C78.5223 1439.07 60.5085 1428.63 60.5085 1402.87C60.5085 1377.13 78.5323 1345.81 100.758 1332.92C122.993 1320.05 141.007 1330.48 141.007 1356.24ZM100.748 1350.93C87.0951 1358.83 76.0374 1378.06 76.0374 1393.86C76.0374 1409.67 87.1051 1416.08 100.748 1408.18C114.4 1400.27 125.458 1381.05 125.458 1365.24C125.458 1349.43 114.39 1343.03 100.748 1350.93Z" fill="white"/>
</g>
<path d="M178.092 1389.66C170.438 1399.18 161.636 1407.15 152.234 1412.6C142.863 1418.02 134.061 1420.25 126.436 1419.58C138.702 1404.79 148.073 1386.32 152.294 1368.19C156.456 1381.46 165.857 1389.06 178.092 1389.66Z" fill="white"/>
<path d="M126.436 1309.77C134.061 1300.27 142.863 1292.3 152.234 1286.87C161.636 1281.42 170.438 1279.19 178.092 1279.84C165.857 1294.66 156.456 1313.11 152.294 1331.2C148.073 1317.97 138.702 1310.36 126.436 1309.77Z" fill="white"/>
</svg>
