<svg width="131" height="824" viewBox="0 0 131 824" fill="none" xmlns="http://www.w3.org/2000/svg">
<path d="M28.5269 107.189C22.4282 110.559 16.3122 114.726 10.3435 119.603C7.90059 121.596 5.40559 123.796 3.42179 126.69C1.44665 129.583 0.0952545 133.36 0.727644 135.786C1.438 138.532 4.29674 138.696 6.99956 138.055C14.337 136.323 22.6275 130.042 28.9514 121.405" fill="#F1FF9C"/>
<path d="M41.7291 153.561C37.6489 161.133 33.0922 168.513 28.1717 175.513C26.1619 178.372 24.0048 181.256 21.6225 183.231C19.2402 185.207 16.5547 186.073 15.3419 184.548C13.9732 182.833 14.8569 178.813 16.1563 175.227C19.6994 165.49 26.2486 155.658 33.4994 149.178" fill="#F1FF9C"/>
<path d="M32.1739 95.8323C28.3363 94.9746 24.3427 93.9957 22.2463 90.3833C19.8987 86.3377 20.4704 79.0783 23.6584 72.4425C25.5642 68.4662 28.9513 64.3427 31.8014 64.2128C34.2097 64.1088 35.2059 66.9069 35.2926 69.9129C35.3705 72.9189 34.7902 76.3321 35.1454 79.1562C35.5005 81.9803 37.207 84.1807 39.8319 83.0285" fill="#F1FF9C"/>
<path d="M102.482 64.4897C108.58 60.8167 114.696 57.9234 120.665 55.8964C123.108 55.0648 125.602 54.3804 127.586 54.9955C129.561 55.6105 130.912 57.8281 130.28 60.9727C129.57 64.533 126.711 67.998 124.008 70.4929C116.671 77.241 108.381 80.5241 102.057 79.1901" fill="#F1FF9C"/>
<path d="M89.2884 126.099C93.3684 128.967 97.9249 131.08 102.845 132.397C104.855 132.934 107.012 133.333 109.394 132.553C111.776 131.773 114.462 129.538 115.675 126.619C117.043 123.319 116.16 120.321 114.86 118.242C111.317 112.594 104.768 110.325 97.5178 112.222" fill="#F1FF9C"/>
<path d="M98.8434 57.3346C102.681 52.0415 106.675 46.454 108.771 40.416C111.119 33.6589 110.547 27.0665 107.359 24.1038C105.453 22.3279 102.066 22.12 99.2159 25.2733C96.8076 27.9414 95.8114 31.9004 95.7248 35.0017C95.6468 38.103 96.2272 40.8404 95.8721 44.0717C95.5169 47.3029 93.8103 51.4698 91.1854 53.3583" fill="#F1FF9C"/>
<path d="M87.9716 50.3688C87.9716 65.0784 77.8619 82.8459 65.3874 90.0448C52.9129 97.2436 42.8033 91.1537 42.8033 76.4441C42.8033 61.7345 52.9129 43.967 65.3874 36.7681C77.8619 29.5693 87.9716 35.6593 87.9716 50.3688Z" fill="#F1FF9C"/>
<mask id="mask0_179_1333" style="mask-type:luminance" maskUnits="userSpaceOnUse" x="42" y="33" width="46" height="61">
<path d="M87.9716 50.3688C87.9716 65.0784 77.8619 82.8459 65.3874 90.0448C52.9129 97.2436 42.8033 91.1537 42.8033 76.4441C42.8033 61.7345 52.9129 43.967 65.3874 36.7681C77.8619 29.5693 87.9716 35.6593 87.9716 50.3688Z" fill="white"/>
</mask>
<g mask="url(#mask0_179_1333)">
<path d="M55.3899 50.2657C55.3899 55.9484 51.4051 62.8525 46.4848 65.6938C41.5644 68.5351 37.5796 66.2309 37.5796 60.5482C37.5796 54.8656 41.5644 47.9615 46.4848 45.1202C51.4051 42.2788 55.3899 44.5831 55.3899 50.2657Z" fill="#F1FF9C"/>
<path d="M93.212 28.4347C93.212 34.1173 89.2273 41.0214 84.3069 43.8628C79.3866 46.7041 75.4017 44.3998 75.4017 38.7172C75.4017 33.0345 79.3866 26.1304 84.3069 23.2891C89.2273 20.4478 93.212 22.752 93.212 28.4347Z" fill="#F1FF9C"/>
</g>
<path d="M56.1785 42.0346C56.0486 41.0125 55.7454 40.1029 55.1737 39.5571C54.55 38.9681 53.6318 38.8381 52.6615 39.0114C51.6827 39.1846 50.6431 39.6611 49.6123 40.2242C49.1358 40.484 48.6248 40.7959 48.235 41.3416C47.7412 42.026 47.5852 42.9355 47.7758 43.49C47.9664 44.0444 48.4515 44.2782 48.9886 44.2696C49.5344 44.2696 50.1321 44.053 50.7298 43.8278C51.3275 43.6026 51.9338 43.3513 52.4969 43.282C53.6923 43.1261 54.6453 43.8191 54.9571 45.0752C55.0264 45.3611 55.0697 45.6729 55.1909 45.9068C55.5028 46.4872 56.4644 46.0194 56.3171 45.1272C56.1612 44.183 56.3084 43.0135 56.1785 42.0346Z" fill="#F1FF99"/>
<path d="M74.6134 31.3876C74.7433 30.2182 75.0465 28.9534 75.6183 27.7407C76.242 26.4326 77.1602 25.2458 78.1304 24.293C79.1093 23.3401 80.1487 22.6124 81.1796 21.9887C81.656 21.6942 82.1672 21.417 82.557 21.5123C83.0508 21.6249 83.2066 22.3525 83.0161 23.1322C82.8255 23.9031 82.3405 24.6914 81.8034 25.3238C81.2576 25.9475 80.6599 26.4326 80.0622 26.9004C79.4645 27.3595 78.8581 27.8186 78.295 28.399C77.0995 29.6291 76.1467 31.4136 75.8348 33.0335C75.7655 33.3973 75.7222 33.7612 75.6009 34.1337C75.2891 35.0692 74.3275 35.7103 74.4748 34.6534C74.6307 33.5273 74.4834 32.5224 74.6134 31.4049V31.3876Z" fill="#F1FF99"/>
<path d="M74.9946 42.1482C74.9946 42.1482 70.2299 29.613 69.5889 22.3449C69.2943 18.9663 69.0345 15.3453 70.4552 11.3604C71.1915 9.30725 72.3264 7.30612 73.0368 5.25302C73.7558 3.19992 73.9463 0.912917 72.8548 0.202561C71.746 -0.516458 69.7535 0.774307 68.4107 2.56752C67.917 3.2259 67.3625 3.81498 66.7995 4.33476C66.3403 4.75924 65.8639 5.14907 65.3787 5.41762C64.859 5.66018 64.3392 5.82477 63.8454 5.92872C63.3256 6.04134 62.8145 6.07599 62.3554 5.99803C61.004 5.76413 59.0115 6.77768 57.9113 8.77015C56.8198 10.7366 57.0191 12.8071 57.7295 14.0285C58.4485 15.25 59.5833 15.943 60.311 17.1471C61.7317 19.4861 61.4718 23.4104 61.1773 27.1268C60.5362 35.1313 55.7716 53.1327 55.7716 53.1327" fill="#F1FF99"/>
<path d="M111.552 81.6851C111.552 111.719 90.917 147.982 65.4568 162.683C39.9966 177.384 19.3615 164.953 19.3615 134.919C19.3615 104.884 39.9966 68.6215 65.4568 53.9206C90.917 39.2197 111.552 51.651 111.552 81.6851Z" fill="#F1FF9C"/>
<mask id="mask1_179_1333" style="mask-type:luminance" maskUnits="userSpaceOnUse" x="19" y="47" width="93" height="122">
<path d="M111.552 81.6851C111.552 111.719 90.917 147.982 65.4568 162.683C39.9966 177.384 19.3615 164.953 19.3615 134.919C19.3615 104.884 39.9966 68.6215 65.4568 53.9206C90.917 39.2197 111.552 51.651 111.552 81.6851Z" fill="white"/>
</mask>
<g mask="url(#mask1_179_1333)">
<path d="M145.095 62.3155C145.095 84.5964 129.449 111.694 110.157 122.843C90.8563 133.983 75.2197 124.957 75.2197 102.667C75.2197 80.3862 90.865 53.2887 110.157 42.1396C129.458 30.9992 145.095 40.0259 145.095 62.3155ZM110.149 57.7155C98.2977 64.5592 88.6992 81.1919 88.6992 94.8705C88.6992 108.549 98.3064 114.093 110.149 107.258C121.999 100.415 131.598 83.7821 131.598 70.1034C131.598 56.4247 121.991 50.8805 110.149 57.7155Z" fill="white"/>
<path d="M55.6937 113.937C55.6937 136.217 40.0485 163.315 20.7563 174.464C1.45536 185.605 -14.1811 176.578 -14.1811 154.288C-14.1811 132.007 1.46403 104.91 20.7563 93.7607C40.0571 82.6203 55.6937 91.647 55.6937 113.937ZM20.7476 109.337C8.89677 116.18 -0.701604 132.813 -0.701604 146.492C-0.701604 160.17 8.90543 165.715 20.7476 158.88C32.5984 152.036 42.1969 135.403 42.1969 121.724C42.1969 108.046 32.5897 102.502 20.7476 109.337Z" fill="white"/>
</g>
<path d="M87.8849 142.853C81.2404 151.092 73.5999 157.988 65.4394 162.7C57.305 167.395 49.6644 169.327 43.0459 168.747C53.6926 155.943 61.827 139.96 65.4914 124.28C69.1038 135.759 77.2642 142.334 87.8849 142.853Z" fill="white"/>
<path d="M43.0459 73.7246C49.6644 65.5035 57.305 58.6079 65.4394 53.9126C73.5999 49.2 81.2404 47.2681 87.8849 47.8312C77.2642 60.6523 69.1038 76.618 65.4914 92.2718C61.827 80.8195 53.6926 74.2357 43.0459 73.7246Z" fill="white"/>
<path d="M28.9129 320.146C22.7855 323.543 16.6582 327.677 10.6785 332.55C8.24232 334.543 5.73232 336.758 3.73908 339.637C1.74585 342.517 0.417019 346.356 1.00761 348.718C1.74584 351.45 4.55114 351.598 7.28261 351.007C14.665 349.309 22.9332 342.96 29.282 334.322" fill="#F1FF9C"/>
<path d="M42.1273 366.585C38.067 374.189 33.49 381.572 28.5438 388.586C26.5505 391.465 24.3358 394.344 21.9735 396.338C19.6111 398.331 16.8797 399.217 15.6985 397.666C14.2958 395.968 15.1817 391.908 16.5105 388.364C20.0541 378.619 26.6244 368.725 33.8591 362.229" fill="#F1FF9C"/>
<path d="M32.5302 308.777C28.6914 307.891 24.7049 306.931 22.5641 303.313C20.2017 299.253 20.7923 292.017 23.9667 285.373C25.8861 281.386 29.282 277.252 32.0873 277.104C34.5235 277.03 35.4832 279.836 35.557 282.789C35.6308 285.816 35.0402 289.212 35.4094 292.017C35.7785 294.823 37.4764 297.038 40.1341 295.93" fill="#F1FF9C"/>
<path d="M102.958 277.397C109.085 273.706 115.212 270.827 121.192 268.76C123.628 267.948 126.138 267.209 128.131 267.874C130.124 268.464 131.453 270.679 130.862 273.854C130.124 277.397 127.319 280.867 124.587 283.377C117.205 290.169 108.937 293.418 102.589 292.089" fill="#F1FF9C"/>
<path d="M89.7434 339.118C93.8036 341.998 98.3805 344.139 103.327 345.394C105.32 345.91 107.534 346.353 109.897 345.541C112.259 344.729 114.99 342.514 116.171 339.561C117.574 336.239 116.688 333.286 115.359 331.145C111.816 325.461 105.246 323.246 98.0114 325.091" fill="#F1FF9C"/>
<path d="M99.3404 270.237C103.179 264.921 107.166 259.31 109.307 253.256C111.669 246.464 111.078 239.893 107.904 236.94C105.985 235.168 102.589 234.947 99.7834 238.121C97.3472 240.779 96.3875 244.766 96.3137 247.867C96.2399 250.968 96.8304 253.699 96.4613 256.948C96.0922 260.196 94.3943 264.331 91.7366 266.25" fill="#F1FF9C"/>
<path d="M88.1931 263.37C88.1931 278.136 78.0793 295.929 65.6031 303.09C53.127 310.326 43.0131 304.198 43.0131 289.432C43.0131 274.666 53.127 256.874 65.6031 249.712C78.0793 242.477 88.1931 248.605 88.1931 263.37Z" fill="#F1FF9C"/>
<path d="M59.8442 248.677C59.5489 246.093 58.7369 243.731 57.2604 242.328C55.6364 240.778 53.3479 240.483 50.838 240.925C48.3281 241.368 45.6705 242.623 43.013 244.026C41.758 244.691 40.5031 245.503 39.4696 246.905C38.2146 248.677 37.7717 250.966 38.2884 252.442C38.8052 253.919 39.9863 254.436 41.3889 254.436C42.7915 254.436 44.3417 253.919 45.892 253.328C47.4422 252.738 48.9925 252.147 50.3951 251.926C53.4956 251.556 55.9317 253.328 56.6699 256.503C56.8175 257.241 56.9652 258.053 57.2604 258.644C58.0725 260.12 60.5086 258.939 60.1395 256.651C59.7704 254.214 60.1395 251.261 59.7704 248.751L59.8442 248.677Z" fill="#F1FF9C"/>
<path d="M71.2137 242.108C71.509 239.081 72.3211 235.906 73.7976 232.732C75.4217 229.409 77.7102 226.309 80.2202 223.872C82.7302 221.436 85.3878 219.59 88.0455 217.966C89.3005 217.228 90.5555 216.489 91.589 216.711C92.844 217.006 93.287 218.852 92.7702 220.845C92.2534 222.839 91.0723 224.832 89.6696 226.456C88.267 228.081 86.7167 229.336 85.1664 230.517C83.6161 231.698 82.0658 232.879 80.6631 234.356C77.5626 237.531 75.1264 242.108 74.3881 246.242C74.2405 247.202 74.0928 248.088 73.7976 249.048C72.9855 251.41 70.5493 253.109 70.9184 250.377C71.2876 247.498 70.9184 244.914 71.2876 242.034L71.2137 242.108Z" fill="#F1FF9C"/>
<path d="M112.112 294.6C112.112 324.722 91.4414 361.046 65.8984 375.738C40.3555 390.43 19.6849 378.026 19.6849 347.904C19.6849 317.782 40.3555 281.458 65.8984 266.766C91.4414 252.074 112.112 264.477 112.112 294.6Z" fill="#F1FF9C"/>
<mask id="mask2_179_1333" style="mask-type:luminance" maskUnits="userSpaceOnUse" x="19" y="260" width="94" height="122">
<path d="M112.112 294.6C112.112 324.722 91.4414 361.046 65.8984 375.738C40.3555 390.43 19.6849 378.026 19.6849 347.904C19.6849 317.782 40.3555 281.458 65.8984 266.766C91.4414 252.074 112.112 264.477 112.112 294.6Z" fill="white"/>
</mask>
<g mask="url(#mask2_179_1333)">
<path d="M75.1995 277.913C75.1995 282.786 70.8441 289.209 65.4552 292.383C60.0662 295.484 55.7108 294.081 55.7108 289.209C55.7108 284.336 60.0662 277.913 65.4552 274.739C70.8441 271.638 75.1995 273.041 75.1995 277.913Z" fill="white"/>
<path d="M80.3668 289.136C80.3668 295.485 73.7229 304.492 65.455 309.217C57.2608 313.942 50.5431 312.686 50.5431 306.337C50.5431 299.988 57.187 290.981 65.455 286.257C73.6491 281.532 80.3668 282.787 80.3668 289.136Z" fill="white"/>
<path d="M82.5825 311.433C82.5825 320.219 74.9049 331.662 65.4555 337.125C56.0061 342.589 48.3284 339.931 48.3284 331.145C48.3284 322.36 56.0061 310.916 65.4555 305.453C74.9049 299.989 82.5825 302.647 82.5825 311.433Z" fill="white"/>
<path d="M85.1664 331.957C85.1664 339.266 76.3814 350.193 65.5293 356.469C54.6773 362.744 45.8922 361.932 45.8922 354.623C45.8922 347.314 54.6773 336.387 65.5293 330.112C76.3814 323.836 85.1664 324.648 85.1664 331.957Z" fill="white"/>
<path d="M77.9317 358.535C77.9317 366.951 72.3211 376.992 65.4555 380.979C58.5899 384.966 52.9793 381.348 52.9793 372.932C52.9793 364.515 58.5899 354.474 65.4555 350.487C72.3211 346.501 77.9317 350.118 77.9317 358.535Z" fill="white"/>
<path d="M107.091 241.663C107.903 245.945 104.286 252.885 98.9709 257.167C93.7296 261.375 88.7836 261.301 87.9715 257.019C87.1595 252.737 90.7767 245.798 96.0919 241.516C101.333 237.308 106.279 237.381 107.091 241.663Z" fill="white"/>
<path d="M114.474 250.229C115.508 255.84 109.823 265.659 101.777 272.156C93.7299 278.653 86.2737 279.318 85.2402 273.707C84.2066 268.096 89.891 258.276 97.9378 251.779C105.985 245.282 113.441 244.618 114.474 250.229Z" fill="white"/>
<path d="M120.602 269.349C122.078 277.101 115.729 289.431 106.428 296.887C97.1258 304.344 88.4884 304.049 87.0119 296.297C85.5355 288.545 91.8843 276.215 101.186 268.759C110.488 261.302 119.125 261.597 120.602 269.349Z" fill="white"/>
<path d="M126.729 286.773C127.91 293.196 120.233 305.378 109.602 313.942C98.9713 322.507 89.3005 324.205 88.1193 317.708C86.9381 311.285 94.6158 299.103 105.246 290.539C115.877 281.974 125.548 280.276 126.729 286.773Z" fill="white"/>
<path d="M123.333 312.318C124.736 319.775 120.38 330.185 113.588 335.648C106.797 341.038 100.226 339.413 98.8237 331.957C97.421 324.5 101.777 314.09 108.568 308.627C115.36 303.237 121.93 304.861 123.333 312.318Z" fill="white"/>
<path d="M23.8928 289.726C23.0808 294.968 26.698 297.699 32.0132 295.854C37.2545 294.008 42.2005 288.249 43.0125 283.008C43.8245 277.766 40.2073 275.034 34.8922 276.88C29.6509 278.726 24.7049 284.484 23.8928 289.726Z" fill="white"/>
<path d="M16.4367 306.855C15.4032 313.72 21.0874 316.895 29.1339 314.09C37.1804 311.21 44.6363 303.385 45.6698 296.593C46.7033 289.727 41.0191 286.552 32.9726 289.358C24.9261 292.237 17.4702 300.063 16.4367 306.855Z" fill="white"/>
<path d="M10.3832 332.991C8.9067 342.441 15.2555 347.387 24.5573 344.139C33.859 340.89 42.4964 330.554 43.9729 321.178C45.4493 311.728 39.1005 306.781 29.7988 310.03C20.497 313.278 11.8596 323.614 10.3832 332.991Z" fill="white"/>
<path d="M4.25582 357.502C3.07465 365.328 10.7523 368.65 21.3829 364.885C32.0135 361.12 41.6843 351.743 42.8655 343.844C44.0467 336.018 36.369 332.695 25.7385 336.461C15.1079 340.226 5.437 349.602 4.25582 357.502Z" fill="white"/>
<path d="M7.57787 379.134C6.17523 388.215 10.5308 393.605 17.3226 391.242C24.1143 388.88 30.6846 379.577 32.0873 370.496C33.4899 361.415 29.1343 356.026 22.3426 358.388C15.5508 360.751 8.98052 370.053 7.57787 379.134Z" fill="white"/>
</g>
<path d="M52.9989 489.514C45.5427 482.057 42.8851 465.741 46.4286 448.539C47.093 445.29 47.9789 441.968 49.5292 439.015C51.0056 436.062 53.2204 433.552 55.2875 433.256C57.2807 432.961 58.831 435.324 58.1666 438.572C57.4283 442.337 54.1801 446.25 54.623 449.573C55.5089 447.579 56.2471 446.619 57.4283 444.995C58.6095 443.371 60.1598 442.19 61.2671 442.706C62.596 443.297 62.8174 446.029 62.3007 448.613C61.7101 451.197 60.5289 453.633 59.4216 456.07C58.3142 458.506 57.2807 461.164 57.133 463.6C56.6163 470.909 60.1598 475.56 64.2201 477.037" fill="#F1FF9C"/>
<path d="M76.3271 476.003C83.7833 459.908 86.4409 440.565 82.8974 427.497C82.233 425.061 81.3471 422.698 79.7968 421.517C78.3204 420.336 76.1056 420.41 74.0386 422.403C71.9715 424.397 70.495 428.531 71.1594 431.041C71.8977 433.994 75.1459 434.142 74.703 437.907C73.8171 436.874 73.0789 436.874 71.8977 436.578C70.7165 436.283 69.1662 436.947 68.0589 438.719C66.73 440.86 66.5086 443.887 67.0253 445.807C67.6159 447.727 68.7971 448.76 69.9045 449.941C71.0118 451.123 72.0453 452.525 72.193 454.814C72.7097 461.533 69.1662 470.244 65.1059 476.446" fill="#F1FF9C"/>
<path d="M87.253 476.816C87.253 491.582 77.1392 509.374 64.663 516.536C52.1868 523.771 42.073 517.643 42.073 502.877C42.073 488.112 52.1868 470.319 64.663 463.157C77.1392 455.922 87.253 462.05 87.253 476.816Z" fill="#F1FF9C"/>
<path d="M28.0465 533.591C21.9192 536.987 15.7918 541.121 9.8121 545.994C7.37593 547.987 4.86591 550.202 2.87268 553.082C0.879445 555.961 -0.449342 559.8 0.141246 562.163C0.879481 564.894 3.68476 565.042 6.41623 564.451C13.7986 562.753 22.0668 556.404 28.4156 547.766" fill="#F1FF9C"/>
<path d="M41.2609 580.028C37.2007 587.632 32.6236 595.015 27.6774 602.029C25.6842 604.908 23.4695 607.788 21.1071 609.781C18.7448 611.774 16.0133 612.66 14.8321 611.11C13.4295 609.412 14.3154 605.351 15.6442 601.807C19.1877 592.062 25.758 582.169 32.9927 575.672" fill="#F1FF9C"/>
<path d="M31.6639 522.147C27.825 521.261 23.8386 520.301 21.6977 516.683C19.3353 512.623 19.926 505.388 23.1004 498.743C25.0198 494.756 28.4156 490.622 31.2209 490.474C33.6571 490.4 34.6168 493.206 34.6906 496.159C34.7645 499.186 34.1739 502.582 34.543 505.388C34.9121 508.193 36.61 510.408 39.2677 509.301" fill="#F1FF9C"/>
<path d="M102.091 490.77C108.219 487.078 114.346 484.199 120.325 482.132C122.761 481.32 125.271 480.581 127.264 481.246C129.258 481.836 130.586 484.051 129.996 487.226C129.258 490.77 126.452 494.239 123.721 496.749C116.339 503.541 108.071 506.79 101.722 505.461" fill="#F1FF9C"/>
<path d="M88.8771 552.49C92.9372 555.369 97.5142 557.51 102.46 558.765C104.453 559.282 106.668 559.725 109.03 558.912C111.393 558.1 114.124 555.886 115.305 552.932C116.708 549.61 115.822 546.657 114.493 544.516C110.95 538.832 104.38 536.617 97.1451 538.462" fill="#F1FF9C"/>
<path d="M98.4741 483.608C102.313 478.292 106.299 472.681 108.44 466.628C110.803 459.835 110.212 453.264 107.038 450.311C105.118 448.539 101.722 448.318 98.9171 451.493C96.4809 454.15 95.5212 458.137 95.4474 461.238C95.3735 464.339 95.9642 467.07 95.595 470.319C95.2259 473.567 93.528 477.702 90.8703 479.621" fill="#F1FF9C"/>
<path d="M111.319 507.898C111.319 538.021 90.6489 574.345 65.1059 589.037C39.563 603.729 18.8925 591.325 18.8925 561.203C18.8925 531.081 39.563 494.757 65.1059 480.065C90.6489 465.373 111.319 477.776 111.319 507.898Z" fill="#F1FF9C"/>
<mask id="mask3_179_1333" style="mask-type:luminance" maskUnits="userSpaceOnUse" x="18" y="473" width="94" height="123">
<path d="M111.319 507.898C111.319 538.021 90.6489 574.345 65.1059 589.037C39.563 603.729 18.8925 591.325 18.8925 561.203C18.8925 531.081 39.563 494.757 65.1059 480.065C90.6489 465.373 111.319 477.776 111.319 507.898Z" fill="white"/>
</mask>
<g mask="url(#mask3_179_1333)">
<path d="M82.0854 514.985C82.0854 521.999 74.4815 532.04 65.1059 537.429C55.7303 542.819 48.1266 541.564 48.1266 534.55C48.1266 527.536 55.7303 517.495 65.1059 512.106C74.4815 506.716 82.0854 507.971 82.0854 514.985Z" fill="white"/>
<path d="M75.662 476.226C75.662 480.582 70.9374 486.857 65.1056 490.179C59.2737 493.575 54.5491 492.763 54.5491 488.407C54.5491 484.051 59.2737 477.776 65.1056 474.454C70.9374 471.058 75.662 471.87 75.662 476.226Z" fill="white"/>
<path d="M78.3195 547.544C78.3195 554.041 72.4138 562.752 65.1055 566.961C57.7972 571.169 51.8915 569.323 51.8915 562.752C51.8915 556.256 57.7972 547.544 65.1055 543.336C72.4138 539.128 78.3195 540.974 78.3195 547.544Z" fill="white"/>
<path d="M45.8373 555.075C45.8373 561.277 41.4819 568.881 36.093 571.982C30.704 575.082 26.3486 572.572 26.3486 566.371C26.3486 560.169 30.704 552.565 36.093 549.465C41.4819 546.364 45.8373 548.874 45.8373 555.075Z" fill="white"/>
<path d="M103.936 521.482C103.936 527.683 99.581 535.287 94.1921 538.388C88.8031 541.489 84.4477 538.979 84.4477 532.777C84.4477 526.576 88.8031 518.972 94.1921 515.871C99.581 512.77 103.936 515.28 103.936 521.482Z" fill="white"/>
<path d="M60.6765 582.317C60.6765 591.103 52.7036 602.842 42.8112 608.526C32.9927 614.211 24.946 611.701 24.946 602.915C24.946 594.13 32.9189 582.391 42.8112 576.706C52.6298 571.021 60.6765 573.532 60.6765 582.317Z" fill="white"/>
<path d="M105.266 556.552C105.266 565.337 97.293 577.076 87.4007 582.761C77.5821 588.446 69.5353 585.935 69.5353 577.15C69.5353 568.364 77.5083 556.625 87.4007 550.941C97.2192 545.256 105.266 547.766 105.266 556.552Z" fill="white"/>
<path d="M125.567 467.957C125.567 479.696 115.896 494.831 103.863 501.697C91.9039 508.637 82.1592 504.724 82.1592 492.985C82.1592 481.246 91.83 466.111 103.863 459.245C115.823 452.305 125.567 456.218 125.567 467.957Z" fill="white"/>
<path d="M45.9857 513.952C45.9857 525.691 36.7577 540.53 25.3889 547.101C14.0201 553.672 4.79213 549.464 4.79213 537.725C4.79213 525.986 14.0201 511.147 25.3889 504.576C36.7577 498.005 45.9857 502.213 45.9857 513.952Z" fill="white"/>
</g>
<path d="M28.5269 745.393C22.4282 748.762 16.3122 752.929 10.3435 757.806C7.90059 759.799 5.40559 761.999 3.42179 764.893C1.44665 767.786 0.0952545 771.563 0.727644 773.989C1.438 776.735 4.29674 776.899 6.99956 776.258C14.337 774.526 22.6275 768.245 28.9514 759.608" fill="#F1FF9C"/>
<path d="M41.7291 791.765C37.6489 799.337 33.0922 806.717 28.1717 813.717C26.1619 816.576 24.0048 819.46 21.6225 821.436C19.2402 823.411 16.5547 824.277 15.3419 822.752C13.9732 821.037 14.8569 817.018 16.1563 813.431C19.6994 803.694 26.2486 793.862 33.4994 787.382" fill="#F1FF9C"/>
<path d="M32.1739 734.035C28.3363 733.178 24.3427 732.199 22.2463 728.586C19.8987 724.541 20.4704 717.281 23.6584 710.646C25.5642 706.669 28.9513 702.546 31.8014 702.416C34.2097 702.312 35.2059 705.11 35.2926 708.116C35.3705 711.122 34.7902 714.535 35.1454 717.359C35.5005 720.183 37.207 722.384 39.8319 721.232" fill="#F1FF9C"/>
<path d="M102.482 702.693C108.58 699.02 114.696 696.127 120.665 694.1C123.108 693.268 125.602 692.584 127.586 693.199C129.561 693.814 130.912 696.031 130.28 699.176C129.57 702.736 126.711 706.201 124.008 708.696C116.671 715.444 108.381 718.727 102.057 717.393" fill="#F1FF9C"/>
<path d="M89.2884 764.303C93.3684 767.171 97.9249 769.284 102.845 770.601C104.855 771.138 107.012 771.537 109.394 770.757C111.776 769.977 114.462 767.742 115.675 764.823C117.043 761.523 116.16 758.526 114.86 756.446C111.317 750.798 104.768 748.529 97.5178 750.426" fill="#F1FF9C"/>
<path d="M98.8434 695.538C102.681 690.245 106.675 684.657 108.771 678.619C111.119 671.862 110.547 665.27 107.359 662.307C105.453 660.531 102.066 660.323 99.216 663.476C96.8077 666.145 95.8114 670.103 95.7248 673.205C95.6469 676.306 96.2273 679.044 95.8721 682.275C95.5169 685.506 93.8103 689.673 91.1855 691.561" fill="#F1FF9C"/>
<path d="M87.9716 688.573C87.9716 703.282 77.8619 721.05 65.3874 728.249C52.9129 735.448 42.8033 729.358 42.8033 714.648C42.8033 699.939 52.9129 682.171 65.3874 674.972C77.8619 667.773 87.9716 673.863 87.9716 688.573Z" fill="#F1FF9C"/>
<mask id="mask4_179_1333" style="mask-type:luminance" maskUnits="userSpaceOnUse" x="42" y="671" width="46" height="61">
<path d="M87.9716 688.573C87.9716 703.282 77.8619 721.05 65.3874 728.249C52.9129 735.448 42.8033 729.358 42.8033 714.648C42.8033 699.939 52.9129 682.171 65.3874 674.972C77.8619 667.773 87.9716 673.863 87.9716 688.573Z" fill="white"/>
</mask>
<g mask="url(#mask4_179_1333)">
<path d="M55.3899 688.469C55.3899 694.152 51.4051 701.056 46.4848 703.897C41.5644 706.738 37.5796 704.434 37.5796 698.751C37.5796 693.069 41.5644 686.165 46.4848 683.323C51.4051 680.482 55.3899 682.786 55.3899 688.469Z" fill="#F1FF9C"/>
<path d="M93.212 666.638C93.212 672.32 89.2273 679.225 84.3069 682.066C79.3866 684.907 75.4017 682.603 75.4017 676.92C75.4017 671.238 79.3866 664.334 84.3069 661.492C89.2273 658.651 93.212 660.955 93.212 666.638Z" fill="#F1FF9C"/>
</g>
<path d="M56.1785 680.238C56.0486 679.216 55.7454 678.306 55.1737 677.76C54.55 677.171 53.6318 677.041 52.6615 677.215C51.6827 677.388 50.6431 677.864 49.6123 678.427C49.1358 678.687 48.6248 678.999 48.235 679.545C47.7412 680.229 47.5852 681.139 47.7758 681.693C47.9664 682.247 48.4515 682.481 48.9886 682.473C49.5344 682.473 50.1321 682.256 50.7298 682.031C51.3275 681.806 51.9338 681.554 52.4969 681.485C53.6923 681.329 54.6453 682.022 54.9571 683.278C55.0264 683.564 55.0697 683.876 55.1909 684.11C55.5028 684.69 56.4644 684.223 56.3171 683.33C56.1612 682.386 56.3084 681.217 56.1785 680.238Z" fill="#F1FF99"/>
<path d="M74.6134 669.592C74.7433 668.422 75.0465 667.158 75.6183 665.945C76.242 664.637 77.1602 663.45 78.1304 662.497C79.1093 661.544 80.1487 660.817 81.1796 660.193C81.656 659.898 82.1672 659.621 82.557 659.716C83.0508 659.829 83.2066 660.557 83.0161 661.336C82.8255 662.107 82.3405 662.896 81.8034 663.528C81.2576 664.152 80.6599 664.637 80.0622 665.105C79.4645 665.564 78.8581 666.023 78.295 666.603C77.0995 667.833 76.1467 669.618 75.8348 671.238C75.7655 671.601 75.7222 671.965 75.6009 672.338C75.2891 673.273 74.3275 673.914 74.4748 672.858C74.6307 671.731 74.4834 670.727 74.6134 669.609V669.592Z" fill="#F1FF99"/>
<path d="M74.9946 680.351C74.9946 680.351 70.2299 667.816 69.5889 660.548C69.2943 657.169 69.0345 653.548 70.4552 649.563C71.1915 647.51 72.3264 645.509 73.0368 643.456C73.7558 641.403 73.9463 639.116 72.8548 638.406C71.746 637.687 69.7535 638.977 68.4107 640.771C67.917 641.429 67.3625 642.018 66.7995 642.538C66.3403 642.962 65.8639 643.352 65.3787 643.621C64.859 643.863 64.3392 644.028 63.8454 644.132C63.3256 644.244 62.8145 644.279 62.3554 644.201C61.004 643.967 59.0115 644.981 57.9113 646.973C56.8198 648.94 57.0191 651.01 57.7295 652.232C58.4485 653.453 59.5833 654.146 60.311 655.35C61.7317 657.689 61.4718 661.614 61.1773 665.33C60.5362 673.334 55.7716 691.336 55.7716 691.336" fill="#F1FF99"/>
<path d="M111.552 719.888C111.552 749.922 90.917 786.185 65.4568 800.886C39.9966 815.587 19.3615 803.156 19.3615 773.122C19.3615 743.087 39.9966 706.825 65.4568 692.124C90.917 677.423 111.552 689.854 111.552 719.888Z" fill="#F1FF9C"/>
<mask id="mask5_179_1333" style="mask-type:luminance" maskUnits="userSpaceOnUse" x="19" y="685" width="93" height="123">
<path d="M111.552 719.888C111.552 749.922 90.917 786.185 65.4568 800.886C39.9966 815.587 19.3615 803.156 19.3615 773.122C19.3615 743.087 39.9966 706.825 65.4568 692.124C90.917 677.423 111.552 689.854 111.552 719.888Z" fill="white"/>
</mask>
<g mask="url(#mask5_179_1333)">
<path d="M145.095 700.519C145.095 722.8 129.449 749.897 110.157 761.046C90.8563 772.187 75.2197 763.16 75.2197 740.87C75.2197 718.589 90.865 691.492 110.157 680.343C129.458 669.202 145.095 678.229 145.095 700.519ZM110.149 695.919C98.2977 702.762 88.6992 719.395 88.6992 733.074C88.6992 746.752 98.3064 752.297 110.149 745.462C121.999 738.618 131.598 721.985 131.598 708.307C131.598 694.628 121.991 689.084 110.149 695.919Z" fill="white"/>
<path d="M55.6937 752.141C55.6937 774.422 40.0485 801.519 20.7563 812.668C1.45536 823.809 -14.1811 814.782 -14.1811 792.492C-14.1811 770.211 1.46403 743.114 20.7563 731.965C40.0571 720.824 55.6937 729.851 55.6937 752.141ZM20.7476 747.541C8.89677 754.384 -0.701604 771.017 -0.701604 784.696C-0.701604 798.374 8.90543 803.919 20.7476 797.084C32.5984 790.24 42.1969 773.607 42.1969 759.929C42.1969 746.25 32.5897 740.706 20.7476 747.541Z" fill="white"/>
</g>
<path d="M87.8849 781.058C81.2404 789.296 73.5999 796.192 65.4394 800.904C57.305 805.6 49.6644 807.531 43.0459 806.951C53.6926 794.147 61.827 778.164 65.4914 762.484C69.1038 773.963 77.2642 780.538 87.8849 781.058Z" fill="white"/>
<path d="M43.0459 711.928C49.6644 703.707 57.305 696.811 65.4394 692.116C73.5999 687.403 81.2404 685.471 87.8849 686.034C77.2642 698.855 69.1038 714.821 65.4914 730.475C61.827 719.023 53.6926 712.439 43.0459 711.928Z" fill="white"/>
</svg>
