<svg width="268" height="283" viewBox="0 0 268 283" fill="none" xmlns="http://www.w3.org/2000/svg">
<path d="M133.579 106.383L267.149 183.504L133.579 260.634L0 183.504L133.579 106.383Z" fill="#FF7FD1"/>
<path d="M0 183.503V205.546L133.579 282.667V260.634L0 183.503Z" fill="#D4719D"/>
<path d="M267.148 183.503V205.546L133.579 282.667V260.634L267.148 183.503Z" fill="#FF77A3"/>
<path d="M91.3807 208.306L44.8924 181.194L44.6201 92.0283L91.2869 119.037L91.3338 154.279L91.3807 208.306Z" fill="#DBD5D5"/>
<path d="M180.649 27.4033L180.245 156.57L91.3805 208.306L91.3336 154.279L91.2866 119.038L126.078 58.8055L133.832 54.3463L180.649 27.4033Z" fill="#BABCBE"/>
<path d="M180.65 27.4034L133.833 54.3464L126.078 58.8056L79.3081 31.9283L133.889 0.67627L180.65 27.4034Z" fill="#E6DFDF"/>
<path d="M126.078 58.8051L91.2869 119.037L44.6201 92.0285L79.308 31.9277L126.078 58.8051Z" fill="#E6DFDF"/>
<path d="M105.284 14.2603V27.4407C105.284 31.0926 107.697 34.7538 112.494 37.5326C122.107 43.0902 137.832 43.0902 147.454 37.5326C152.261 34.7538 154.664 31.102 154.664 27.4407V14.2603C154.664 17.9121 152.251 21.5734 147.454 24.3521C137.832 29.9097 122.098 29.9097 112.494 24.3521C107.687 21.5734 105.284 17.9215 105.284 14.2603Z" fill="#7F6DE5"/>
<path d="M105.284 14.2601C105.284 17.9119 107.697 21.5732 112.494 24.352C122.107 29.9096 137.832 29.9096 147.454 24.352C152.261 21.5732 154.664 17.9213 154.664 14.2601C154.664 10.5988 152.251 6.93759 147.454 4.16819C137.832 -1.3894 122.098 -1.3894 112.494 4.16819C107.687 6.9282 105.284 10.5988 105.284 14.2601Z" fill="#ABA0E5"/>
<path d="M109.922 116.109L164.503 84.7065L164.108 121.835L109.922 153.369V116.109Z" fill="#8B7DFF"/>
<path d="M109.339 216.333C109.405 217.075 109.621 217.826 110.212 218.183C111.404 218.84 112.775 218.605 113.902 217.957C115.807 216.868 117.704 215.761 119.609 214.662C122.003 213.282 124.454 212.494 127.242 212.494C128.65 212.494 130.152 212.653 131.569 213.066C132.931 213.461 134.207 214.09 135.24 215.028C137.728 217.272 136.583 220.201 134.029 221.759C132.978 222.407 131.889 223.008 130.818 223.628C130.565 223.768 130.312 223.919 130.058 224.069C129.204 224.557 128.359 225.055 127.505 225.543C127.092 225.777 126.613 225.993 126.322 226.388L126.209 226.622V226.641L126.162 226.904L126.209 227.139V227.167C126.697 228.312 128.415 228.246 129.429 228.312C131.785 228.453 134.189 228.397 136.564 228.106C139.737 227.721 142.863 226.904 145.745 225.58C148.28 224.416 150.749 222.82 152.457 220.567C153.293 219.469 153.941 218.183 154.203 216.821C154.466 215.46 154.213 214.324 153.988 213.001C153.781 211.78 155.724 211.095 156.588 210.597C159.123 209.133 161.657 207.668 164.192 206.204C171.524 201.97 178.847 197.736 186.178 193.502C190.666 190.911 195.097 188.123 199.687 185.701C200.485 185.278 201.255 185.232 202.138 185.325C203.621 185.494 205.095 185.626 206.597 185.645C206.822 185.645 207.038 185.645 207.263 185.645C209.986 185.626 212.699 185.344 215.365 184.753C220.481 183.617 226.734 180.988 228.921 175.806C229.231 175.065 229.437 174.285 229.512 173.487C229.559 172.999 229.559 172.52 229.512 172.032C229.494 171.863 229.475 171.694 229.447 171.525C229.334 170.859 229.231 170.258 228.621 169.882C228.086 169.563 227.4 169.479 226.79 169.507C225.579 169.563 224.593 170.314 223.589 170.896C221.937 171.845 220.294 172.811 218.641 173.76C216.792 174.811 214.755 175.365 212.652 175.496C212.089 175.534 211.525 175.534 210.962 175.506C210.07 175.468 209.122 175.356 208.193 175.149C206.372 174.745 204.597 173.985 203.358 172.642C202.814 172.051 202.504 171.441 202.382 170.84C202.016 169.066 203.255 167.338 205.001 166.278C206.315 165.48 207.667 164.738 209 163.968C209.798 163.508 210.587 163.048 211.385 162.588C211.788 162.353 212.239 162.147 212.521 161.771L212.643 161.518V161.471L212.652 161.424L212.671 161.264L212.652 161.171L212.614 161.011C212.229 160.138 211.131 160.016 210.305 159.95C206.08 159.622 201.79 159.903 197.688 161.002C193.717 162.062 189.586 163.893 186.901 167.123C185.634 168.643 184.761 170.511 184.704 172.511C184.676 173.431 184.827 174.351 185.127 175.215C185.446 176.154 186.075 176.867 185.052 177.59C184.376 178.069 183.597 178.435 182.874 178.848C181.024 179.909 179.184 180.979 177.335 182.04C171.89 185.185 166.445 188.32 160.991 191.465C155.959 194.366 150.927 197.267 145.886 200.168C144.581 200.919 143.276 201.67 141.981 202.421C140.873 203.059 139.868 203.143 138.592 202.918C134.254 202.139 129.776 202.12 125.43 202.862C121.365 203.557 117.262 204.955 113.939 207.462C112.278 208.71 110.794 210.306 109.968 212.24C109.63 213.019 109.414 213.855 109.339 214.7C109.32 214.888 109.311 215.075 109.311 215.263C109.311 215.582 109.311 215.958 109.339 216.333Z" fill="white"/>
<path d="M202.364 170.831C202.486 171.431 202.805 172.042 203.34 172.633C204.579 173.976 206.353 174.736 208.175 175.14C208.494 174.961 208.804 174.783 209.123 174.595C209.883 174.154 210.634 173.722 211.395 173.281C211.78 173.065 212.221 172.858 212.484 172.492L212.606 172.239L212.634 171.995V161.452V161.499L212.502 161.753C212.221 162.128 211.761 162.335 211.367 162.569C210.569 163.029 209.78 163.489 208.982 163.949C207.649 164.719 206.297 165.461 204.983 166.259C203.237 167.32 201.998 169.047 202.364 170.821V170.831Z" fill="#DBD5D5"/>
<path d="M109.34 216.333V226.378C109.34 227.233 109.434 228.312 110.035 228.8C111.02 229.533 112.522 229.476 113.574 228.932C115.104 228.143 116.578 227.195 118.071 226.331C120.652 224.839 122.999 223.543 126.05 223.308C127.609 223.186 129.261 223.261 130.829 223.628C131.908 223.017 132.988 222.407 134.039 221.759C136.583 220.201 137.738 217.272 135.25 215.028C134.208 214.09 132.931 213.47 131.58 213.066C130.162 212.653 128.66 212.494 127.252 212.494C124.464 212.494 122.004 213.282 119.62 214.662C117.714 215.761 115.817 216.859 113.912 217.957C112.785 218.605 111.415 218.84 110.222 218.183C109.622 217.817 109.415 217.066 109.349 216.333H109.34Z" fill="#DBD5D5"/>
<path d="M126.219 227.138V237.784L126.247 237.934C126.744 239.108 128.528 239.023 129.57 239.08C130.95 239.155 132.34 239.173 133.729 239.098C136.592 238.948 139.446 238.507 142.206 237.681C147.125 236.207 153.19 233.034 154.241 227.486C154.504 226.106 154.157 224.988 153.988 223.646C153.894 222.951 154.382 222.632 154.917 222.322C156.607 221.327 158.316 220.351 160.015 219.375C166.999 215.338 173.974 211.301 180.959 207.264C186.779 203.903 192.59 200.543 198.411 197.172C199.772 196.384 200.739 195.886 202.401 196.083C205.348 196.44 208.315 196.468 211.272 196.159C216.727 195.595 222.716 193.821 226.659 189.812C228.349 188.085 229.522 185.841 229.522 183.438V173.478C229.447 174.276 229.24 175.064 228.931 175.796C226.753 180.978 220.5 183.607 215.375 184.743C212.709 185.334 210.005 185.616 207.273 185.635C207.048 185.635 206.832 185.635 206.606 185.635C205.114 185.616 203.63 185.485 202.147 185.316C201.265 185.212 200.495 185.269 199.697 185.691C195.106 188.113 190.675 190.901 186.188 193.492C178.856 197.726 171.534 201.96 164.202 206.194C161.667 207.659 159.132 209.123 156.598 210.588C155.725 211.095 153.791 211.77 153.997 212.991C154.223 214.315 154.476 215.46 154.213 216.812C153.941 218.173 153.303 219.459 152.467 220.557C150.758 222.81 148.289 224.406 145.755 225.57C142.873 226.894 139.746 227.701 136.573 228.096C134.198 228.387 131.795 228.443 129.439 228.302C128.425 228.246 126.707 228.302 126.219 227.157V227.129V227.138Z" fill="#DBD5D5"/>
</svg>
