<svg width="285" height="302" viewBox="0 0 285 302" fill="none" xmlns="http://www.w3.org/2000/svg">
<path d="M284.57 195.471V218.951L142.29 301.101L139 275L284.57 195.471Z" fill="#FF77A3"/>
<path d="M0 195.471V218.951L142.29 301.101V272L0 195.471Z" fill="#D4719D"/>
<path d="M142.29 113.32L284.57 195.47L142.29 277.63L0 195.47L142.29 113.32Z" fill="#FF7FD1"/>
<path d="M97.3401 221.889L47.8201 193.009L47.52 98.0293L102.5 121.5V164L97.3401 221.889Z" fill="#DBD5D5"/>
<path d="M192.43 29.1895L192 166.779L97.3401 221.889L97.28 164.339L97.24 126.799L133.5 59L141 55.5L192.43 29.1895Z" fill="#BABCBE"/>
<path d="M192.43 29.1907L142.56 57.8907L134.29 62.6407L97.24 126.801L47.52 98.0307L84.4801 34.0107L142.62 0.720703L192.43 29.1907Z" fill="#E6DFDF"/>
<path d="M112.15 15.1895V29.2294C112.15 33.1194 114.72 37.0194 119.83 39.9794C130.07 45.8994 146.82 45.8994 157.07 39.9794C162.19 37.0194 164.75 33.1294 164.75 29.2294V15.1895C164.75 19.0795 162.18 22.9795 157.07 25.9395C146.82 31.8595 130.06 31.8595 119.83 25.9395C114.71 22.9795 112.15 19.0895 112.15 15.1895Z" fill="#7F6DE5"/>
<path d="M112.15 15.19C112.15 19.08 114.72 22.98 119.83 25.94C130.07 31.86 146.82 31.86 157.07 25.94C162.19 22.98 164.75 19.09 164.75 15.19C164.75 11.29 162.18 7.39 157.07 4.44C146.82 -1.48 130.06 -1.48 119.83 4.44C114.71 7.38 112.15 11.29 112.15 15.19Z" fill="#ABA0E5"/>
<path d="M117.09 123.68L175.22 90.2305L174.8 129.78L117.09 163.37V123.68Z" fill="#8B7DFF"/>
<path d="M116.47 230.44C116.54 231.23 116.77 232.029 117.4 232.409C118.67 233.109 120.13 232.859 121.33 232.169C123.36 231.009 125.38 229.829 127.41 228.659C129.96 227.189 132.57 226.349 135.54 226.349C137.04 226.349 138.64 226.519 140.15 226.959C141.6 227.379 142.96 228.049 144.06 229.049C146.71 231.439 145.49 234.559 142.77 236.219C141.65 236.909 140.49 237.549 139.35 238.209C139.08 238.359 138.81 238.519 138.54 238.679C137.63 239.199 136.73 239.73 135.82 240.25C135.38 240.5 134.87 240.729 134.56 241.149L134.44 241.399V241.419L134.39 241.7L134.44 241.95V241.979C134.96 243.199 136.79 243.13 137.87 243.2C140.38 243.35 142.94 243.289 145.47 242.979C148.85 242.569 152.18 241.699 155.25 240.289C157.95 239.049 160.58 237.35 162.4 234.95C163.29 233.78 163.98 232.409 164.26 230.959C164.54 229.509 164.27 228.3 164.03 226.89C163.81 225.59 165.88 224.86 166.8 224.33C169.5 222.77 172.2 221.209 174.9 219.649C182.71 215.139 190.51 210.629 198.32 206.119C203.1 203.359 207.82 200.39 212.71 197.81C213.56 197.36 214.38 197.309 215.32 197.409C216.9 197.589 218.47 197.73 220.07 197.75C220.31 197.75 220.54 197.75 220.78 197.75C223.68 197.73 226.57 197.429 229.41 196.799C234.86 195.589 241.52 192.79 243.85 187.27C244.18 186.48 244.4 185.649 244.48 184.799C244.53 184.279 244.53 183.77 244.48 183.25C244.46 183.07 244.44 182.889 244.41 182.709C244.29 181.999 244.18 181.359 243.53 180.959C242.96 180.619 242.23 180.53 241.58 180.56C240.29 180.62 239.24 181.419 238.17 182.039C236.41 183.049 234.66 184.079 232.9 185.089C230.93 186.209 228.76 186.8 226.52 186.94C225.92 186.98 225.32 186.98 224.72 186.95C223.77 186.91 222.76 186.79 221.77 186.57C219.83 186.14 217.94 185.329 216.62 183.899C216.04 183.269 215.71 182.619 215.58 181.979C215.19 180.089 216.51 178.25 218.37 177.12C219.77 176.27 221.21 175.479 222.63 174.659C223.48 174.169 224.32 173.68 225.17 173.19C225.6 172.94 226.08 172.72 226.38 172.32L226.51 172.049V172L226.52 171.95L226.54 171.779L226.52 171.679L226.48 171.51C226.07 170.58 224.9 170.45 224.02 170.38C219.52 170.03 214.95 170.33 210.58 171.5C206.35 172.63 201.95 174.58 199.09 178.02C197.74 179.64 196.81 181.63 196.75 183.76C196.72 184.74 196.88 185.72 197.2 186.64C197.54 187.64 198.21 188.399 197.12 189.169C196.4 189.679 195.57 190.07 194.8 190.51C192.83 191.64 190.87 192.779 188.9 193.909C183.1 197.259 177.3 200.6 171.49 203.95C166.13 207.04 160.77 210.129 155.4 213.219C154.01 214.019 152.62 214.819 151.24 215.619C150.06 216.299 148.99 216.389 147.63 216.149C143.01 215.319 138.24 215.299 133.61 216.089C129.28 216.829 124.91 218.319 121.37 220.989C119.6 222.319 118.02 224.02 117.14 226.08C116.78 226.91 116.55 227.8 116.47 228.7C116.45 228.9 116.44 229.099 116.44 229.299C116.44 229.639 116.44 230.04 116.47 230.44Z" fill="white"/>
<path d="M215.55 181.97C215.68 182.61 216.02 183.261 216.59 183.891C217.91 185.321 219.8 186.13 221.74 186.56C222.08 186.37 222.41 186.18 222.75 185.98C223.56 185.51 224.36 185.051 225.17 184.581C225.58 184.351 226.05 184.13 226.33 183.74L226.46 183.47L226.49 183.21V171.98V172.03L226.35 172.3C226.05 172.7 225.56 172.92 225.14 173.17C224.29 173.66 223.45 174.151 222.6 174.641C221.18 175.461 219.74 176.25 218.34 177.1C216.48 178.23 215.16 180.07 215.55 181.96V181.97Z" fill="#DBD5D5"/>
<path d="M116.47 230.44V241.14C116.47 242.05 116.57 243.2 117.21 243.72C118.26 244.5 119.86 244.44 120.98 243.86C122.61 243.02 124.18 242.01 125.77 241.09C128.52 239.5 131.02 238.12 134.27 237.87C135.93 237.74 137.69 237.82 139.36 238.21C140.51 237.56 141.66 236.91 142.78 236.22C145.49 234.56 146.72 231.44 144.07 229.05C142.96 228.05 141.6 227.39 140.16 226.96C138.65 226.52 137.05 226.35 135.55 226.35C132.58 226.35 129.96 227.19 127.42 228.66C125.39 229.83 123.37 231 121.34 232.17C120.14 232.86 118.68 233.11 117.41 232.41C116.77 232.02 116.55 231.22 116.48 230.44H116.47Z" fill="#DBD5D5"/>
<path d="M134.45 241.951V253.291L134.48 253.451C135.01 254.701 136.91 254.611 138.02 254.671C139.49 254.751 140.97 254.771 142.45 254.691C145.5 254.531 148.54 254.061 151.48 253.181C156.72 251.611 163.18 248.231 164.3 242.321C164.58 240.851 164.21 239.661 164.03 238.231C163.93 237.491 164.45 237.151 165.02 236.821C166.82 235.761 168.64 234.721 170.45 233.681C177.89 229.381 185.32 225.081 192.76 220.781C198.96 217.201 205.15 213.621 211.35 210.031C212.8 209.191 213.83 208.661 215.6 208.871C218.74 209.251 221.9 209.281 225.05 208.951C230.86 208.351 237.24 206.461 241.44 202.191C243.24 200.351 244.49 197.961 244.49 195.401V184.791C244.41 185.641 244.19 186.481 243.86 187.261C241.54 192.781 234.88 195.581 229.42 196.791C226.58 197.421 223.7 197.721 220.79 197.741C220.55 197.741 220.32 197.741 220.08 197.741C218.49 197.721 216.91 197.581 215.33 197.401C214.39 197.291 213.57 197.351 212.72 197.801C207.83 200.381 203.11 203.351 198.33 206.111C190.52 210.621 182.72 215.131 174.91 219.641C172.21 221.201 169.51 222.761 166.81 224.321C165.88 224.861 163.82 225.581 164.04 226.881C164.28 228.291 164.55 229.511 164.27 230.951C163.98 232.401 163.3 233.771 162.41 234.941C160.59 237.341 157.96 239.041 155.26 240.281C152.19 241.691 148.86 242.551 145.48 242.971C142.95 243.281 140.39 243.341 137.88 243.191C136.8 243.131 134.97 243.191 134.45 241.971V241.941V241.951Z" fill="#DBD5D5"/>
</svg>
