<?xml version="1.0" encoding="UTF-8"?>
<svg id="Layer_1" data-name="Layer 1" xmlns="http://www.w3.org/2000/svg" viewBox="0 0 74.33 74.33">
  <defs>
    <style>
      .cls-1 {
        fill: #fff;
      }

      .cls-2 {
        fill: #603fc9;
      }

      .cls-3 {
        fill: #6c50ff;
      }
    </style>
  </defs>
  <g>
    <path class="cls-2" d="M30.23,51.23l.28-.64c.2,3.09.39,6.18.59,9.27.07,1.08.14,2.18.56,3.17s1.25,1.89,2.31,2.08c1.05.19,2.13-.35,2.83-1.15s1.07-1.84,1.32-2.88c.78-3.17.59-6.57-.55-9.63"/>
    <path class="cls-2" d="M17.2,46.49c-2.66,1.25-4.63,3.86-5.1,6.76-.2,1.23-.13,2.53.44,3.63s1.73,1.94,2.97,1.91c1.04-.02,2-.64,2.67-1.44s1.1-1.76,1.53-2.72c1.04-2.33,2.07-4.66,3.11-6.99-.14,0-.28.01-.42.02"/>
    <path class="cls-2" d="M10.33,39.46c-2.47-1.63-6.06-1.18-8.18.88s-2.72,5.49-1.58,8.23c.66,1.59,2.19,3.09,3.88,2.79,1.48-.27,2.4-1.78,2.83-3.22s.59-3.01,1.44-4.26c3.2.27,6.49-.61,9.13-2.45"/>
    <path class="cls-2" d="M48.01,50.42l1.16,1.72c.59.87,1.19,1.76,2.03,2.4s1.95,1.01,2.96.69c1.33-.42,2.07-1.92,2.06-3.31s-.6-2.71-1.19-3.97"/>
  </g>
  <path class="cls-3" d="M51.6,41.02c-.6-3.32-3.26-5.86-5.96-7.89-1.96-1.48-4.02-2.81-6.17-4.01.05-.14.11-.28.16-.42.65.15,1.31.29,1.97.4.76.13,1.55.24,2.29.02,4-1.15,1.64-5.93-.05-8.07-2.1-2.66-5.04-5.13-8.2-6.38-3.24-1.29-6.75-1.83-10.21-2.09-6.97-.52-18.27.29-21.81,7.57-2.56,5.26.01,11.74,2.74,16.43,2.35,4.04,5.59,7.56,9.45,10.2,3.58,2.43,7.94,3.67,12.11,4.65,4.66,1.09,9.76,1.97,14.54.85,5.09-1.19,10.19-5.5,9.14-11.25Z"/>
  <path class="cls-3" d="M33.44,42.04c-1.1-6.43,1.66-13.07,6.03-17.91,4.37-4.84,10.2-8.11,16.13-10.82,2.12-.97,4.39-1.9,6.71-1.65.56.72.47,1.87,0,2.65s-1.2,1.36-1.89,1.96c-3.05,2.67-5.41,6.37-5.63,10.42s2.09,8.34,5.93,9.64c.93.31,1.94.45,2.88.18s1.78-1,2-1.95c-.89-.85-1.18-2.01-1.73-3.11-.4-.8-.68-1.83-.15-2.55.36-.5,1.04-.71,1.66-.63s1.17.41,1.66.8c.85.69,1.69,1.65,2.78,1.54.65-.07,1.18-.53,1.71-.91s1.2-.72,1.82-.51c.53.18.87.73.96,1.28s-.02,1.12-.13,1.67c-.31,1.55-.61,3.1-.92,4.65-1.04,5.26-5.32,10.15-10.25,12.26-2.52,1.08-5.27,1.52-7.98,1.91-4.37.62-8.88,1.13-13.16.03-4.28-1.1-7.68-4.57-8.43-8.92Z"/>
  <circle class="cls-1" cx="46.77" cy="44.25" r="5"/>
  <path class="cls-2" d="M35.85,37.29c.05,1.23-.91,2.26-2.14,2.3-.03,0-.05,0-.08,0-1.19,0-2.17-.94-2.22-2.14-.21-5.76,1.84-11.49,5.56-16.27-3.26-3.18-7.3-5.55-11.67-6.84-4.11-1.21-8.49-1.45-12.71-.73,4.3-1.21,9.16-1.3,12.82-1.03,3.46.26,6.97.8,10.21,2.09,1.66.66,3.27,1.66,4.73,2.86,1.17.95,2.25,2.03,3.17,3.16-4.94,4.48-7.9,10.63-7.69,16.61Z"/>
</svg>