<svg width="250" height="194" viewBox="0 0 250 194" fill="none" xmlns="http://www.w3.org/2000/svg">
<path d="M246.545 49.575V2.625" stroke="#EDFF82" stroke-width="5.25" stroke-linecap="round" stroke-linejoin="round"/>
<path d="M185.565 37.835V84.775" stroke="#EDFF82" stroke-width="5.25" stroke-linecap="round" stroke-linejoin="round"/>
<path d="M246.535 2.625C246.535 12.355 243.135 23.1349 237.615 32.6849C232.085 42.2449 224.455 50.5749 216.055 55.4349C199.215 65.1649 185.575 57.295 185.575 37.835" stroke="#EDFF82" stroke-width="5.25" stroke-linecap="round" stroke-linejoin="round"/>
<path d="M185.565 84.785V37.835" stroke="#EDFF82" stroke-width="5.25" stroke-linecap="round" stroke-linejoin="round"/>
<path d="M124.585 73.0449V119.995" stroke="#EDFF82" stroke-width="5.25" stroke-linecap="round" stroke-linejoin="round"/>
<path d="M185.555 37.835C185.555 47.565 182.155 58.345 176.635 67.895C171.105 77.455 163.475 85.785 155.075 90.645C138.235 100.375 124.595 92.505 124.595 73.045" stroke="#EDFF82" stroke-width="5.25" stroke-linecap="round" stroke-linejoin="round"/>
<path d="M124.585 119.695V72.7549" stroke="#EDFF82" stroke-width="5.25" stroke-linecap="round" stroke-linejoin="round"/>
<path d="M63.605 107.965V154.905" stroke="#EDFF82" stroke-width="5.25" stroke-linecap="round" stroke-linejoin="round"/>
<path d="M124.575 72.7549C124.575 82.4849 121.175 93.2648 115.655 102.815C110.125 112.375 102.495 120.705 94.095 125.565C77.255 135.295 63.615 127.425 63.615 107.965" stroke="#EDFF82" stroke-width="5.25" stroke-linecap="round" stroke-linejoin="round"/>
<path d="M63.605 155.625V108.675" stroke="#EDFF82" stroke-width="5.25" stroke-linecap="round" stroke-linejoin="round"/>
<path d="M2.625 143.885V190.835" stroke="#EDFF82" stroke-width="5.25" stroke-linecap="round" stroke-linejoin="round"/>
<path d="M63.595 108.675C63.595 118.405 60.1949 129.185 54.6749 138.735C49.1449 148.295 41.515 156.625 33.115 161.485C16.275 171.215 2.63501 163.345 2.63501 143.885" stroke="#EDFF82" stroke-width="5.25" stroke-linecap="round" stroke-linejoin="round"/>
</svg>
