<svg width="204" height="204" viewBox="0 0 204 204" fill="none" xmlns="http://www.w3.org/2000/svg">
<path d="M193.06 90.88C149.28 89.7 114.06 54.49 112.88 10.7C112.72 4.74001 107.84 0 101.88 0C95.92 0 91.04 4.75001 90.88 10.7C89.7 54.48 54.49 89.7 10.7 90.88C4.74 91.04 0 95.92 0 101.88C0 107.84 4.75 112.72 10.7 112.88C54.48 114.06 89.7 149.27 90.88 193.06C91.04 199.02 95.92 203.76 101.88 203.76C107.84 203.76 112.72 199.01 112.88 193.06C114.06 149.28 149.27 114.06 193.06 112.88C199.02 112.72 203.76 107.84 203.76 101.88C203.76 95.92 199.01 91.04 193.06 90.88Z" fill="white"/>
</svg>
