<svg width="712" height="687" viewBox="0 0 712 687" fill="none" xmlns="http://www.w3.org/2000/svg">
<path d="M497.58 140.09L494.6 141.8L494.9 374.44L494.98 395.03L481.61 387.24L481.53 382.18L481.05 64L497.52 73.45L555.67 106.79L497.58 140.09Z" fill="#5842D1"/>
<path d="M481.61 387.24L435.3 423.72L435.16 363.15L434.36 100.19L481.05 64L481.53 382.18L481.61 387.24Z" fill="#5842D1"/>
<path d="M435.3 423.72L392.62 398.8L391.35 75.4697L434.36 100.19L435.16 363.15L435.3 423.72Z" fill="#6C50FF"/>
<path d="M711.47 65.1399L669.67 89.1499L619.8 117.8L555.67 154.64L536.3 165.77L497.59 143.52L494.6 141.8L497.58 140.09L555.67 106.79L497.51 73.45L481.04 64.01L434.36 100.2L391.34 75.48C397.73 70.22 404.11 64.9499 410.5 59.6799C419.89 51.9299 429.29 44.1799 438.68 36.4299C442.67 33.1299 446.56 29.3998 450.88 26.5398C465.68 16.7598 482.01 8.79 497.43 0L619.86 69.99L669.78 41.3699L711.47 65.1499V65.1399Z" fill="#8B7DFF"/>
<path d="M536.41 489.82L495.06 465.66L494.98 395.03L494.9 374.44L494.6 141.8L497.59 143.52L536.29 165.77L536.37 345.08L536.39 419.16L536.4 441.58L536.41 489.82Z" fill="#6C50FF"/>
<path d="M711.47 65.1396L710.2 388.38L536.41 489.82L536.4 441.58L536.39 419.16L536.37 345.08L536.29 165.77L555.67 154.64L619.8 117.8L669.67 89.1497L711.47 65.1396Z" fill="#5842D1"/>
<path d="M298.73 508.639L232 544.5L233 528.5V320.5L298.32 283.079L298.62 485.919L298.7 535.379L298.73 508.639Z" fill="#C964A9"/>
<path d="M234.23 546.009C224.74 539.209 216.51 530.099 215.56 518.099V291.829C216.68 298.519 220.11 305.069 226.64 311.089C228.79 313.059 231.1 314.809 233.48 316.499L234.05 528.529L234.23 546.009Z" fill="#D66BB0"/>
<path d="M537.26 264.35L536.41 489.82L342.51 602.68L342.45 570.68L342.42 514.01L342.39 471.55L342.33 376.62L401.97 342.27L493.34 289.65L537.26 264.35Z" fill="#C964A9"/>
<path d="M436.55 230.27V272.01L388.5 302.5C402.17 285.53 435.29 253.4 436.55 230.27Z" fill="#D66BB0"/>
<path d="M360.5 266.5C363.6 267.821 367.967 264.602 363 264C365.279 259.754 365.19 255.826 365.19 250.929V250.919C365.18 244.339 358.91 240.919 353.22 239.499C339.43 236.059 324.1 242.639 312.4 249.479C301.24 256.019 282.06 270.769 298.32 283.079L298.62 485.919L298.7 535.379C300.31 533.739 302.12 532.169 304.01 530.709L304.15 580.319L342.51 602.679L342.45 570.679L342.42 514.009L342.39 471.549L342.33 376.619L312.4 352.5C315.705 347.346 312.196 345.652 315.5 340.5C323.955 327.316 333.552 314.686 342 301.5C343.633 298.95 345.842 296.044 347.5 293.5C353.058 284.969 355.709 275.466 360.5 266.5Z" fill="#D66BB0"/>
<path d="M436.55 230.269C435.29 253.399 415.66 274.899 401.99 291.869L436.55 272.009L493.45 239.299L537.26 264.359L493.33 289.649L401.97 342.279L342.33 376.629L303.77 354.389C315.52 336.049 327.28 317.709 339.03 299.379C346.15 288.269 353.69 277.319 359.9 265.679C362.24 261.309 365.2 256.059 365.19 250.929C365.19 244.349 358.91 240.929 353.22 239.509C339.43 236.069 324.1 242.639 312.4 249.489C301.24 256.019 282.06 270.779 298.32 283.079L233.48 320.259C231.11 318.569 228.79 316.819 226.65 314.849C220.11 308.829 216.68 302.279 215.56 295.589C214.98 292.139 215.02 288.649 215.56 285.159C217.62 271.919 226.98 258.899 237.54 249.009C256.64 231.129 280.72 217.719 304.85 207.939C328.65 198.289 354.71 192.029 380.51 192.889C400.92 193.559 435.05 200.839 436.55 226.199V230.269Z" fill="#FF7FD1"/>
<path d="M217.4 398.56L217.36 435.05C207.64 438.86 198.25 443.41 189.34 448.08L217.4 398.56Z" fill="#DBFF00"/>
<path d="M217.4 398.56L217.36 435.05C207.64 438.86 198.25 443.41 189.34 448.08L217.4 398.56Z" fill="#ACDB00"/>
<path fill-rule="evenodd" clip-rule="evenodd" d="M0 477.61L0.0200649 477.622L0.0199872 477.599L0 477.61Z" fill="#DBFF00"/>
<path d="M119.06 534.19L94.79 548.19L94.81 560.93L94.86 599.17L42.17 629.64L42.06 581.37L41.86 501.78L138.09 446.43L119.02 479.01L119.06 534.19Z" fill="#ACDB00"/>
<path d="M318.38 463.5V588.96C317.4 602.11 306.39 614.11 297.28 622.46C285.15 633.59 271.12 642.48 256.99 650.81C245.94 657.14 234.64 663.01 222.92 668.01C184.38 684.46 134.31 696.78 94.96 676.17L94.86 599.17L94.8 560.93L94.78 548.19C98.91 550.34 103.19 552.12 107.57 553.56C111.34 554.79 115.18 555.78 119.08 556.54C123.64 557.43 128.28 558.01 132.95 558.32C134.68 558.43 136.41 558.52 138.14 558.57C143.29 558.73 148.42 558.62 153.54 558.26C155.55 558.13 157.55 557.95 159.55 557.74C169.57 556.69 179.5 554.73 189.29 552.07C197.17 549.93 204.96 547.33 212.62 544.38C229.65 537.81 246.03 529.48 261.36 520.5C276.99 511.07 292.84 500.85 305.12 487.16C311.02 480.58 316.82 472.28 318.4 463.5H318.38Z" fill="#8DC900"/>
<path d="M159.54 510.82L153.53 514.284V514.3L138.12 523.19L119.06 534.19L119.02 479.01L138.11 490.03L153.52 498.914V498.9C157.688 496.498 161.84 494.044 165.995 491.589V491.589C169.815 489.332 173.639 487.072 177.48 484.85C181.4 482.59 185.34 480.36 189.31 478.22C191.03 477.29 192.76 476.37 194.51 475.47C201.31 471.96 209.32 468.27 217.31 467.44C221.3 467.03 225.29 467.33 229.13 468.73C241.82 473.35 236.02 483.31 228.02 489.64L228.03 489.66C224.66 492.33 221.05 494.82 217.29 497.13C210.26 501.45 202.71 505.12 195.24 508.08C193.32 508.84 191.33 509.56 189.31 510.19C185.47 511.4 181.49 512.34 177.48 512.79C171.41 513.48 165.29 513.06 159.54 510.82Z" fill="#8DC900"/>
<path d="M177.51 375.71L0.0273444 477.594V477.594L0.0200195 477.621L0.449906 605.39L42.1699 629.64L42.06 581.37L41.86 501.788L138.08 446.45L119 479.03L138.09 490.04L153.51 498.93C157.678 496.528 161.83 494.075 165.985 491.619C169.805 489.362 173.628 487.102 177.47 484.88C181.38 482.62 185.32 480.4 189.3 478.25C191.03 477.31 192.76 476.4 194.5 475.5C201.3 471.98 209.3 468.29 217.3 467.47C221.29 467.06 225.28 467.36 229.12 468.76C241.81 473.38 236.01 483.34 228.01 489.67C224.64 492.34 221.03 494.83 217.27 497.14C210.24 501.46 202.69 505.13 195.22 508.09C193.3 508.85 191.31 509.56 189.29 510.2C185.45 511.41 181.46 512.34 177.46 512.8C171.39 513.48 165.27 513.07 159.52 510.83L153.5 514.3L138.09 523.19L119.03 534.19L94.7599 548.19C98.8899 550.34 103.17 552.12 107.55 553.56C111.32 554.79 115.16 555.78 119.06 556.54C123.62 557.43 128.26 558.01 132.93 558.32C134.66 558.43 136.39 558.52 138.12 558.57C143.27 558.73 148.4 558.62 153.52 558.26C155.53 558.13 157.53 557.95 159.53 557.74C169.55 556.68 179.49 554.73 189.27 552.07C197.16 549.93 204.95 547.34 212.6 544.38C229.64 537.82 246.01 529.48 261.34 520.5C276.98 511.07 292.82 500.85 305.1 487.16C311 480.58 316.8 472.27 318.38 463.5L318.36 463.51C318.9 460.55 318.95 457.53 318.36 454.51C317.99 452.59 317.36 450.67 316.43 448.76C309.93 435.39 293.21 428.73 279.44 426.29C258.46 422.57 237.23 427.27 217.34 435.07C207.62 438.89 198.22 443.43 189.32 448.1L217.38 398.58L177.51 375.71Z" fill="#DBFF00"/>
</svg>
