<svg width="712" height="687" viewBox="0 0 712 687" fill="none" xmlns="http://www.w3.org/2000/svg">
<path d="M497.58 140.09L494.6 141.8L494.9 374.44L494.98 395.03L481.61 387.24L481.53 382.18L481.05 64L497.52 73.45L555.67 106.79L497.58 140.09Z" fill="#5842D1"/>
<path d="M481.61 387.24L435.3 423.72L435.16 363.15L434.36 100.19L481.05 64L481.53 382.18L481.61 387.24Z" fill="#5842D1"/>
<path d="M435.3 423.72L392.62 398.8L391.35 75.4697L434.36 100.19L435.16 363.15L435.3 423.72Z" fill="#6C50FF"/>
<path d="M711.47 65.1399L669.67 89.1499L619.8 117.8L555.67 154.64L536.3 165.77L497.59 143.52L494.6 141.8L497.58 140.09L555.67 106.79L497.51 73.45L481.04 64.01L434.36 100.2L391.34 75.48C397.73 70.22 404.11 64.9499 410.5 59.6799C419.89 51.9299 429.29 44.1799 438.68 36.4299C442.67 33.1299 446.56 29.3998 450.88 26.5398C465.68 16.7598 482.01 8.79 497.43 0L619.86 69.99L669.78 41.3699L711.47 65.1499V65.1399Z" fill="#8B7DFF"/>
<path d="M536.41 489.82L495.06 465.66L494.98 395.03L494.9 374.44L494.6 141.8L497.59 143.52L536.29 165.77L536.37 345.08L536.39 419.16L536.4 441.58L536.41 489.82Z" fill="#6C50FF"/>
<path d="M711.47 65.1396L710.2 388.38L536.41 489.82L536.4 441.58L536.39 419.16L536.37 345.08L536.29 165.77L555.67 154.64L619.8 117.8L669.67 89.1497L711.47 65.1396Z" fill="#5842D1"/>
<path d="M365.19 250.929C365.19 256.059 362.24 261.309 359.9 265.679C353.68 277.319 346.14 288.269 339.03 299.369C327.28 317.709 315.52 336.039 303.76 354.379L303.94 483.629L304.01 530.709C302.12 532.169 300.31 533.739 298.7 535.379L298.62 485.919L298.32 283.079C282.06 270.769 301.24 256.019 312.4 249.479C324.1 242.639 339.43 236.059 353.22 239.499C358.91 240.919 365.18 244.339 365.19 250.919V250.929Z" fill="#D66BB0"/>
<path d="M298.73 508.639L234.23 546.009L234.05 528.529L233.49 320.249L298.32 283.079L298.62 485.919L298.7 535.379L298.73 508.639Z" fill="#C964A9"/>
<path d="M234.23 546.009C224.74 539.209 216.51 530.099 215.56 518.099V295.579C216.68 302.269 220.11 308.819 226.64 314.839C228.79 316.809 231.1 318.559 233.48 320.249L234.05 528.529L234.23 546.009Z" fill="#D66BB0"/>
<path d="M436.55 230.269C435.29 253.399 415.66 274.899 401.99 291.869L436.55 272.009L493.45 239.299L537.26 264.359L493.33 289.649L401.97 342.279L342.33 376.629L303.77 354.389C315.52 336.049 327.28 317.709 339.03 299.379C346.15 288.269 353.69 277.319 359.9 265.679C362.24 261.309 365.2 256.059 365.19 250.929C365.19 244.349 358.91 240.929 353.22 239.509C339.43 236.069 324.1 242.639 312.4 249.489C301.24 256.019 282.06 270.779 298.32 283.079L233.48 320.259C231.11 318.569 228.79 316.819 226.65 314.849C220.11 308.829 216.68 302.279 215.56 295.589C214.98 292.139 215.02 288.649 215.56 285.159C217.62 271.919 226.98 258.899 237.54 249.009C256.64 231.129 280.72 217.719 304.85 207.939C328.65 198.289 354.71 192.029 380.51 192.889C400.92 193.559 435.05 200.839 436.55 226.199V230.269Z" fill="#FF7FD1"/>
<path d="M342.51 602.679L304.15 580.319L304.01 530.709L303.95 483.629L303.77 354.379L342.33 376.619L342.39 471.549L342.42 514.009L342.45 570.679L342.51 602.679Z" fill="#D66BB0"/>
<path d="M537.26 264.35L536.41 489.82L342.51 602.68L342.45 570.68L342.42 514.01L342.39 471.55L342.33 376.62L401.97 342.27L493.34 289.65L537.26 264.35Z" fill="#C964A9"/>
<path d="M436.55 230.27V272.01L401.99 291.869C415.66 274.899 435.29 253.4 436.55 230.27Z" fill="#D66BB0"/>
<path d="M228.03 489.66C224.66 492.33 221.05 494.82 217.29 497.13C210.26 501.45 202.71 505.12 195.24 508.08C193.32 508.84 191.33 509.56 189.31 510.19C185.47 511.4 181.49 512.34 177.48 512.79C171.41 513.48 165.29 513.06 159.54 510.82L153.52 514.29V498.9C161.52 494.29 169.46 489.49 177.48 484.85C181.4 482.59 185.34 480.36 189.31 478.22C191.03 477.29 192.76 476.37 194.51 475.47C201.31 471.96 209.32 468.27 217.31 467.44C221.3 467.03 225.29 467.33 229.13 468.73C241.82 473.35 236.02 483.31 228.02 489.64L228.03 489.66Z" fill="#8DC900"/>
<path d="M217.4 398.56L217.36 435.05C207.64 438.86 198.25 443.41 189.34 448.08L217.4 398.56Z" fill="#DBFF00"/>
<path d="M217.4 398.56L217.36 435.05C207.64 438.86 198.25 443.41 189.34 448.08L217.4 398.56Z" fill="#ACDB00"/>
<path d="M153.53 498.92V514.3L138.12 523.19L119.06 534.19L119.02 479.01L138.11 490.03L153.53 498.92Z" fill="#8DC900"/>
<path d="M318.38 463.5C316.8 472.27 311 480.58 305.1 487.16C292.82 500.85 276.98 511.07 261.34 520.5C246.01 529.48 229.64 537.82 212.6 544.38C204.95 547.34 197.16 549.93 189.27 552.07C179.49 554.73 169.55 556.68 159.53 557.74C157.53 557.95 155.53 558.13 153.52 558.26C148.4 558.62 143.27 558.73 138.12 558.57C136.39 558.52 134.66 558.43 132.93 558.32C128.26 558.01 123.62 557.43 119.06 556.54C115.16 555.78 111.32 554.79 107.55 553.56C103.17 552.12 98.8899 550.34 94.7599 548.19L119.03 534.19L138.09 523.19L153.5 514.3L159.52 510.83C165.27 513.07 171.39 513.48 177.46 512.8C181.46 512.34 185.45 511.41 189.29 510.2C191.31 509.56 193.3 508.85 195.22 508.09C202.69 505.13 210.24 501.46 217.27 497.14C221.03 494.83 224.64 492.34 228.01 489.67C236.01 483.34 241.81 473.38 229.12 468.76C225.28 467.36 221.29 467.06 217.3 467.47C209.3 468.29 201.3 471.98 194.5 475.5C192.76 476.4 191.03 477.31 189.3 478.25C185.32 480.4 181.38 482.62 177.47 484.88C169.45 489.52 161.51 494.32 153.51 498.93L138.09 490.04L119 479.03L138.08 446.45L41.84 501.8L0 477.61L177.51 375.71L217.38 398.58L189.32 448.1C198.22 443.43 207.62 438.89 217.34 435.07C237.23 427.27 258.46 422.57 279.44 426.29C293.21 428.73 309.93 435.39 316.43 448.76C317.36 450.67 317.99 452.59 318.36 454.51C318.95 457.53 318.9 460.55 318.36 463.51L318.38 463.5Z" fill="#DBFF00"/>
<path d="M42.17 629.64L0.450012 605.39L0.0200195 477.59L41.86 501.78L42.0601 581.37L42.17 629.64Z" fill="#DBFF00"/>
<path d="M119.06 534.19L94.79 548.19L94.81 560.93L94.86 599.17L42.17 629.64L42.06 581.37L41.86 501.78L138.09 446.43L119.02 479.01L119.06 534.19Z" fill="#ACDB00"/>
<path d="M318.38 463.5V588.96C317.4 602.11 306.39 614.11 297.28 622.46C285.15 633.59 271.12 642.48 256.99 650.81C245.94 657.14 234.64 663.01 222.92 668.01C184.38 684.46 134.31 696.78 94.96 676.17L94.86 599.17L94.8 560.93L94.78 548.19C98.91 550.34 103.19 552.12 107.57 553.56C111.34 554.79 115.18 555.78 119.08 556.54C123.64 557.43 128.28 558.01 132.95 558.32C134.68 558.43 136.41 558.52 138.14 558.57C143.29 558.73 148.42 558.62 153.54 558.26C155.55 558.13 157.55 557.95 159.55 557.74C169.57 556.69 179.5 554.73 189.29 552.07C197.17 549.93 204.96 547.33 212.62 544.38C229.65 537.81 246.03 529.48 261.36 520.5C276.99 511.07 292.84 500.85 305.12 487.16C311.02 480.58 316.82 472.28 318.4 463.5H318.38Z" fill="#8DC900"/>
</svg>
