<svg width="1068" height="634" viewBox="0 0 1068 634" fill="none" xmlns="http://www.w3.org/2000/svg">
<path d="M518.32 35.2102L579.3 70.4202L640.28 35.2102L579.3 0L518.32 35.2102Z" fill="#FFD1EE"/>
<path d="M396.36 105.63L457.34 140.84L518.32 105.63L457.34 70.4199L396.36 105.63Z" fill="#FFD1EE"/>
<path d="M518.32 105.63L579.3 140.84L640.28 105.63L579.3 70.4199L518.32 105.63Z" fill="#FFD1EE"/>
<path d="M640.28 105.63L701.26 140.84L762.24 105.63L701.26 70.4199L640.28 105.63Z" fill="#FFD1EE"/>
<path d="M152.45 176.05L213.43 211.26L274.4 176.05L213.43 140.84L152.45 176.05Z" fill="#FFD1EE"/>
<path d="M274.4 176.05L335.38 211.26L396.36 176.05L335.38 140.84L274.4 176.05Z" fill="#FFD1EE"/>
<path d="M396.36 176.05L457.34 211.26L518.32 176.05L457.34 140.84L396.36 176.05Z" fill="#FFD1EE"/>
<path d="M518.32 176.05L579.3 211.26L640.28 176.05L579.3 140.84L518.32 176.05Z" fill="#FFD1EE"/>
<path d="M640.28 176.05L701.26 211.26L762.24 176.05L701.26 140.84L640.28 176.05Z" fill="#FFD1EE"/>
<path d="M762.24 176.05L823.22 211.26L884.2 176.05L823.22 140.84L762.24 176.05Z" fill="#FFD1EE"/>
<path d="M30.49 246.47L91.47 281.68L152.45 246.47L91.47 211.26L30.49 246.47Z" fill="#FFD1EE"/>
<path d="M152.42 246.47L213.39 281.68L274.37 246.47L213.39 211.26L152.42 246.47Z" fill="#FFD1EE"/>
<path d="M274.4 246.47L335.38 281.68L396.36 246.47L335.38 211.26L274.4 246.47Z" fill="#FFD1EE"/>
<path d="M396.36 246.47L457.34 281.68L518.32 246.47L457.34 211.26L396.36 246.47Z" fill="#FFD1EE"/>
<path d="M640.28 246.47L701.26 281.68L762.24 246.47L701.26 211.26L640.28 246.47Z" fill="#FFD1EE"/>
<path d="M762.24 246.47L823.22 281.68L884.2 246.47L823.22 211.26L762.24 246.47Z" fill="#FFD1EE"/>
<path d="M274.4 316.89L335.38 352.1L396.36 316.89L335.38 281.68L274.4 316.89Z" fill="#FFD1EE"/>
<path d="M518.32 316.89L579.3 352.1L640.28 316.89L579.3 281.68L518.32 316.89Z" fill="#FFD1EE"/>
<path d="M396.36 316.89L457.34 352.1L518.32 316.89L457.34 281.68L396.36 316.89Z" fill="#FFD1EE"/>
<path d="M518.32 387.36L579.3 422.57L640.28 387.36L579.3 352.15L518.32 387.36Z" fill="#FFD1EE"/>
<path d="M640.28 316.89L701.26 352.1L762.24 316.89L701.26 281.68L640.28 316.89Z" fill="#FFD1EE"/>
<path d="M762.24 316.89L823.22 352.1L884.2 316.89L823.22 281.68L762.24 316.89Z" fill="#FFD1EE"/>
<path d="M884.2 316.89L945.17 352.1L1006.15 316.89L945.17 281.68L884.2 316.89Z" fill="#FFD1EE"/>
<path d="M152.45 387.31L213.43 422.51L274.4 387.31L213.43 352.1L152.45 387.31Z" fill="#FFD1EE"/>
<path d="M152.45 457.72L213.43 492.93L274.4 457.72L213.43 422.51L152.45 457.72Z" fill="#FFD1EE"/>
<path d="M274.4 387.31L335.38 422.51L396.36 387.31L335.38 352.1L274.4 387.31Z" fill="#FFD1EE"/>
<path d="M640.28 387.31L701.26 422.51L762.24 387.31L701.26 352.1L640.28 387.31Z" fill="#FFD1EE"/>
<path d="M762.24 457.72L823.22 492.93L884.2 457.72L823.22 422.51L762.24 457.72Z" fill="#FFD1EE"/>
<path d="M396.36 528.14L457.34 563.35L518.32 528.14L457.34 492.93L396.36 528.14Z" fill="#FFD1EE"/>
<path d="M274.4 528.14L335.38 563.35L396.36 528.14L335.38 492.93L274.4 528.14Z" fill="#FFD1EE"/>
<path d="M518.32 528.14L579.3 563.35L640.28 528.14L579.3 492.93L518.32 528.14Z" fill="#FFD1EE"/>
<path d="M518.32 598.56L579.3 633.77L640.28 598.56L579.3 563.35L518.32 598.56Z" fill="#FFD1EE"/>
<path d="M640.28 528.14L670.77 545.75L701.26 528.14L670.77 510.54L640.28 528.14Z" fill="#FFD1EE"/>
<path d="M640.28 457.72L670.77 475.33L701.26 457.72L670.77 440.12L640.28 457.72Z" fill="#FFD1EE"/>
<path d="M640.28 492.93L670.77 510.54L701.26 492.93L670.77 475.33L640.28 492.93Z" fill="#FFD1EE"/>
<path d="M426.85 475.33L457.34 492.93L487.83 475.33L457.34 457.72L426.85 475.33Z" fill="#FFD1EE"/>
<path d="M426.82 440.07L457.31 457.67L487.8 440.07L457.31 422.46L426.82 440.07Z" fill="#FFD1EE"/>
<path d="M457.34 598.56L487.83 616.17L518.32 598.56L487.83 580.96L457.34 598.56Z" fill="#FFD1EE"/>
<path d="M792.73 404.911L823.22 422.521L853.71 404.911L823.22 387.311L792.73 404.911Z" fill="#FFD1EE"/>
<path d="M1006.15 316.89L1036.64 334.49L1067.13 316.89L1036.64 299.28L1006.15 316.89Z" fill="#FFD1EE"/>
<path d="M1006.15 352.1L1036.64 369.7L1067.13 352.1L1036.64 334.49L1006.15 352.1Z" fill="#FFD1EE"/>
<path d="M1006.15 387.31L1036.64 404.91L1067.13 387.31L1036.64 369.7L1006.15 387.31Z" fill="#FFD1EE"/>
<path d="M1006.15 281.68L1036.64 299.28L1067.13 281.68L1036.64 264.07L1006.15 281.68Z" fill="#FFD1EE"/>
<path d="M792.75 369.75L823.24 387.36L853.73 369.75L823.24 352.15L792.75 369.75Z" fill="#FFD1EE"/>
<path d="M365.87 440.07L396.36 457.67L426.85 440.07L396.36 422.46L365.87 440.07Z" fill="#FFD1EE"/>
<path d="M182.94 334.49L213.43 352.101L243.91 334.49L213.43 316.891L182.94 334.49Z" fill="#FFD1EE"/>
<path d="M182.9 299.23L213.39 316.83L243.88 299.23L213.39 281.62L182.9 299.23Z" fill="#FFD1EE"/>
<path d="M60.43 334.49L90.92 352.101L121.41 334.49L90.92 316.891L60.43 334.49Z" fill="#FFD1EE"/>
<path d="M0 299.28L30.49 316.89L60.98 299.28L30.49 281.68L0 299.28Z" fill="#FFD1EE"/>
<path d="M60.98 299.28L91.47 316.89L121.96 299.28L91.47 281.68L60.98 299.28Z" fill="#FFD1EE"/>
<path d="M304.89 475.28L335.38 492.88L365.87 475.28L335.38 457.67L304.89 475.28Z" fill="#FFD1EE"/>
</svg>
